<svg height="512pt" viewBox="-19 0 512 512.0768" width="512pt" xmlns="http://www.w3.org/2000/svg"><path d="m400.597656 222.632812c-7.492187 9.21875-20.285156 12.171876-31.058594 7.167969 3.578126-1.574219 6.691407-4.042969 9.042969-7.167969 4.332031-5.527343 6.191407-12.597656 5.144531-19.542968-1.050781-6.941406-4.917968-13.148438-10.691406-17.148438l-30.71875-21.417968c-1.398437-.96875-2.089844-2.675782-1.753906-4.34375.332031-1.671876 1.625-2.980469 3.289062-3.335938l12.117188-2.5625c4.589844-1.019531 7.492188-5.558594 6.484375-10.152344l-5.03125-23.636718c-2.574219-11.835938-8.5-22.675782-17.066406-31.234376-8.480469-8.511718-19.339844-14.253906-31.148438-16.46875 3.601563-.683593 7.257813-1.027343 10.921875-1.023437 15.847656-.019531 31.046875 6.277344 42.242188 17.492187 8.566406 8.558594 14.492187 19.398438 17.066406 31.234376l5.035156 23.636718c1.003906 4.59375-1.898437 9.132813-6.488281 10.152344l-12.117187 2.5625c-1.664063.355469-2.957032 1.664062-3.289063 3.335938-.335937 1.667968.355469 3.375 1.753906 4.34375l30.71875 21.417968c5.773438 4 9.640625 10.207032 10.691407 17.148438 1.050781 6.945312-.8125 14.015625-5.144532 19.542968zm0 0" fill="#f57c00"/><path d="m378.582031 222.632812c-2.351562 3.125-5.464843 5.59375-9.042969 7.167969-1.753906-.675781-3.414062-1.5625-4.949218-2.644531l-60.589844-42.238281-24.914062 12.457031c-4.523438-1.179688-8.96875-2.632812-13.3125-4.351562-23.953126-9.660157-45.757813-23.957032-64.171876-42.070313l80.894532-65.789063c7.722656-6.304687 16.910156-10.558593 26.710937-12.375 11.808594 2.214844 22.667969 7.957032 31.148438 16.46875 8.566406 8.558594 14.492187 19.398438 17.066406 31.234376l5.03125 23.636718c1.007813 4.59375-1.894531 9.132813-6.484375 10.152344l-12.117188 2.5625c-1.664062.355469-2.957031 1.664062-3.289062 3.335938-.335938 1.667968.355469 3.375 1.753906 4.34375l30.71875 21.417968c5.773438 4 9.640625 10.207032 10.691406 17.148438 1.046876 6.945312-.8125 14.015625-5.144531 19.542968zm0 0" fill="#ff9801"/><path d="m335.320312 327.253906-120.066406 53.417969c-12.660156 5.667969-27.527344.167969-33.449218-12.375 2.683593-.238281 5.3125-.929687 7.765624-2.046875l120.0625-53.417969c13.261719-5.886719 22.191407-18.605469 23.226563-33.074219 1.039063-14.46875-5.992187-28.332031-18.277344-36.046874l-64.339843-45.394532c-2.101563-1.332031-3.515626-3.511718-3.875-5.972656-.359376-2.457031.367187-4.953125 1.996093-6.828125l.34375-.171875c9.65625 5.101562 19.84375 9.136719 30.378907 12.03125l-5.035157 2.5625c-1.628906 1.875-2.359375 4.371094-2 6.828125.363281 2.460937 1.777344 4.640625 3.875 5.96875l64.34375 45.398437c12.285157 7.714844 19.3125 21.578126 18.277344 36.046876s-9.96875 27.1875-23.226563 33.074218zm0 0" fill="#37474f"/><path d="m318.148438 315.476562-120.070313 53.417969c-2.453125 1.117188-5.074219 1.808594-7.757813 2.050781-.339843-.601562-.625-1.230468-.851562-1.878906-4.949219-12.96875-5.863281-22.101562 6.824219-27.734375l92.058593-42.835937c2.851563-1.273438 4.777344-4.003906 5.023438-7.113282.246094-3.113281-1.222656-6.113281-3.835938-7.820312l-81.066406-51.96875c-13.253906-8.839844-21.171875-23.75-21.078125-39.679688-.058593-6.925781 1.519531-13.765624 4.605469-19.96875 2.808594-4.738281 6.449219-8.933593 10.753906-12.371093l2.824219-2.304688 4.515625-3.667969c9.050781 8.917969 18.941406 16.949219 29.53125 23.976563 5.675781 3.777344 11.542969 7.253906 17.578125 10.410156l-.347656.171875c5.582031 2.363282 11.011719 5.070313 16.253906 8.105469l49.980469 50.089844c12.285156 7.714843 19.316406 21.574219 18.28125 36.046875-1.03125 14.46875-9.964844 27.1875-23.222656 33.074218zm0 0" fill="#607d8b"/><path d="m465.109375 59.734375c0 28.277344-22.921875 51.199219-51.199219 51.199219-3.585937.023437-7.160156-.347656-10.664062-1.109375-23.667969-5.007813-40.601563-25.898438-40.601563-50.089844s16.933594-45.082031 40.601563-50.089844c3.503906-.765625 7.078125-1.136719 10.664062-1.109375 28.277344 0 51.199219 22.921875 51.199219 51.199219zm0 0" fill="#bfa885"/><path d="m443.777344 59.734375c0-27.664063-18.148438-50.089844-40.53125-50.089844-22.386719 0-40.535156 22.425781-40.535156 50.089844s18.148437 50.089844 40.535156 50.089844c22.382812 0 40.53125-22.425781 40.53125-50.089844zm0 0" fill="#ffe0b2"/><path d="m343.9375 221.269531c-1.738281 0-3.4375-.535156-4.863281-1.527343l-47.839844-33.28125c-7.09375-4.933594-12.050781-12.375-13.875-20.820313l-3.265625-15.171875c-3.953125-18.421875 7.75-36.570312 26.160156-40.566406l17.316406-3.746094c4.605469-.996094 9.148438 1.933594 10.140626 6.539062.996093 4.605469-1.933594 9.148438-6.539063 10.140626l-17.316406 3.746093c-4.421875.957031-8.289063 3.628907-10.742188 7.433594s-3.292969 8.425781-2.339843 12.851563l3.269531 15.164062c.910156 4.226562 3.394531 7.953125 6.945312 10.417969l47.832031 33.28125c3.0625 2.128906 4.386719 6.003906 3.269532 9.5625-1.121094 3.558593-4.421875 5.980469-8.152344 5.976562zm0 0"/><path d="m204.84375 391.398438c-14.136719.015624-26.820312-8.699219-31.871094-21.90625-6.273437-17.460938 2.21875-36.777344 19.328125-43.953126l84.121094-37.402343-81.066406-51.917969c-23.164063-15.476562-31.476563-45.601562-19.523438-70.765625 3.382813-5.800781 7.777344-10.945313 12.976563-15.191406l88.277344-71.679688c27.125-22.132812 66.609374-20.09375 91.308593 4.710938 9.722657 9.710937 16.4375 22.023437 19.328125 35.457031l5.121094 23.59375c1.96875 9.199219-3.875 18.253906-13.066406 20.25l-2.558594.539062 22.679688 15.777344c7.675781 5.355469 12.824218 13.621094 14.25 22.867188 1.449218 9.277344-1.023438 18.738281-6.824219 26.121094-11.691407 14.410156-32.617188 17.152343-47.625 6.238281l-56.472657-39.296875-22.1875 11.09375 64.101563 45.226562c8.132813 5.175782 14.480469 12.71875 18.183594 21.617188 9.980469 24.011718-.9375 51.609375-24.644531 62.292968l-119.960938 53.394532c-4.367188 1.9375-9.09375 2.9375-13.875 2.933594zm115.335938-311.117188c-11.769532.003906-23.179688 4.074219-32.296876 11.519531l-88.269531 71.679688c-3.5 2.835937-6.480469 6.265625-8.796875 10.128906-7.648437 17.265625-1.871094 37.527344 13.730469 48.164063l81.066406 51.917968c5.285157 3.382813 8.285157 9.394532 7.8125 15.652344-.472656 6.257812-4.34375 11.753906-10.074219 14.304688l-84.121093 37.410156c-8.726563 3.582031-13.230469 13.273437-10.335938 22.25 1.652344 4.394531 5.042969 7.914062 9.375 9.730468 4.332031 1.816407 9.21875 1.769532 13.511719-.132812l120.039062-53.425781c15.234376-6.871094 22.253907-24.605469 15.847657-40.039063-2.441407-5.800781-6.613281-10.703125-11.949219-14.039062l-64.714844-45.703125c-4.03125-2.648438-6.730468-6.898438-7.40625-11.671875-.738281-4.929688.714844-9.929688 3.976563-13.699219.738281-.84375 1.632812-1.535156 2.636719-2.039063l29.925781-14.984374c2.796875-1.378907 6.117187-1.136719 8.6875.632812l60.714843 42.222656c7.582032 5.609375 18.207032 4.4375 24.386719-2.6875 2.882813-3.699218 4.121094-8.417968 3.417969-13.054687-.703125-4.632813-3.28125-8.777344-7.128906-11.453125l-30.722656-21.332032c-4.195313-2.90625-6.265626-8.03125-5.261719-13.035156 1-5.007812 4.878906-8.9375 9.871093-10.007812l12.109376-2.558594-5.121094-23.59375c-2.195313-10.226562-7.300782-19.601562-14.703125-26.992188-9.566407-9.675781-22.597657-15.136718-36.207031-15.164062zm0 0"/><path d="m413.910156 119.464844c-32.988281 0-59.734375-26.742188-59.734375-59.730469 0-32.992187 26.746094-59.734375 59.734375-59.734375 32.992188 0 59.734375 26.742188 59.734375 59.734375-.042969 32.972656-26.761719 59.691406-59.734375 59.730469zm0-102.398438c-23.5625 0-42.664062 19.101563-42.664062 42.667969 0 23.5625 19.101562 42.664063 42.664062 42.664063 23.566406 0 42.667969-19.101563 42.667969-42.664063-.027344-23.554687-19.113281-42.640625-42.667969-42.667969zm0 0"/><path d="m406.035156 512.078125c-13.152344-.011719-26.046875-3.660156-37.257812-10.539063l-313.445313-191.113281c-2.636719-1.574219-4.222656-4.441406-4.15625-7.507812.0625-3.066407 1.769531-5.863281 4.46875-7.324219s5.976563-1.359375 8.578125.265625l313.4375 191.148437c18.996094 11.664063 43.203125 10.507813 60.996094-2.921874 3.773438-2.824219 9.121094-2.0625 11.949219 1.707031s2.0625 9.121093-1.707031 11.949219c-12.355469 9.300781-27.398438 14.332031-42.863282 14.335937zm0 0"/><path d="m219.617188 144.792969c-1.265626-.007813-2.515626-.300781-3.652344-.851563l-142.789063-67.996094c-2.972656-1.167968-5.046875-3.898437-5.371093-7.074218-.324219-3.179688 1.152343-6.273438 3.828124-8.015625 2.679688-1.746094 6.105469-1.847657 8.882813-.269531l142.777344 67.984374c3.574219 1.730469 5.480469 5.699219 4.601562 9.570313-.875 3.871094-4.308593 6.625-8.277343 6.644531zm0 0"/><path d="m435.246094 247.464844c-1.269532-.007813-2.519532-.296875-3.664063-.851563l-34.53125-16.433593c-4.257812-2.027344-6.070312-7.121094-4.042969-11.378907 2.027344-4.261719 7.121094-6.070312 11.378907-4.042969l34.527343 16.496094c3.570313 1.730469 5.480469 5.691406 4.601563 9.5625-.875 3.871094-4.304687 6.628906-8.269531 6.648438zm0 0"/><path d="m102.445312 110.933594c-2.957031 0-5.703124-1.535156-7.257812-4.046875-1.550781-2.515625-1.695312-5.65625-.371094-8.300781l17.066406-34.132813c2.105469-4.21875 7.234376-5.929687 11.449219-3.824219 4.21875 2.105469 5.929688 7.234375 3.824219 11.453125l-17.066406 34.132813c-1.445313 2.894531-4.40625 4.722656-7.644532 4.71875zm0 0"/><path d="m76.84375 238.933594c-1.597656 0-3.160156-.453125-4.511719-1.296875l-68.269531-42.667969c-2.589844-1.613281-4.1210938-4.492188-4.0195312-7.542969.1054692-3.050781 1.8281252-5.816406 4.5234372-7.253906 2.695313-1.433594 5.949219-1.324219 8.542969.292969l68.265625 42.664062c3.265625 2.007813 4.792969 5.941406 3.734375 9.625-1.054687 3.679688-4.433594 6.207032-8.265625 6.179688zm0 0"/><path d="m136.578125 238.933594c-1.597656 0-3.160156-.453125-4.515625-1.296875l-68.265625-42.667969c-4.007813-2.496094-5.226563-7.769531-2.730469-11.773438 2.496094-4.007812 7.769532-5.230468 11.777344-2.730468l68.265625 42.664062c3.261719 2.007813 4.789063 5.941406 3.734375 9.625-1.054688 3.679688-4.433594 6.207032-8.265625 6.179688zm0 0"/></svg>