<?xml version="1.0" encoding="iso-8859-1"?>
<!-- Generator: Adobe Illustrator 21.0.0, SVG Export Plug-In . SVG Version: 6.00 Build 0)  -->
<svg xmlns="http://www.w3.org/2000/svg" xmlns:xlink="http://www.w3.org/1999/xlink" version="1.1" id="Capa_1" x="0px" y="0px" viewBox="0 0 512.033 512.033" style="enable-background:new 0 0 512.033 512.033;" xml:space="preserve" width="512" height="512">
<g>
	<path style="fill:#1DE8F1;" d="M482.59,438.984H29.443c-12.11,0-21.926-9.817-21.926-21.926v0c0-12.11,9.817-21.926,21.926-21.926   H482.59c12.11,0,21.926,9.817,21.926,21.926v0C504.517,429.167,494.7,438.984,482.59,438.984z"/>
	<path style="fill:#18C2C9;" d="M482.59,395.131h-26.5c12.11,0,21.926,9.817,21.926,21.926c0,12.11-9.817,21.927-21.926,21.927h26.5   c12.11,0,21.926-9.817,21.926-21.927C504.517,404.948,494.7,395.131,482.59,395.131z"/>
	<path style="fill:#FEDBAB;" d="M463.183,395.131c-21.284-52.546-105.949-91.807-207.167-91.807S70.134,342.585,48.85,395.131   H463.183z"/>
	<path style="fill:#D9BA91;" d="M256.017,303.324c-12.048,0-23.857,0.563-35.356,1.631c85.114,7.909,153.06,43.884,171.81,90.176   h70.712C441.899,342.585,357.234,303.324,256.017,303.324z"/>
	<path style="fill:#787780;" d="M189.148,356.303L189.148,356.303c-6.435,2.088-13.345-1.437-15.432-7.872l-58.502-180.347   l23.305-7.56l58.502,180.347C199.108,347.306,195.584,354.215,189.148,356.303z"/>
	<path style="fill:#FEDB41;" d="M96.402,90.591c0,0,61.719,29.634,89.887,105.934c17.999-22.502,41.856-30.808,71.993-23.353   C236.384,105.666,163.908,68.693,96.402,90.591z"/>
	<path style="fill:#CFB235;" d="M237.564,170.515c6.545-0.014,13.447,0.858,20.717,2.656   c-21.898-67.506-94.373-104.479-161.879-82.581c0,0,5.425,2.605,13.792,8.258C162.947,93.913,214.109,122.244,237.564,170.515z"/>
	<path style="fill:#CAE8F9;" d="M96.402,90.591c0,0-32.572,60.22-10.588,138.526c27.941-24.59,61.6-35.129,100.475-32.592   C158.121,120.225,96.402,90.591,96.402,90.591z"/>
	<path style="fill:#FEDB41;" d="M96.402,90.591C28.896,112.488-8.076,184.964,13.821,252.47   c18.027-22.404,42.645-29.722,71.993-23.353C63.83,150.811,96.402,90.591,96.402,90.591z"/>
	<circle style="fill:#F3523E;" cx="329.191" cy="295.054" r="54.174"/>
	<path style="fill:#DB4B38;" d="M329.191,240.88c-4.843,0-9.533,0.645-14,1.836c23.132,6.172,40.174,27.26,40.174,52.337   s-17.042,46.165-40.174,52.338c4.467,1.192,9.157,1.836,14,1.836c29.919,0,54.174-24.255,54.174-54.174   S359.11,240.88,329.191,240.88z"/>
	<path d="M482.607,387.632h-14.535c-13.072-27.426-41.946-51.245-82.344-67.934c17.712-40.463-12.022-86.317-56.521-86.317   c-34.13,0-62.178,27.968-61.65,62.621c-25.898-0.759-51.248,1.02-75.511,5.175l-31.391-96.771   c21.672-2.202,25.857,1.54,30.317-2.01c4.978-3.968,21.571-32.812,65.525-21.943c5.683,1.412,10.752-3.989,8.935-9.595   c-10.4-32.062-32.199-58.988-61.38-75.82c-3.587-2.069-8.175-0.839-10.244,2.75c-2.07,3.588-0.839,8.174,2.749,10.244   c22.224,12.818,39.636,32.222,49.992,55.438c-22.452-2.393-41.797,4.037-57.726,19.201c-15.841-36.484-41.63-67.607-73.027-89.155   c18.088-3.099,36.605-2.033,54.387,3.21c3.974,1.171,8.144-1.098,9.315-5.072c1.171-3.973-1.1-8.144-5.072-9.314   c-23.942-7.062-49.063-7.36-73.118-0.978l-3.446-10.624c-1.278-3.939-5.509-6.1-9.448-4.819c-3.94,1.277-6.098,5.508-4.82,9.448   l3.44,10.606C55.72,98.03,30.288,120.898,14.921,151.02c-16.508,32.359-19.426,69.211-8.217,103.766   c1.838,5.665,9.249,7.023,12.978,2.387c15.789-19.621,37.508-26.591,64.559-20.726c8.075,1.767,9.45-9.336,38.129-22.051   l31.057,95.74c-54.141,16.121-93.458,43.967-109.426,77.496H29.46c-16.226,0-29.426,13.201-29.426,29.427   s13.201,29.427,29.426,29.427h52.292c4.142,0,7.5-3.357,7.5-7.5s-3.358-7.5-7.5-7.5H29.46c-7.955,0-14.426-6.472-14.426-14.427   s6.472-14.427,14.426-14.427c19.109,0,435.452,0,453.147,0c7.955,0,14.426,6.472,14.426,14.427s-6.472,14.427-14.426,14.427   H109.752c-4.142,0-7.5,3.357-7.5,7.5s3.358,7.5,7.5,7.5h372.855c16.226,0,29.426-13.201,29.426-29.427   S498.833,387.632,482.607,387.632z M329.207,248.381c38.198,0,60.287,43.74,37.494,74.436   c-9.204,12.466-24.266,19.78-40.332,18.817c-24.559-1.48-43.836-21.926-43.836-46.579   C282.533,269.319,303.471,248.381,329.207,248.381z M90.263,215.883c-8.661-39.686-4.281-81.083,9.576-114.749   c31.635,19.467,59.03,50.426,75.22,87.526C144.387,188.699,115.671,196.996,90.263,215.883z M17.622,237.624   C6.014,182.71,34.05,128.117,82.449,104.324C69.719,140,67.025,180.826,75.779,219.92   C53.153,217.617,33.391,223.639,17.622,237.624z M145.659,206.791l44.244,136.395c0,0,0,0,0,0c0.811,2.503-0.561,5.175-3.052,5.984   c-2.492,0.809-5.176-0.562-5.984-3.053c-3.937-12.136-38.302-118.079-44.418-136.932   C139.47,208.275,142.54,207.477,145.659,206.791z M61.011,387.632C77.093,361,112.156,338.045,158.052,324.4   c8.537,26.205,8.994,32.889,18.133,37.706c15.593,8.181,33.463-6.663,27.986-23.549l-7.452-22.974   c23.497-3.87,48.127-5.4,72.92-4.512c13.157,49.521,77.553,61.732,108.384,21.676c34.627,13.944,60.02,33.074,73.065,54.885H61.011   z"/>
</g>















</svg>
