<?xml version="1.0" encoding="iso-8859-1"?>
<!-- Generator: Adobe Illustrator 19.0.0, SVG Export Plug-In . SVG Version: 6.00 Build 0)  -->
<svg version="1.1" id="Layer_1" xmlns="http://www.w3.org/2000/svg" xmlns:xlink="http://www.w3.org/1999/xlink" x="0px" y="0px"
	 viewBox="0 0 512.001 512.001" style="enable-background:new 0 0 512.001 512.001;" xml:space="preserve">
<path style="fill:#CAEEC5;" d="M66.23,459.488c-6.491-126.964,12.25-237.619,47.634-256.644l-68.461-93.685V87.434l56.76,0.002
	h90.529h119.489v-0.002h77.209c42.462,0,77.209,34.677,77.209,77.059v89.856c0,42.382-34.748,77.058-77.209,77.058v121.987
	L66.23,459.488z"/>
<path style="fill:#97BAA8;" d="M466.599,164.494v89.856c0,42.382-34.748,77.058-77.209,77.058v121.986l-323.16,6.094
	c-6.491-126.964,12.25-237.621,47.634-256.644l-68.461-93.685V87.434l56.76,0.003h90.529h108.337l-48.698,0.085V341.66
	c0,13.363,10.957,24.298,24.344,24.298h0.005c13.392,0,24.35-10.933,24.35-24.298V87.437h11.151v-0.003h77.209
	C431.851,87.434,466.599,122.111,466.599,164.494z"/>
<path style="fill:#78A097;" d="M466.599,164.494v89.856c0,42.382-34.748,77.058-77.209,77.058v121.986l-199.03,3.754V87.437h2.331
	h108.337l-48.698,0.085V341.66c0,13.363,10.957,24.298,24.344,24.298h0.005c13.392,0,24.35-10.933,24.35-24.298V87.437h11.151
	v-0.003h77.209C431.851,87.434,466.599,122.111,466.599,164.494z"/>
<path style="fill:#415E5C;" d="M398.223,448.548H59.077c-6.042,0-10.94,4.898-10.94,10.94v32.821c0,6.042,4.898,10.94,10.94,10.94
	h339.145c6.042,0,10.94-4.898,10.94-10.94v-32.821C409.163,453.446,404.265,448.548,398.223,448.548z"/>
<path d="M398.142,152.635v113.571c0,4.833-3.919,8.752-8.752,8.752c-4.833,0-8.752-3.919-8.752-8.752V152.635
	c0-4.833,3.919-8.752,8.752-8.752C394.223,143.883,398.142,147.801,398.142,152.635z M475.351,164.493v89.856
	c0,44.368-33.905,80.978-77.209,85.369v100.077h0.081c10.858,0,19.692,8.834,19.692,19.692v32.821
	c0,10.858-8.834,19.692-19.692,19.692H59.077c-10.858,0-19.692-8.834-19.692-19.692v-32.821c0-10.044,7.564-18.341,17.292-19.53
	c-1.713-55.695,1.429-108.63,9.054-150.826c8.024-44.396,20.07-73.989,35.879-88.222l-63.275-86.588
	c-1.095-1.499-1.686-3.307-1.686-5.164V87.434c0-2.322,0.922-4.548,2.564-6.189c1.641-1.641,3.867-2.563,6.188-2.563l48.994,0.001
	c2.454-8.986,6.642-17.426,12.232-24.388c9.167-11.415,12.752-29.144,8.718-43.112c-1.341-4.644,1.337-9.496,5.98-10.836
	c4.644-1.341,9.496,1.336,10.837,5.98c5.607,19.412,0.829,43.094-11.886,58.929c-3.111,3.875-5.646,8.481-7.489,13.427h28.559
	c2.455-8.986,6.643-17.426,12.234-24.388c9.166-11.415,12.752-29.144,8.72-43.113c-1.341-4.644,1.337-9.496,5.981-10.836
	c4.648-1.34,9.496,1.338,10.836,5.981c5.604,19.413,0.826,43.094-11.89,58.928c-3.111,3.875-5.646,8.482-7.49,13.427l116.931,0.001
	l24.34-0.043c0.004,0,0.01,0,0.015,0c0.291,0,0.58,0.014,0.866,0.043h10.285l77.209-0.002
	C436.789,78.681,475.351,117.177,475.351,164.493z M261.082,341.657c0,8.574,6.995,15.55,15.592,15.55h0.004
	c8.6,0,15.597-6.975,15.597-15.55V96.186h-14.638l-16.556,0.03V341.657L261.082,341.657z M398.223,457.3H59.077
	c-1.206,0-2.188,0.981-2.188,2.188v32.821c0,1.207,0.982,2.188,2.188,2.188h339.145c1.206,0,2.188-0.981,2.188-2.188v-32.821
	C400.411,458.281,399.428,457.3,398.223,457.3z M457.847,164.493c0-37.665-30.709-68.307-68.457-68.307H309.78v245.471
	c0,18.226-14.849,33.055-33.102,33.055h-0.004c-18.249,0-33.096-14.828-33.096-33.055V96.187h-87.234
	c-0.219,10.182,2.733,19.996,9.788,26.566c3.537,3.294,3.735,8.832,0.441,12.37c-1.724,1.851-4.063,2.788-6.408,2.788
	c-2.136,0-4.275-0.777-5.962-2.347c-10.128-9.432-15.549-23.393-15.336-39.377h-29.474c-0.218,10.182,2.733,19.996,9.787,26.567
	c3.537,3.294,3.734,8.832,0.439,12.369c-1.724,1.851-4.062,2.788-6.407,2.788c-2.136,0-4.277-0.777-5.963-2.348
	c-10.126-9.432-15.546-23.393-15.333-39.376H54.154v10.114l66.776,91.378c1.493,2.044,2.028,4.633,1.469,7.101
	c-0.561,2.468-2.162,4.573-4.391,5.771c-14.281,7.679-27.056,37.455-35.051,81.692c-7.431,41.126-10.476,92.926-8.771,147.552
	h306.452V331.408c0-4.834,3.919-8.752,8.752-8.752c37.748,0,68.457-30.642,68.457-68.306V164.493z"/>
<g>
</g>
<g>
</g>
<g>
</g>
<g>
</g>
<g>
</g>
<g>
</g>
<g>
</g>
<g>
</g>
<g>
</g>
<g>
</g>
<g>
</g>
<g>
</g>
<g>
</g>
<g>
</g>
<g>
</g>
</svg>
