<svg id="Capa_1" enable-background="new 0 0 510.548 510.548" height="512" viewBox="0 0 510.548 510.548" width="512" xmlns="http://www.w3.org/2000/svg"><g><g><g><path d="m490.553 237.757c-6.901 0-12.495-5.594-12.495-12.495v-59.251l17.588 5.837c4.419 1.467 7.402 5.599 7.402 10.255v43.159c0 6.901-5.595 12.495-12.495 12.495z" fill="#f7e365"/></g></g><g><g><path d="m448.662 371.279h-421.584c-10.812 0-19.577-8.765-19.577-19.577v-187.889c0-10.812 8.765-19.577 19.577-19.577h399.316c9.399 0 17.381 6.883 18.764 16.18l17.753 119.387v77.228c-.001 7.869-6.38 14.248-14.249 14.248z" fill="#f7f7f7"/></g></g><g><g><path d="m445.157 160.416c-1.382-9.297-9.364-16.18-18.764-16.18h-30c9.399 0 17.381 6.883 18.764 16.18l17.753 119.387v77.228c0 7.869-6.379 14.249-14.249 14.249h30c7.869 0 14.249-6.379 14.249-14.249v-77.228z" fill="#e8e8e8"/></g></g><g><g><path d="m420.913 302.636v68.643h27.749c7.869 0 14.249-6.379 14.249-14.249v-77.228l-2.481-16.684c-21.825.001-39.517 17.693-39.517 39.518z" fill="#544f56"/></g></g><g><g><path d="m445.99 166.012-.832-5.596c-1.382-9.297-9.364-16.18-18.764-16.18h-399.316c-10.812 0-19.577 8.765-19.577 19.577v2.199z" fill="#8c818f"/></g></g><g><g><path d="m382.545 293.802h-28.22v-103.119h8.363c10.967 0 19.857 8.89 19.857 19.857z" fill="#544f56"/></g></g><g><g><path d="m7.5 244.613v107.089c0 10.812 8.765 19.577 19.577 19.577h421.584c7.869 0 14.249-6.379 14.249-14.249v-22.248l-29.784-23.534c-47.108-37.223-105.393-66.635-165.433-66.635z" fill="#8c818f"/></g></g><g><g><path d="m433.127 311.248c-47.108-37.223-105.393-66.635-165.433-66.635h-30c60.04 0 118.325 29.412 165.433 66.635l12.327 9.741c11.025 8.712 17.456 21.99 17.456 36.042 0 7.869-6.379 14.249-14.249 14.249h30c7.869 0 14.249-6.379 14.249-14.249v-22.248z" fill="#766d78"/></g></g><g><g><path d="m257.932 144.357h-62.375l20.569-46.875c1.849-4.214 6.016-6.936 10.618-6.936 4.602 0 8.769 2.722 10.618 6.936z" fill="#d9d9d9"/></g></g><g><g><path d="m360.393 341.961-16.833-6.769c-83.861-33.723-175.808-53.927-270.199-59.373l-65.86-3.8v84.22c0 8.306 8.765 15.039 19.577 15.039h333.315z" fill="#f5de46"/></g></g><g><g><path d="m343.56 335.192c-83.861-33.723-175.808-53.927-270.199-59.373l-65.86-3.8v30l65.86 3.8c94.391 5.446 186.338 25.65 270.199 59.373l15.137 6.087h1.696v-29.318z" fill="#f3d332"/></g></g><g><g><circle cx="360.393" cy="362.221" fill="#444145" r="49.252"/></g></g><g><g><circle cx="360.393" cy="362.221" fill="#766d78" r="16.88"/></g></g><g><g><circle cx="98.588" cy="362.221" fill="#444145" r="49.252"/></g></g><g><g><circle cx="98.588" cy="362.221" fill="#766d78" r="16.88"/></g></g><g><g><path d="m7.5 296.589h25.353v31.777h-25.353z" fill="#df6937"/></g></g><g><g><path d="" style="fill:none;stroke:#000;stroke-width:15;stroke-linecap:round;stroke-linejoin:round;stroke-miterlimit:10"/></g></g><g><path d="m360.393 337.841c-13.443 0-24.38 10.937-24.38 24.38s10.937 24.38 24.38 24.38 24.38-10.937 24.38-24.38c0-13.444-10.937-24.38-24.38-24.38zm0 33.76c-5.172 0-9.38-4.208-9.38-9.38s4.208-9.38 9.38-9.38 9.38 4.208 9.38 9.38-4.208 9.38-9.38 9.38z"/><path d="m122.968 362.221c0-13.443-10.937-24.38-24.38-24.38s-24.38 10.937-24.38 24.38 10.937 24.38 24.38 24.38 24.38-10.937 24.38-24.38zm-33.76 0c0-5.172 4.208-9.38 9.38-9.38s9.38 4.208 9.38 9.38-4.208 9.38-9.38 9.38-9.38-4.208-9.38-9.38z"/><path d="m490.553 245.257c11.025 0 19.995-8.97 19.995-19.995v-43.159c0-7.903-5.04-14.884-12.54-17.373l-17.587-5.837c-.012-.004-.025-.006-.038-.01-.526-.171-1.076-.286-1.646-.338-.09-.008-.179-.009-.269-.013-.137-.007-.271-.021-.41-.021h-25.621c-2.253-12.469-13.303-21.776-26.044-21.776h-163.637c-.048-.126-.089-.254-.144-.379l-18.381-41.889c-3.045-6.938-9.909-11.422-17.486-11.422-7.578 0-14.441 4.484-17.486 11.422l-18.303 41.711c-.081.184-.146.37-.211.556h-73.451c-4.142 0-7.5 3.358-7.5 7.5s3.358 7.5 7.5 7.5h309.1c4.568 0 8.636 2.762 10.457 6.776h-420.608c1.968-4.006 6.079-6.776 10.835-6.776h60.216c4.142 0 7.5-3.358 7.5-7.5s-3.358-7.5-7.5-7.5h-60.216c-14.931.002-27.078 12.149-27.078 27.079v187.889c0 14.93 12.147 27.077 27.077 27.077h17.229c4.467 14.616 14.689 26.734 28.011 33.723h-64.817c-4.142 0-7.5 3.358-7.5 7.5s3.358 7.5 7.5 7.5h494.889c4.142 0 7.5-3.358 7.5-7.5s-3.358-7.5-7.5-7.5h-115.725c13.322-6.989 23.543-19.107 28.011-33.723h33.987c11.993 0 21.749-9.757 21.749-21.749v-77.227c0-.369-.027-.738-.082-1.103l-15.642-105.188h15.871v51.751c0 11.025 8.97 19.994 19.995 19.994zm-267.558-144.762c.653-1.488 2.124-2.449 3.75-2.449 1.625 0 3.097.962 3.75 2.45l15.902 36.24h-39.305zm272.553 81.609v43.159c0 2.754-2.241 4.995-4.995 4.995s-4.995-2.241-4.995-4.995v-48.86l7.725 2.564c1.355.449 2.265 1.71 2.265 3.137zm-41.491 89.153 1.353 9.101v38.94l-17.634-13.934c-3.046-2.407-6.071-4.727-9.077-6.974 1.813-13.739 12.157-24.481 25.358-27.133zm-16.724-9.606-5.325-8.036c-.088-.133-.187-.256-.282-.382l6.814-6.814c2.929-2.929 2.929-7.677 0-10.606s-7.678-2.929-10.606 0l-23.592 23.592c-2.929 2.929-2.929 7.677 0 10.606 1.464 1.465 3.384 2.197 5.303 2.197s3.839-.732 5.303-2.197l5.973-5.973 4.644 7.009c-4.573 5.044-8.076 11.098-10.12 17.838-8.676-5.954-17.16-11.259-25.43-15.978.015-.195.03-.391.03-.591v-61.777c0-15.085-12.272-27.357-27.357-27.357h-.863v-9.671h77.697l12.326 82.89c-5.178.951-10.068 2.748-14.515 5.25zm-90.508 45.469c-8.855 2.181-16.893 6.447-23.573 12.245-78.632-28.846-162.534-46.018-249.459-51.033l-58.793-3.392v-12.827h252.693c20.232 0 47.218 3.604 79.131 16.428v38.579zm-331.825-3.031h10.353v16.777h-10.353zm242.815-66.976h-74.01v-63.601h74.01zm-89.01 0h-74.011v-63.601h74.011zm-89.011 0h-64.794v-63.601h64.794zm193.021.071v-63.673h74.01v78.945c-29.073-10.952-54.202-14.731-74.01-15.272zm89.01-39.001h.863c6.814 0 12.357 5.543 12.357 12.357v54.332c-4.48-2.254-8.888-4.337-13.22-6.26zm-304.989 164.038c0-23.022 18.73-41.752 41.752-41.752s41.752 18.73 41.752 41.752-18.73 41.752-41.752 41.752-41.752-18.73-41.752-41.752zm68.022 50.281c13.322-6.989 23.544-19.107 28.011-33.723h56.474c4.142 0 7.5-3.358 7.5-7.5s-3.358-7.5-7.5-7.5h-54.043c.014-.519.04-1.036.04-1.558 0-31.293-25.459-56.752-56.752-56.752s-56.752 25.459-56.752 56.752c0 .522.026 1.039.04 1.558h-14.798c-6.659 0-12.077-5.418-12.077-12.077v-15.835h17.853c4.142 0 7.5-3.358 7.5-7.5v-31.777c0-4.142-3.358-7.5-7.5-7.5h-17.854v-9.125l57.928 3.342c83.477 4.816 164.091 21.026 239.787 48.189-5.731 8.863-9.074 19.408-9.074 30.725 0 .522.025 1.039.04 1.558h-64.338c-4.142 0-7.5 3.358-7.5 7.5s3.358 7.5 7.5 7.5h66.769c4.467 14.616 14.689 26.734 28.011 33.723zm235.535-8.529c-23.022 0-41.752-18.73-41.752-41.752s18.73-41.752 41.752-41.752 41.752 18.73 41.752 41.752-18.73 41.752-41.752 41.752zm88.269-40.194h-31.556c.014-.519.04-1.036.04-1.558 0-30.813-24.688-55.951-55.32-56.716v-30.403c20.591 9.734 42.949 23.301 66.652 42.03l26.934 21.283v18.615c-.001 3.721-3.029 6.749-6.75 6.749z"/></g></g></svg>