<?xml version="1.0" encoding="utf-8"?>
<!-- Generator: Adobe Illustrator 21.1.0, SVG Export Plug-In . SVG Version: 6.00 Build 0)  -->
<svg version="1.1" id="Icons" xmlns="http://www.w3.org/2000/svg" xmlns:xlink="http://www.w3.org/1999/xlink" x="0px" y="0px"
	 viewBox="0 0 48 48" style="enable-background:new 0 0 48 48;" xml:space="preserve">
<style type="text/css">
	.st0{opacity:0.15;fill:#45413C;}
	.st1{fill:#BF8256;}
	.st2{fill:#915E3A;}
	.st3{fill:none;stroke:#45413C;stroke-linecap:round;stroke-linejoin:round;stroke-miterlimit:10;}
	.st4{fill:#DEA47A;}
	.st5{fill:#DAEDF7;stroke:#45413C;stroke-linecap:round;stroke-linejoin:round;stroke-miterlimit:10;}
	.st6{fill:#BF8256;stroke:#45413C;stroke-linecap:round;stroke-linejoin:round;stroke-miterlimit:10;}
	.st7{fill:#FF6242;}
	.st8{fill:#FF866E;}
	.st9{fill:#DEBB7E;}
	.st10{fill:#B89558;}
	.st11{fill:#656769;}
	.st12{fill:#525252;}
	.st13{fill:#E04122;}
	.st14{fill:#FFFFFF;}
	.st15{fill:#F0F0F0;}
	.st16{fill:#00B8F0;}
	.st17{fill:#4ACFFF;}
	.st18{fill:#C0DCEB;}
	.st19{fill:#8CA4B8;}
	.st20{fill:#FF6242;stroke:#45413C;stroke-linecap:round;stroke-linejoin:round;stroke-miterlimit:10;}
	.st21{fill:#87898C;}
	.st22{fill:#E0E0E0;}
	.st23{fill:#E8F4FA;stroke:#45413C;stroke-linecap:round;stroke-linejoin:round;stroke-miterlimit:10;}
	.st24{fill:#656769;stroke:#45413C;stroke-linecap:round;stroke-linejoin:round;stroke-miterlimit:10;}
	.st25{fill:#DAEDF7;}
	.st26{fill:#E8F4FA;}
	.st27{fill:#ADC4D9;stroke:#45413C;stroke-linecap:round;stroke-linejoin:round;stroke-miterlimit:10;}
	.st28{fill:#87898C;stroke:#45413C;stroke-linecap:round;stroke-linejoin:round;stroke-miterlimit:10;}
	.st29{fill:#BDBEC0;}
	.st30{fill:#FFFFFF;stroke:#45413C;stroke-linecap:round;stroke-linejoin:round;stroke-miterlimit:10;}
	.st31{fill:#ADC4D9;}
	.st32{fill:none;stroke:#00AED9;stroke-linecap:round;stroke-linejoin:round;stroke-miterlimit:10;}
	.st33{fill:#FFFACF;}
	.st34{fill:#FFE500;}
	.st35{fill:#915E3A;stroke:#45413C;stroke-linecap:round;stroke-linejoin:round;stroke-miterlimit:10;}
	.st36{fill:#FFAA54;}
	.st37{fill:#627B8C;stroke:#45413C;stroke-linecap:round;stroke-linejoin:round;stroke-miterlimit:10;}
	.st38{fill:#FFFEF2;}
	.st39{fill:#FFFCE5;stroke:#45413C;stroke-linecap:round;stroke-linejoin:round;stroke-miterlimit:10;}
	.st40{fill:#00F5BC;}
	.st41{fill:#FFFCE5;}
	.st42{fill:#FFFEF2;stroke:#45413C;stroke-linecap:round;stroke-linejoin:round;stroke-miterlimit:10;}
	.st43{fill:#8CFFE4;}
	.st44{fill:#FFF5E3;}
	.st45{fill:#F7E5C6;}
	.st46{fill:#F7E5C6;stroke:#45413C;stroke-linecap:round;stroke-linejoin:round;stroke-miterlimit:10;}
	.st47{fill:#F0D5A8;}
	.st48{fill:#FF87AF;stroke:#45413C;stroke-linecap:round;stroke-linejoin:round;stroke-miterlimit:10;}
	.st49{fill:#45413C;}
	.st50{fill:#BDBEC0;stroke:#45413C;stroke-linecap:round;stroke-linejoin:round;stroke-miterlimit:10;}
	.st51{fill:#E0E0E0;stroke:#45413C;stroke-linecap:round;stroke-linejoin:round;stroke-miterlimit:10;}
	.st52{fill:#DEBB7E;stroke:#45413C;stroke-linecap:round;stroke-linejoin:round;stroke-miterlimit:10;}
	.st53{fill:#F5EBFF;stroke:#45413C;stroke-linecap:round;stroke-linejoin:round;stroke-miterlimit:10;}
	.st54{fill:#BF8DF2;stroke:#45413C;stroke-linecap:round;stroke-linejoin:round;stroke-miterlimit:10;}
	.st55{fill:#E4FFD1;stroke:#45413C;stroke-linecap:round;stroke-linejoin:round;stroke-miterlimit:10;}
	.st56{fill:#F0FFE5;}
	.st57{fill:#C8FFA1;stroke:#45413C;stroke-linecap:round;stroke-linejoin:round;stroke-miterlimit:10;}
	.st58{fill:#6DD627;stroke:#45413C;stroke-linecap:round;stroke-linejoin:round;stroke-miterlimit:10;}
	.st59{fill:#E5FEFF;}
	.st60{fill:#FFAA54;stroke:#45413C;stroke-linecap:round;stroke-linejoin:round;stroke-miterlimit:10;}
	.st61{fill:#9CEB60;stroke:#45413C;stroke-linecap:round;stroke-linejoin:round;stroke-miterlimit:10;}
	.st62{fill:#FFF48C;}
	.st63{fill:#00B8F0;stroke:#45413C;stroke-linecap:round;stroke-linejoin:round;stroke-miterlimit:10;}
	.st64{fill:none;stroke:#4F4B45;stroke-linejoin:round;stroke-miterlimit:10;}
	.st65{fill:#FFFFFF;stroke:#4F4B45;stroke-linejoin:round;stroke-miterlimit:10;}
	.st66{fill:#FFF5E3;stroke:#4F4B45;stroke-linejoin:round;stroke-miterlimit:10;}
	.st67{fill:#F7E5C6;stroke:#4F4B45;stroke-linejoin:round;stroke-miterlimit:10;}
	.st68{fill:#6DD627;}
	.st69{fill:#EBCB00;}
	.st70{fill:#46B000;}
	.st71{fill:none;stroke:#E0E0E0;stroke-linecap:round;stroke-linejoin:round;stroke-miterlimit:10;}
	.st72{fill:#9CEB60;}
	.st73{fill:#FFCC99;}
	.st74{fill:#BF8DF2;}
	.st75{fill:#9F5AE5;}
	.st76{fill:#DABFF5;}
	.st77{fill:#F0F0F0;stroke:#45413C;stroke-linecap:round;stroke-linejoin:round;stroke-miterlimit:10;}
	.st78{fill:#E5F8FF;}
	.st79{fill:#B8ECFF;}
	.st80{fill:#D9FDFF;}
	.st81{fill:#C0DCEB;stroke:#45413C;stroke-linecap:round;stroke-linejoin:round;stroke-miterlimit:10;}
	.st82{fill:#46B000;stroke:#45413C;stroke-linecap:round;stroke-linejoin:round;stroke-miterlimit:10;}
	.st83{fill:none;stroke:#FFFFFF;stroke-miterlimit:10;}
	.st84{fill:none;stroke:#FFFFFF;stroke-linecap:round;stroke-linejoin:round;stroke-miterlimit:10;}
	.st85{fill:#FFE500;stroke:#45413C;stroke-linecap:round;stroke-linejoin:round;stroke-miterlimit:10;}
	.st86{fill:#80DDFF;stroke:#45413C;stroke-linecap:round;stroke-linejoin:round;stroke-miterlimit:10;}
	.st87{fill:#FFFFFF;stroke:#45413C;stroke-linejoin:round;stroke-miterlimit:10;}
	.st88{fill:#009FD9;stroke:#45413C;stroke-linecap:round;stroke-linejoin:round;stroke-miterlimit:10;}
	.st89{fill:#E04122;stroke:#45413C;stroke-linecap:round;stroke-linejoin:round;stroke-miterlimit:10;}
	.st90{fill:#009FD9;}
	.st91{fill:#FFFFFF;stroke:#45413C;stroke-miterlimit:10;}
	.st92{fill:#009FD9;stroke:#45413C;stroke-miterlimit:10;}
	.st93{fill:#FF8A14;stroke:#45413C;stroke-linecap:round;stroke-linejoin:round;stroke-miterlimit:10;}
	.st94{fill:none;stroke:#009FD9;stroke-linecap:round;stroke-linejoin:round;stroke-miterlimit:10;}
	.st95{fill:#525252;stroke:#45413C;stroke-linecap:round;stroke-linejoin:round;stroke-miterlimit:10;}
	.st96{fill:none;stroke:#46B000;stroke-linecap:round;stroke-linejoin:round;stroke-miterlimit:10;}
	.st97{fill:none;stroke:#E04122;stroke-linecap:round;stroke-linejoin:round;stroke-miterlimit:10;}
	.st98{fill:#6DD627;stroke:#45413C;stroke-miterlimit:10;}
	.st99{fill:none;stroke:#45413C;stroke-linejoin:round;stroke-miterlimit:10;}
	.st100{fill:#46B000;stroke:#45413C;stroke-miterlimit:10;}
	.st101{fill:#00DFEB;}
	.st102{fill:#00AD85;}
	.st103{fill:#E04122;stroke:#45413C;stroke-miterlimit:10;}
</style>
<g id="XMLID_17862_">
	<ellipse id="XMLID_17869_" class="st0" cx="24" cy="45.2" rx="14.2" ry="1.8"/>
	<path id="XMLID_17868_" class="st21" d="M34,41.4H14c-4.1,0-7.4-3.3-7.4-7.4V14c0-4.1,3.3-7.4,7.4-7.4h20c4.1,0,7.4,3.3,7.4,7.4v20
		C41.4,38.1,38.1,41.4,34,41.4z"/>
	<path id="XMLID_17867_" class="st11" d="M34,6.6H14c-4.1,0-7.4,3.3-7.4,7.4v9.6c0-4.1,3.3-7.4,7.4-7.4h20c4.1,0,7.4,3.3,7.4,7.4V14
		C41.4,9.9,38.1,6.6,34,6.6z"/>
	<path id="XMLID_17866_" class="st3" d="M34,41.4H14c-4.1,0-7.4-3.3-7.4-7.4V14c0-4.1,3.3-7.4,7.4-7.4h20c4.1,0,7.4,3.3,7.4,7.4v20
		C41.4,38.1,38.1,41.4,34,41.4z"/>
	<path id="XMLID_17865_" class="st15" d="M32.4,14.8L21.1,26.1l-3.6-3.6c-1-1-2.5-1-3.5,0l-1,1c-1,1-1,2.5,0,3.5l6.3,6.3
		c1,1,2.5,1,3.5,0l14-14c1-1,1-2.5,0-3.5l-1-1C34.9,13.8,33.4,13.8,32.4,14.8z"/>
	<path id="XMLID_17864_" class="st14" d="M12.9,26.7l2-2c0.5-0.5,1.3-0.5,1.7,0l3.2,3.2c0.7,0.7,1.8,0.7,2.5,0l11-11
		c0.5-0.5,1.3-0.5,1.7,0l2,2c0.8-1,0.7-2.4-0.2-3.3l-1-1c-1-1-2.5-1-3.5,0L21.1,26.1l-3.6-3.6c-1-1-2.5-1-3.5,0l-1,1
		C12.2,24.4,12.1,25.8,12.9,26.7z"/>
	<path id="XMLID_17863_" class="st3" d="M32.4,14.8L21.1,26.1l-3.6-3.6c-1-1-2.5-1-3.5,0l-1,1c-1,1-1,2.5,0,3.5l6.3,6.3
		c1,1,2.5,1,3.5,0l14-14c1-1,1-2.5,0-3.5l-1-1C34.9,13.8,33.4,13.8,32.4,14.8z"/>
</g>
</svg>
