<svg class="circle-highlight" viewBox="0 0 202 75" fill="none" xmlns="http://www.w3.org/2000/svg">
<path d="M73.7627 9.30725C50.7261 11.7999 25.4437 18.995 10.7863 30.2618C-3.16213 40.9924 -2.79332 55.2328 15.6594 64.536C33.4357 73.5314 60.2309 74.7049 81.7901 74.8315C104.495 75.0022 127.499 73.3534 148.991 69.2519C167.714 65.607 189.048 59.6683 198.202 48.3303C204.467 40.5431 201.367 31.6908 193.157 24.4726C172.308 5.92161 128.795 -1.95287 94.7417 0.678621C71.4977 2.59987 51.4783 10.1387 37.2791 21.4231C35.8614 22.4953 38.8013 23.5945 40.2136 22.663C67.6741 0.621428 116.202 -2.57905 156.814 9.12752C172.468 13.6747 187.79 20.8853 194.98 30.7404C202.394 40.7449 195.148 50.1845 182.519 56.4587C164.267 65.7559 138.885 69.5667 115.412 71.4791C91.0231 73.3562 64.8555 73.7563 40.6939 69.7264C29.753 67.8962 19.0899 64.809 11.5023 59.305C2.34909 52.7548 1.99796 44.0084 7.78279 36.7661C19.1071 22.6947 49.4778 14.428 73.4469 11.5487C73.905 11.5664 74.1395 11.4346 74.5977 11.4522C76.6755 11.1097 75.8351 9.10541 73.7627 9.30725Z" fill="#FFD200"></path>
</svg>