<svg width="14" height="14" viewBox="0 0 14 14" fill="none" xmlns="http://www.w3.org/2000/svg">
<g opacity="0.5">
<path d="M8.2368 7.01511C8.20972 6.98809 8.1945 6.95141 8.1945 6.91315C8.1945 6.8749 8.20972 6.83822 8.2368 6.8112L13.5723 1.47629C13.9097 1.13845 13.9093 0.591092 13.5714 0.25373C13.2336 -0.083632 12.6862 -0.0832452 12.3489 0.254594L7.01395 5.5872C6.98694 5.61429 6.95026 5.62951 6.912 5.62951C6.87375 5.62951 6.83707 5.61429 6.81005 5.5872L1.47514 0.254594C1.13778 -0.0829271 0.590674 -0.083056 0.253153 0.254306C-0.0843678 0.591668 -0.0844967 1.13877 0.252865 1.47629L5.5872 6.8112C5.61428 6.83822 5.62951 6.8749 5.62951 6.91315C5.62951 6.95141 5.61428 6.98809 5.5872 7.01511L0.252865 12.3506C0.0346303 12.5689 -0.0505452 12.8871 0.0294234 13.1853C0.109392 13.4834 0.342356 13.7163 0.640559 13.7961C0.938763 13.876 1.2569 13.7906 1.47514 13.5723L6.81005 8.2368C6.83707 8.20972 6.87375 8.1945 6.912 8.1945C6.95026 8.1945 6.98694 8.20972 7.01395 8.2368L12.3489 13.5723C12.6862 13.9098 13.2333 13.9099 13.5708 13.5726C13.9084 13.2352 13.9085 12.6881 13.5711 12.3506L8.2368 7.01511Z" fill="black"></path>
</g>
</svg>