<?xml version="1.0" encoding="utf-8"?>
<!-- Generator: Adobe Illustrator 21.1.0, SVG Export Plug-In . SVG Version: 6.00 Build 0)  -->
<svg version="1.1" id="Icons" xmlns="http://www.w3.org/2000/svg" xmlns:xlink="http://www.w3.org/1999/xlink" x="0px" y="0px"
	 viewBox="0 0 48 48" style="enable-background:new 0 0 48 48;" xml:space="preserve">
<style type="text/css">
	.st0{opacity:0.15;fill:#45413C;}
	.st1{fill:#FF6196;}
	.st2{fill:#FF87AF;}
	.st3{fill:none;stroke:#45413C;stroke-linecap:round;stroke-linejoin:round;stroke-miterlimit:10;}
	.st4{fill:#FFE500;stroke:#45413C;stroke-linecap:round;stroke-linejoin:round;stroke-miterlimit:10;}
	.st5{fill:#FFE500;}
	.st6{fill:#EBCB00;}
	.st7{fill:#EBCB00;stroke:#45413C;stroke-linecap:round;stroke-linejoin:round;stroke-miterlimit:10;}
	.st8{fill:#FFF48C;}
	.st9{fill:#FFCCDD;stroke:#FFB0CA;stroke-linecap:round;stroke-linejoin:round;stroke-miterlimit:10;}
	.st10{fill:#FFB0CA;stroke:#FF87AF;stroke-linecap:round;stroke-linejoin:round;stroke-miterlimit:10;}
	.st11{opacity:0.7;fill:#FFE5EE;}
	.st12{fill:#009FD9;}
	.st13{fill:#00B8F0;}
	.st14{fill:#656769;}
	.st15{fill:#87898C;}
	.st16{fill:#FF6242;stroke:#45413C;stroke-linecap:round;stroke-linejoin:round;stroke-miterlimit:10;}
	.st17{fill:#4AEFF7;}
	.st18{fill:#00DFEB;}
	.st19{fill:#A6FBFF;}
	.st20{fill:#FFFFFF;}
	.st21{fill:#E5F8FF;}
	.st22{fill:#E5F8FF;stroke:#45413C;stroke-linecap:round;stroke-linejoin:round;stroke-miterlimit:10;}
	.st23{fill:#FFE500;stroke:#EBCB00;stroke-linecap:round;stroke-linejoin:round;stroke-miterlimit:10;}
	.st24{fill:#BDBEC0;}
	.st25{fill:#4ACFFF;}
	.st26{fill:#E8F4FA;stroke:#45413C;stroke-linecap:round;stroke-linejoin:round;stroke-miterlimit:10;}
	.st27{fill:#80DDFF;}
	.st28{fill:#009FD9;stroke:#45413C;stroke-linecap:round;stroke-linejoin:round;stroke-miterlimit:10;}
	.st29{fill:#B8ECFF;}
	.st30{fill:#4ACFFF;stroke:#45413C;stroke-linecap:round;stroke-linejoin:round;stroke-miterlimit:10;}
	.st31{fill:#B8ECFF;stroke:#45413C;stroke-linecap:round;stroke-linejoin:round;stroke-miterlimit:10;}
	.st32{fill:#FFFACF;}
	.st33{fill:#FFF48C;stroke:#45413C;stroke-linecap:round;stroke-linejoin:round;stroke-miterlimit:10;}
	.st34{fill:#BF8256;}
	.st35{fill:#DEA47A;}
	.st36{fill:#656769;stroke:#45413C;stroke-linecap:round;stroke-linejoin:round;stroke-miterlimit:10;}
	.st37{fill:#FF8A14;}
	.st38{fill:#FFAA54;}
	.st39{fill:#EB6D00;}
	.st40{fill:#627B8C;stroke:#45413C;stroke-linecap:round;stroke-linejoin:round;stroke-miterlimit:10;}
	.st41{fill:#FFFFFF;stroke:#45413C;stroke-linecap:round;stroke-linejoin:round;stroke-miterlimit:10;}
	.st42{fill:#E0366F;stroke:#45413C;stroke-linecap:round;stroke-linejoin:round;stroke-miterlimit:10;}
	.st43{fill:#FF87AF;stroke:#45413C;stroke-linecap:round;stroke-linejoin:round;stroke-miterlimit:10;}
	.st44{fill:#E0366F;}
	.st45{fill:#FF6196;stroke:#45413C;stroke-linecap:round;stroke-linejoin:round;stroke-miterlimit:10;}
	.st46{fill:#525252;}
	.st47{fill:#DEBB7E;}
	.st48{fill:#F0D5A8;}
	.st49{fill:#DAEDF7;}
	.st50{fill:#F7E5C6;}
	.st51{fill:#DEBB7E;stroke:#45413C;stroke-linecap:round;stroke-linejoin:round;stroke-miterlimit:10;}
	.st52{fill:#FFF5E3;}
	.st53{fill:#00F5BC;}
	.st54{fill:#FFB0CA;stroke:#45413C;stroke-linecap:round;stroke-linejoin:round;stroke-miterlimit:10;}
	.st55{fill:#8CFFE4;}
	.st56{fill:#00DBA8;}
	.st57{fill:#87898C;stroke:#45413C;stroke-linecap:round;stroke-linejoin:round;stroke-miterlimit:10;}
	.st58{fill:#FF6242;}
	.st59{fill:#FF866E;}
	.st60{fill:#F0F0F0;}
	.st61{fill:#BDBEC0;stroke:#45413C;stroke-width:1.0064;stroke-linecap:round;stroke-linejoin:round;stroke-miterlimit:10;}
	.st62{fill:#947746;stroke:#45413C;stroke-linecap:round;stroke-linejoin:round;stroke-miterlimit:10;}
	.st63{fill:#B89558;}
	.st64{fill:#E04122;}
	.st65{fill:#C0DCEB;}
	.st66{fill:#E8F4FA;}
	.st67{fill:#00B8F0;stroke:#45413C;stroke-linecap:round;stroke-linejoin:round;stroke-miterlimit:10;}
	.st68{fill:#80DDFF;stroke:#45413C;stroke-linecap:round;stroke-linejoin:round;stroke-miterlimit:10;}
	.st69{fill:#9CEB60;}
	.st70{fill:#C8FFA1;}
	.st71{fill:#FFB0CA;}
	.st72{fill:#FFCCDD;}
	.st73{fill:#FFE5EE;}
	.st74{fill:#45413C;stroke:#45413C;stroke-linecap:round;stroke-linejoin:round;stroke-miterlimit:10;}
	.st75{fill:#FFCABF;}
	.st76{fill:#FFA694;}
	.st77{fill:#FFA694;stroke:#45413C;stroke-linecap:round;stroke-linejoin:round;stroke-miterlimit:10;}
	.st78{fill:#FFCC99;}
	.st79{fill:#8CA4B8;}
	.st80{fill:#ADC4D9;}
	.st81{fill:#F0D5A8;stroke:#45413C;stroke-linecap:round;stroke-linejoin:round;stroke-miterlimit:10;}
	.st82{fill:#BDBEC0;stroke:#45413C;stroke-linecap:round;stroke-linejoin:round;stroke-miterlimit:10;}
	.st83{fill:#E0E0E0;}
	.st84{fill:#45413C;}
	.st85{fill:#E5FEFF;}
	.st86{fill:#FFFCE5;}
	.st87{fill:#FFAA54;stroke:#45413C;stroke-linecap:round;stroke-linejoin:round;stroke-miterlimit:10;}
	.st88{fill:#6DD627;}
	.st89{fill:#46B000;}
	.st90{fill:#FFE8E0;}
	.st91{fill:#FFCEBF;}
	.st92{fill:#FFE8D1;}
	.st93{fill:#FFF48C;stroke:#4F4B45;stroke-linecap:round;stroke-linejoin:round;stroke-miterlimit:10;}
	.st94{fill:#FFDCD1;stroke:#4F4B45;stroke-linejoin:round;stroke-miterlimit:10;}
	.st95{fill:none;stroke:#4F4B45;stroke-linejoin:round;stroke-miterlimit:10;}
	.st96{fill:none;stroke:#4F4B45;stroke-linecap:round;stroke-linejoin:round;stroke-miterlimit:10;}
	.st97{fill:#656769;stroke:#4F4B45;stroke-linejoin:round;stroke-miterlimit:10;}
	.st98{fill:#87898C;stroke:#4F4B45;stroke-linecap:round;stroke-linejoin:round;stroke-miterlimit:10;}
	.st99{fill:#C0DCEB;stroke:#4F4B45;stroke-linecap:round;stroke-linejoin:round;stroke-miterlimit:10;}
	.st100{fill:#FFA694;stroke:#4F4B45;stroke-linecap:round;stroke-linejoin:round;stroke-miterlimit:10;}
	.st101{fill:#E04122;stroke:#45413C;stroke-linecap:round;stroke-linejoin:round;stroke-miterlimit:10;}
	.st102{fill:#FFFCE5;stroke:#45413C;stroke-linecap:round;stroke-linejoin:round;stroke-miterlimit:10;}
	.st103{fill:#915E3A;}
	.st104{fill:none;stroke:#915E3A;stroke-linecap:round;stroke-linejoin:round;stroke-miterlimit:10;}
	.st105{fill:#915E3A;stroke:#45413C;stroke-linecap:round;stroke-linejoin:round;stroke-miterlimit:10;}
	.st106{fill:#FF866E;stroke:#45413C;stroke-linecap:round;stroke-linejoin:round;stroke-miterlimit:10;}
	.st107{fill:#FFF5E3;stroke:#45413C;stroke-linecap:round;stroke-linejoin:round;stroke-miterlimit:10;}
	.st108{fill:#FFDCD1;}
	.st109{fill:#FFDCD1;stroke:#45413C;stroke-linecap:round;stroke-linejoin:round;stroke-miterlimit:10;}
	.st110{fill:#F0C2A1;}
	.st111{fill:#FFE3CF;}
	.st112{fill:#FFFACF;stroke:#45413C;stroke-linecap:round;stroke-linejoin:round;stroke-miterlimit:10;}
	.st113{fill:#DEA47A;stroke:#45413C;stroke-linecap:round;stroke-linejoin:round;stroke-miterlimit:10;}
	.st114{fill:#F0C2A1;stroke:#45413C;stroke-linecap:round;stroke-linejoin:round;stroke-miterlimit:10;}
	.st115{fill:#EB6D00;stroke:#45413C;stroke-linecap:round;stroke-linejoin:round;stroke-miterlimit:10;}
	.st116{fill:#FF8A14;stroke:#45413C;stroke-linecap:round;stroke-linejoin:round;stroke-miterlimit:10;}
	.st117{fill:#D9FDFF;}
	.st118{fill:#C8FFA1;stroke:#45413C;stroke-linecap:round;stroke-linejoin:round;stroke-miterlimit:10;}
	.st119{fill:#E4FFD1;}
	.st120{fill:#E0E0E0;stroke:#45413C;stroke-linecap:round;stroke-linejoin:round;stroke-miterlimit:10;}
	.st121{fill:#FFCCDD;stroke:#45413C;stroke-linecap:round;stroke-linejoin:round;stroke-miterlimit:10;}
	.st122{fill:#BF8256;stroke:#45413C;stroke-linecap:round;stroke-linejoin:round;stroke-miterlimit:10;}
	.st123{fill:#C0DCEB;stroke:#45413C;stroke-linecap:round;stroke-linejoin:round;stroke-miterlimit:10;}
</style>
<g id="XMLID_11133_">
	<ellipse id="XMLID_11172_" class="st0" cx="24" cy="43.5" rx="17" ry="1.5"/>
	<g id="XMLID_11134_">
		<path id="XMLID_11171_" class="st7" d="M19,24.5c-1.8-1.7-3.4-6.3-4.5-9.7c-0.2-0.4-0.8-0.4-0.9,0c-1.2,3.4-2.7,7.9-4.5,9.7H19z"
			/>
		<path id="XMLID_11170_" class="st7" d="M29,24.5c1.8-1.7,3.4-6.3,4.5-9.7c0.2-0.4,0.8-0.4,0.9,0c1.2,3.4,2.7,7.9,4.5,9.7H29z"/>
		<g id="XMLID_11166_">
			<path id="XMLID_11169_" class="st5" d="M23.5,11.7c0.2-0.4,0.8-0.4,0.9,0c1.3,3.4,5.4,12.8,9,12.8c3.2,0,6.3-4.5,7.9-7.1
				c0.3-0.4,1-0.2,0.9,0.3L41.5,32c0,3.6-7.8,6.5-17.5,6.5S6.5,35.6,6.5,32L5.6,17.7c0-0.5,0.7-0.7,0.9-0.3c1.6,2.6,4.8,7.1,7.9,7.1
				C18.2,24.5,22.2,15.1,23.5,11.7z"/>
			<path id="XMLID_11168_" class="st8" d="M12.4,36.9l16.4-16.4c-1.9-3-3.6-6.8-4.3-8.8c-0.2-0.4-0.8-0.4-0.9,0
				c-1.3,3.4-5.4,12.8-9,12.8c-3.2,0-6.3-4.5-7.9-7.1c-0.3-0.4-1-0.2-0.9,0.3L6.5,32C6.5,33.9,8.8,35.7,12.4,36.9z"/>
			<path id="XMLID_11167_" class="st3" d="M23.5,11.7c0.2-0.4,0.8-0.4,0.9,0c1.3,3.4,5.4,12.8,9,12.8c3.2,0,6.3-4.5,7.9-7.1
				c0.3-0.4,1-0.2,0.9,0.3L41.5,32c0,3.6-7.8,6.5-17.5,6.5S6.5,35.6,6.5,32L5.6,17.7c0-0.5,0.7-0.7,0.9-0.3c1.6,2.6,4.8,7.1,7.9,7.1
				C18.2,24.5,22.2,15.1,23.5,11.7z"/>
		</g>
		<g id="XMLID_11161_">
			<path id="XMLID_11165_" class="st58" d="M27.5,28c0-1.9-1.6-3.5-3.5-3.5s-3.5,1.6-3.5,3.5v2c0,1.9,1.6,3.5,3.5,3.5
				s3.5-1.6,3.5-3.5V28z"/>
			<path id="XMLID_11164_" class="st64" d="M24,32c-1.9,0-3.5-1.6-3.5-3.5V30c0,1.9,1.6,3.5,3.5,3.5s3.5-1.6,3.5-3.5v-1.5
				C27.5,30.4,25.9,32,24,32z"/>
			<path id="XMLID_11163_" class="st59" d="M24,24.5c-1.9,0-3.5,1.6-3.5,3.5v2c0,0.1,0,0.2,0,0.2c0.1-1.8,1.6-3.2,3.5-3.2
				s3.3,1.4,3.5,3.2c0-0.1,0-0.2,0-0.2v-2C27.5,26.1,25.9,24.5,24,24.5z"/>
			<path id="XMLID_11162_" class="st3" d="M27.5,28c0-1.9-1.6-3.5-3.5-3.5s-3.5,1.6-3.5,3.5v2c0,1.9,1.6,3.5,3.5,3.5
				s3.5-1.6,3.5-3.5V28z"/>
		</g>
		<circle id="XMLID_11160_" class="st16" cx="35.5" cy="29.5" r="2"/>
		<circle id="XMLID_11159_" class="st16" cx="12.5" cy="29.5" r="2"/>
		<g id="XMLID_11155_">
			<path id="XMLID_11158_" class="st65" d="M6.5,37c0,3.6,7.8,6.5,17.5,6.5s17.5-2.9,17.5-6.5v-5c0,3.6-7.8,6.5-17.5,6.5
				S6.5,35.6,6.5,32V37z"/>
			<path id="XMLID_11157_" class="st66" d="M24,38.5c-9.7,0-17.5-2.9-17.5-6.5v2.5c0,3.6,7.8,6.5,17.5,6.5s17.5-2.9,17.5-6.5V32
				C41.5,35.6,33.7,38.5,24,38.5z"/>
			<path id="XMLID_11156_" class="st3" d="M6.5,37c0,3.6,7.8,6.5,17.5,6.5s17.5-2.9,17.5-6.5v-5c0,3.6-7.8,6.5-17.5,6.5
				S6.5,35.6,6.5,32V37z"/>
		</g>
		<g id="XMLID_11151_">
			<circle id="XMLID_11154_" class="st58" cx="14" cy="12.5" r="2.5"/>
			<path id="XMLID_11153_" class="st59" d="M12.2,14.3c-1-1-1-2.6,0-3.5s2.6-1,3.5,0L12.2,14.3z"/>
			<circle id="XMLID_11152_" class="st3" cx="14" cy="12.5" r="2.5"/>
		</g>
		<g id="XMLID_11147_">
			<circle id="XMLID_11150_" class="st58" cx="34" cy="12.5" r="2.5"/>
			<path id="XMLID_11149_" class="st59" d="M32.2,14.3c-1-1-1-2.6,0-3.5c1-1,2.6-1,3.5,0L32.2,14.3z"/>
			<circle id="XMLID_11148_" class="st3" cx="34" cy="12.5" r="2.5"/>
		</g>
		<g id="XMLID_11143_">
			<circle id="XMLID_11146_" class="st58" cx="5.5" cy="14.5" r="3"/>
			<path id="XMLID_11145_" class="st59" d="M3.4,16.6c-1.2-1.2-1.2-3.1,0-4.2s3.1-1.2,4.2,0L3.4,16.6z"/>
			<circle id="XMLID_11144_" class="st3" cx="5.5" cy="14.5" r="3"/>
		</g>
		<g id="XMLID_11139_">
			<circle id="XMLID_11142_" class="st58" cx="24" cy="9.5" r="3"/>
			<path id="XMLID_11141_" class="st59" d="M21.9,11.6c-1.2-1.2-1.2-3.1,0-4.2s3.1-1.2,4.2,0L21.9,11.6z"/>
			<circle id="XMLID_11140_" class="st3" cx="24" cy="9.5" r="3"/>
		</g>
		<g id="XMLID_11135_">
			<circle id="XMLID_11138_" class="st58" cx="42.5" cy="14.5" r="3"/>
			<path id="XMLID_11137_" class="st59" d="M40.4,16.6c-1.2-1.2-1.2-3.1,0-4.2s3.1-1.2,4.2,0L40.4,16.6z"/>
			<circle id="XMLID_11136_" class="st3" cx="42.5" cy="14.5" r="3"/>
		</g>
	</g>
</g>
</svg>
