<?xml version="1.0"?>
<svg xmlns="http://www.w3.org/2000/svg" viewBox="0 0 64 64" width="512" height="512"><g id="Filled_outline" data-name="Filled outline"><polygon points="61 22 3 22 14 7 49 7 61 22" style="fill:#b8c6cc"/><polygon points="32 7 23 22 41 22 32 7" style="fill:#e8e8e8"/><polygon points="41 22 49 7 61 22 41 22" style="fill:#e8e8e8"/><polygon points="23 22 14 7 3 22 23 22" style="fill:#e8e8e8"/><polygon points="23 22 32 57 41 22 23 22" style="fill:#b8c6cc"/><polygon points="41 22 61 22 32 57 41 22" style="fill:#cfdfe8"/><polygon points="23 22 3 22 32 57 23 22" style="fill:#cfdfe8"/><rect x="14" y="23.19" width="2" height="15.62" transform="translate(-16.369 16.788) rotate(-39.806)" style="fill:#b8c6cc"/><rect x="20.5" y="37.793" width="2" height="1.414" transform="translate(-20.926 26.479) rotate(-45)" style="fill:#b8c6cc"/><rect x="52" y="17" width="6" height="2" style="fill:#b8c6cc"/><rect x="6" y="17" width="5" height="2" style="fill:#b8c6cc"/><rect x="48" y="17" width="2" height="2" style="fill:#b8c6cc"/><path d="M58,50a4,4,0,0,1-4-4,1,1,0,0,0-2,0,4,4,0,0,1-4,4,1,1,0,0,0,0,2,4,4,0,0,1,4,4,1,1,0,0,0,2,0,4,4,0,0,1,4-4,1,1,0,0,0,0-2Zm-5,2.69A6.044,6.044,0,0,0,51.31,51,6.044,6.044,0,0,0,53,49.31,6.044,6.044,0,0,0,54.69,51,6.044,6.044,0,0,0,53,52.69Z" style="fill:#f3bb59"/><path d="M13,42a4,4,0,0,1-4-4,1,1,0,0,0-2,0,4,4,0,0,1-4,4,1,1,0,0,0,0,2,4,4,0,0,1,4,4,1,1,0,0,0,2,0,4,4,0,0,1,4-4,1,1,0,0,0,0-2ZM8,44.69A6.044,6.044,0,0,0,6.31,43,6.044,6.044,0,0,0,8,41.31,6.044,6.044,0,0,0,9.69,43,6.044,6.044,0,0,0,8,44.69Z" style="fill:#f3bb59"/><rect x="20.5" y="37.793" width="2" height="1.414" transform="translate(-20.926 26.479) rotate(-45)"/><path d="M58,50a4,4,0,0,1-4-4,1,1,0,0,0-2,0,4,4,0,0,1-4,4,1,1,0,0,0,0,2,4,4,0,0,1,4,4,1,1,0,0,0,2,0,4,4,0,0,1,4-4,1,1,0,0,0,0-2Zm-5,2.69A6.044,6.044,0,0,0,51.31,51,6.044,6.044,0,0,0,53,49.31,6.044,6.044,0,0,0,54.69,51,6.044,6.044,0,0,0,53,52.69Z"/><path d="M13,42a4,4,0,0,1-4-4,1,1,0,0,0-2,0,4,4,0,0,1-4,4,1,1,0,0,0,0,2,4,4,0,0,1,4,4,1,1,0,0,0,2,0,4,4,0,0,1,4-4,1,1,0,0,0,0-2ZM8,44.69A6.044,6.044,0,0,0,6.31,43,6.044,6.044,0,0,0,8,41.31,6.044,6.044,0,0,0,9.69,43,6.044,6.044,0,0,0,8,44.69Z"/><path d="M61.781,21.375l-12-15A1,1,0,0,0,49,6H14a1,1,0,0,0-.807.408l-11,15a1,1,0,0,0-.085,1.044,1.053,1.053,0,0,0,.126.182l0,0,29,35,.009-.008a.968.968,0,0,0,1.522,0l.009.008,29-35,0,0a.978.978,0,0,0,.134-.2A1,1,0,0,0,61.781,21.375ZM39.71,23,32,52.984,24.29,23ZM24.766,21,32,8.943,39.234,21Zm9-13H47.333L40.949,19.971ZM23,20.056,15.766,8H30.234Zm6.919,32.865L5.127,23h17.1ZM41.775,23h17.1L34.081,52.921Zm.892-2,6.5-12.19L55.719,17H52v2h5.319l1.6,2ZM6.44,19H11V17H7.907l6.01-8.195L21.234,21H4.974Z"/><rect x="14" y="23.19" width="2" height="15.62" transform="translate(-16.375 16.802) rotate(-39.831)"/><rect x="48" y="17" width="2" height="2"/></g></svg>
