<?xml version="1.0" encoding="iso-8859-1"?>
<!-- Generator: Adobe Illustrator 19.0.0, SVG Export Plug-In . SVG Version: 6.00 Build 0)  -->
<svg version="1.1" id="Capa_1" xmlns="http://www.w3.org/2000/svg" xmlns:xlink="http://www.w3.org/1999/xlink" x="0px" y="0px"
	 viewBox="0 0 512 512" style="enable-background:new 0 0 512 512;" xml:space="preserve">
<g>
	<path style="fill:#FEE377;" d="M502,306l-60,50H276V256h166L502,306z"/>
	<path style="fill:#FEE377;" d="M502,106l-60,50H276V56h166L502,106z"/>
</g>
<path style="fill:#8F5939;" d="M256,10c-11.05,0-20,8.95-20,20v412h40V30C276,18.96,267.04,10,256,10z"/>
<path style="fill:#FEE377;" d="M236,156v100H70l-60-50l60-50H236z"/>
<path style="fill:#57555C;" d="M360.56,455.68L376,502H136l15.44-46.32c2.72-8.17,10.37-13.68,18.98-13.68
	c18.421,0,153.757,0,171.16,0C350.19,442,357.84,447.51,360.56,455.68z"/>
<path d="M422,116c5.52,0,10-4.48,10-10s-4.48-10-10-10s-10,4.48-10,10S416.48,116,422,116z"/>
<path d="M422,316c5.52,0,10-4.48,10-10s-4.48-10-10-10s-10,4.48-10,10S416.48,316,422,316z"/>
<path d="M70,196c-5.52,0-10,4.48-10,10s4.48,10,10,10s10-4.48,10-10S75.52,196,70,196z"/>
<path d="M442,166c2.34,0,4.604-0.82,6.401-2.318l60-50c2.28-1.9,3.599-4.714,3.599-7.682s-1.318-5.782-3.599-7.682l-60-50
	C446.604,46.82,444.34,46,442,46H286V30c0-8.01-3.121-15.543-8.79-21.212C271.542,3.121,264.01,0,256,0c-16.542,0-30,13.458-30,30
	v116H70c-2.339,0-4.604,0.82-6.402,2.318l-60,50C1.318,200.218,0,203.032,0,206s1.318,5.782,3.598,7.682l60,50
	C65.396,265.18,67.661,266,70,266h156v166h-55.58c-12.941,0-24.381,8.247-28.467,20.518L128.792,492H96c-5.523,0-10,4.477-10,10
	s4.477,10,10,10c2.561,0,326.153,0,328,0c5.522,0,10-4.477,10-10s-4.478-10-10-10h-40.793l-13.159-39.478
	C365.962,440.247,354.521,432,341.58,432H286v-66h156c2.34,0,4.604-0.82,6.401-2.318l60-50c2.28-1.9,3.599-4.714,3.599-7.682
	s-1.318-5.782-3.599-7.682l-60-50C446.604,246.82,444.34,246,442,246H286v-80H442z M438.38,66l48,40l-48,40H286V66H438.38z
	 M73.621,246l-48-40l48-40H226v80H73.621z M351.073,458.843L362.126,492H149.874l11.054-33.161c1.362-4.09,5.177-6.839,9.492-6.839
	h171.16C345.896,452,349.71,454.748,351.073,458.843z M246,432V30c0-5.514,4.486-10,10-10c2.668,0,5.179,1.041,7.068,2.931
	c1.891,1.89,2.932,4.4,2.932,7.069v402H246z M438.38,266l48,40l-48,40H286v-80H438.38z"/>
<path d="M316,116h66c5.522,0,10-4.477,10-10s-4.478-10-10-10h-66c-5.522,0-10,4.477-10,10S310.478,116,316,116z"/>
<path d="M316,316h66c5.522,0,10-4.477,10-10s-4.478-10-10-10h-66c-5.522,0-10,4.477-10,10S310.478,316,316,316z"/>
<path d="M196,196h-86c-5.523,0-10,4.477-10,10s4.477,10,10,10h86c5.523,0,10-4.477,10-10S201.523,196,196,196z"/>
<g>
</g>
<g>
</g>
<g>
</g>
<g>
</g>
<g>
</g>
<g>
</g>
<g>
</g>
<g>
</g>
<g>
</g>
<g>
</g>
<g>
</g>
<g>
</g>
<g>
</g>
<g>
</g>
<g>
</g>
</svg>
