<?xml version="1.0" encoding="iso-8859-1"?>
<!-- Generator: Adobe Illustrator 18.0.0, SVG Export Plug-In . SVG Version: 6.00 Build 0)  -->
<!DOCTYPE svg PUBLIC "-//W3C//DTD SVG 1.1//EN" "http://www.w3.org/Graphics/SVG/1.1/DTD/svg11.dtd">
<svg version="1.1" id="Capa_1" xmlns="http://www.w3.org/2000/svg" xmlns:xlink="http://www.w3.org/1999/xlink" x="0px" y="0px"
	 viewBox="0 0 512 512" style="enable-background:new 0 0 512 512;" xml:space="preserve">
<g>
	<path style="fill:#566E7F;" d="M26.667,40H16C7.163,40,0,47.163,0,56v208c0,8.837,7.163,16,16,16h10.667
		c3.462,0,6.83-1.123,9.6-3.2L96,232V88L36.267,43.2C33.497,41.123,30.129,40,26.667,40z"/>
	<path style="fill:#566E7F;" d="M274.512,382.921l11.202-62.728c-6.352,0.917-11.644,5.56-13.237,11.924l-8,32
		c-1.195,4.781-0.117,9.844,2.914,13.727C269.248,380.223,271.748,381.903,274.512,382.921z"/>
	<path style="fill:#566E7F;" d="M270.003,408.169c-6.479,0.816-11.91,5.488-13.527,11.948l-8,32
		c-1.195,4.781-0.117,9.844,2.914,13.727c1.917,2.456,4.517,4.173,7.39,5.173L270.003,408.169z"/>
	<path style="fill:#F5B445;" d="M379.343,9.196c-40.773-5.032-78.855,6.105-108.713,27.856C224.8,70.439,169.354,88,112.652,88H96
		v144h16.633c57.892,0,113.269,19.944,160.824,52.959C298.015,302.007,327.838,312,360,312c89.723,0,161.289-77.74,151.016-169.537
		C503.307,73.577,448.137,17.686,379.343,9.196z"/>
	<path style="fill:#FFCF68;" d="M360,328c-26.233,0-50.855-6.737-72.388-18.44L256.25,485.187
		c-0.836,4.664,0.445,9.453,3.484,13.086C262.773,501.898,267.266,504,272,504h88c7.75,0,14.391-5.555,15.75-13.188l30.353-169.973
		C391.557,325.466,376.078,328,360,328z"/>
	<path style="fill:#F5B445;" d="M409.135,303.857c-3.465,1.184-7.004,2.205-10.577,3.141c-1.736,0.45-3.505,0.819-5.265,1.21
		C382.567,310.616,371.454,312,360,312c-25.176,0-48.876-6.193-69.783-17.03l-2.605,14.59C309.145,321.263,333.767,328,360,328
		c2.147,0,4.281-0.05,6.403-0.146c10.158-0.46,18.029,8.738,16.242,18.748l-22.894,128.21c-1.363,7.631-7.999,13.188-15.751,13.188
		h-87.938c0,3.726,1.245,7.37,3.673,10.273C262.773,501.898,267.266,504,272,504h87.999c7.752,0,14.388-5.557,15.751-13.188
		l30.352-169.973h0L409.135,303.857z"/>
	<g>
		<path style="fill:#35495C;" d="M272.404,168c0.497,5.502,1.533,10.837,2.995,16h169.202c1.462-5.163,2.499-10.498,2.995-16
			H272.404z"/>
		<path style="fill:#35495C;" d="M275.399,136c-1.462,5.163-2.499,10.498-2.995,16h175.192c-0.497-5.502-1.533-10.837-2.995-16
			H275.399z"/>
		<path style="fill:#35495C;" d="M281.684,200c2.922,5.71,6.384,11.097,10.433,16h135.767c4.049-4.903,7.511-10.29,10.433-16
			H281.684z"/>
		<path style="fill:#35495C;" d="M309.5,232c14.302,10.05,31.693,16,50.5,16s36.199-5.95,50.5-16H309.5z"/>
		<path style="fill:#35495C;" d="M410.5,88c-14.302-10.05-31.693-16-50.5-16s-36.199,5.95-50.5,16H410.5z"/>
		<path style="fill:#35495C;" d="M292.117,104c-4.049,4.903-7.511,10.29-10.433,16h156.633c-2.922-5.71-6.384-11.097-10.433-16
			H292.117z"/>
	</g>
	<path style="fill:#3F556B;" d="M80,96v80c0,12.656-5.959,24.574-16.084,32.167l-27.65,20.737c-2.769,2.077-6.138,3.2-9.6,3.2h0
		C11.939,232.104,0,244.043,0,258.771V264c0,8.837,7.163,16,16,16h10.666c3.462,0,6.831-1.123,9.601-3.2L96,232v-24V88l0,0
		C89.408,83.056,80,87.759,80,96z"/>
	<path style="fill:#F09820;" d="M471.28,56.594c-9.246-9.917-25.089,1.704-18.471,13.538C465.029,91.985,472,117.167,472,144
		c0,8.458-0.692,16.753-2.022,24.832c-14.283,86.735-111.036,135.88-189.495,96.24c-2.615-1.321-4.979-2.693-7.025-4.113
		C225.903,227.944,170.528,208,112.638,208L96,208v24h16.633c57.892,0,113.269,19.944,160.825,52.958
		c5.912,4.104,18.801,11.042,18.908,11.041c22.627,11.311,48.401,17.232,75.747,15.786c80.31-4.247,144.612-72.776,143.881-153.195
		C511.635,119.161,496.243,83.367,471.28,56.594z"/>
</g>
<g>
</g>
<g>
</g>
<g>
</g>
<g>
</g>
<g>
</g>
<g>
</g>
<g>
</g>
<g>
</g>
<g>
</g>
<g>
</g>
<g>
</g>
<g>
</g>
<g>
</g>
<g>
</g>
<g>
</g>
</svg>
