<?xml version="1.0" encoding="utf-8"?>
<!-- Generator: Adobe Illustrator 21.1.0, SVG Export Plug-In . SVG Version: 6.00 Build 0)  -->
<svg version="1.1" id="Icons" xmlns="http://www.w3.org/2000/svg" xmlns:xlink="http://www.w3.org/1999/xlink" x="0px" y="0px"
	 viewBox="0 0 48 48" style="enable-background:new 0 0 48 48;" xml:space="preserve">
<style type="text/css">
	.st0{fill:#724F3D;}
	.st1{fill:#A86C4D;}
	.st2{fill:none;stroke:#45413C;stroke-linecap:round;stroke-linejoin:round;stroke-miterlimit:10;}
	.st3{fill:#FF87AF;}
	.st4{fill:#FF6196;}
	.st5{fill:#FFE500;stroke:#45413C;stroke-linecap:round;stroke-linejoin:round;stroke-miterlimit:10;}
	.st6{fill:#45413C;stroke:#45413C;stroke-linecap:round;stroke-linejoin:round;stroke-miterlimit:10;}
	.st7{fill:#FF6242;}
	.st8{fill:#FFA694;}
	.st9{fill:#FFAA54;}
	.st10{fill:#00B8F0;}
	.st11{fill:#009FD9;}
	.st12{fill:#FFE500;}
	.st13{fill:#EBCB00;}
	.st14{fill:#9CEB60;}
	.st15{fill:#6DD627;}
	.st16{fill:#724F3D;stroke:#45413C;stroke-linecap:round;stroke-linejoin:round;stroke-miterlimit:10;}
	.st17{fill:#BF8DF2;}
	.st18{fill:#9F5AE5;}
	.st19{fill:#00DFEB;}
	.st20{fill:#00C9D4;}
	.st21{fill:#FF866E;}
	.st22{fill:#00F5BC;}
	.st23{fill:#00DBA8;}
	.st24{fill:#FF8A14;}
	.st25{fill:#DE926A;}
	.st26{fill:#FFCEBF;stroke:#45413C;stroke-linecap:round;stroke-linejoin:round;stroke-miterlimit:10;}
	.st27{fill:#FFB59E;}
	.st28{fill:#FFCEBF;}
	.st29{fill:#A86C4D;stroke:#45413C;stroke-linecap:round;stroke-linejoin:round;stroke-miterlimit:10;}
	.st30{fill:#ADC4D9;stroke:#45413C;stroke-linecap:round;stroke-linejoin:round;stroke-miterlimit:10;}
	.st31{fill:#FFF48C;}
	.st32{fill:#C0DCEB;stroke:#45413C;stroke-linecap:round;stroke-linejoin:round;stroke-miterlimit:10;}
	.st33{fill:#4ACFFF;}
	.st34{fill:#45413C;}
	.st35{fill:#FFDCD1;}
	.st36{opacity:0.15;fill:#45413C;}
	.st37{fill:#FFB59E;stroke:#45413C;stroke-linecap:round;stroke-linejoin:round;stroke-miterlimit:10;}
	.st38{fill:#00DFEB;stroke:#45413C;stroke-linecap:round;stroke-linejoin:round;stroke-miterlimit:10;}
	.st39{fill:#F0F0F0;stroke:#45413C;stroke-linecap:round;stroke-linejoin:round;stroke-miterlimit:10;}
	.st40{fill:#E0366F;}
	.st41{fill:#FFE8E0;}
	.st42{fill:#EBCB00;stroke:#45413C;stroke-linecap:round;stroke-linejoin:round;stroke-miterlimit:10;}
	.st43{fill:#FFDA8F;}
	.st44{fill:#FFBE3D;}
	.st45{fill:#FFE9BD;}
	.st46{fill:#FFFFFF;}
	.st47{fill:#E0E0E0;}
	.st48{fill:#656769;}
	.st49{fill:#525252;}
	.st50{fill:#87898C;}
	.st51{fill:#656769;stroke:#45413C;stroke-linecap:round;stroke-linejoin:round;stroke-miterlimit:10;}
	.st52{fill:#B89558;}
	.st53{fill:#947746;}
	.st54{fill:#525252;stroke:#45413C;stroke-linecap:round;stroke-linejoin:round;stroke-miterlimit:10;}
	.st55{fill:#FFFFFF;stroke:#45413C;stroke-linecap:round;stroke-linejoin:round;stroke-miterlimit:10;}
	.st56{fill:#A6FBFF;stroke:#45413C;stroke-linecap:round;stroke-linejoin:round;stroke-miterlimit:10;}
</style>
<g>
	<g>
		<path id="XMLID_9248_" class="st1" d="M12.2,1.4c-0.8,0-1.6,0.1-2.4,0.3C8,2.2,5.6,2.9,3.4,2.4C3.2,4.5,4.3,5.6,4.3,5.6
			c-1.1,1.6-1.7,3.5-1.7,5.5v5.1H22v-5.1C22,5.8,17.6,1.4,12.2,1.4z"/>
		<g id="XMLID_9246_">
			<path id="XMLID_9247_" class="st25" d="M12.3,1.4c-0.8,0-1.6,0.1-2.4,0.3C8,2.2,5.6,2.9,3.4,2.4C3.3,4,3.8,5,4.1,5.4
				c2,0.2,4.1-0.4,5.7-0.8c0.8-0.2,1.6-0.3,2.4-0.3c5.4,0,9.7,4.4,9.7,9.7v-2.9C22,5.8,17.6,1.4,12.3,1.4z"/>
		</g>
		<path id="XMLID_9245_" class="st2" d="M12.2,1.4c-0.8,0-1.6,0.1-2.4,0.3C8,2.2,5.6,2.9,3.4,2.4C3.2,4.5,4.3,5.6,4.3,5.6
			c-1.1,1.6-1.7,3.5-1.7,5.5v5.1H22v-5.1C22,5.8,17.6,1.4,12.2,1.4z"/>
		<path id="XMLID_9244_" class="st10" d="M24,47.5H0.5V37.2c0-6.5,5.3-11.7,11.7-11.7h0c6.5,0,11.7,5.3,11.7,11.7V47.5z"/>
		<path class="st11" d="M12.3,25.5c-6.5,0-11.7,5.3-11.7,11.7v3.6c0-6.5,5.3-11.8,11.7-11.8S24,34.3,24,40.8v-3.6
			C24,30.7,18.7,25.5,12.3,25.5z"/>
		<path id="XMLID_9243_" class="st2" d="M24,47.5H0.5V37.2c0-6.5,5.3-11.7,11.7-11.7h0c6.5,0,11.7,5.3,11.7,11.7V47.5z"/>
		<path id="XMLID_9242_" class="st28" d="M12.3,29.3L12.3,29.3c-1.4,0-2.5-1.1-2.5-2.5V24c0-1.4,1.1-2.5,2.5-2.5h0
			c1.4,0,2.5,1.1,2.5,2.5v2.8C14.8,28.2,13.6,29.3,12.3,29.3z"/>
		<path id="XMLID_9241_" class="st27" d="M12.3,27.3L12.3,27.3c-1.4,0-2.5-1.1-2.5-2.5V24c0-1.4,1.1-2.5,2.5-2.5h0
			c1.4,0,2.5,1.1,2.5,2.5v0.8C14.8,26.2,13.6,27.3,12.3,27.3z"/>
		<path id="XMLID_9240_" class="st2" d="M12.3,29.3L12.3,29.3c-1.4,0-2.5-1.1-2.5-2.5V24c0-1.4,1.1-2.5,2.5-2.5h0
			c1.4,0,2.5,1.1,2.5,2.5v2.8C14.8,28.2,13.6,29.3,12.3,29.3z"/>
		<path class="st26" d="M23,15.4c-0.1-0.9-1-1.5-1.9-1.5c-0.9,0-1.6-0.7-1.6-1.6V9.8C19.5,9,19,8.2,18.2,8c-1.5,0.7-3.6,1.1-5.9,1.1
			S7.9,8.7,6.3,8C5.5,8.2,5,9,5,9.8v2.5c0,0.9-0.7,1.6-1.6,1.6c-0.9,0-1.7,0.6-1.9,1.5c-0.2,1.1,0.7,2.1,1.8,2.1c0,0,0.1,0,0.1,0
			c0.6,4.3,4.4,7.6,8.9,7.6s8.2-3.3,8.9-7.6c0,0,0.1,0,0.1,0C22.3,17.4,23.2,16.5,23,15.4z"/>
		<circle id="XMLID_9239_" class="st6" cx="7.6" cy="15.3" r="0.8"/>
		<circle id="XMLID_9238_" class="st6" cx="16.9" cy="15.3" r="0.8"/>
		<g id="XMLID_9234_">
			<g id="XMLID_9236_">
				<path id="XMLID_9237_" class="st7" d="M9.4,19.9c-0.1,0-0.2,0.1-0.3,0.2C9,20.2,9,20.3,9,20.4c0.2,1.6,1.6,2.7,3.2,2.7
					c1.6,0,3-1.2,3.2-2.7c0-0.1,0-0.3-0.1-0.4c-0.1-0.1-0.2-0.2-0.3-0.2H9.4z"/>
			</g>
			<path id="XMLID_9235_" class="st8" d="M12.3,23.2c0.9,0,1.7-0.4,2.3-0.9c-0.6-0.6-1.4-0.9-2.3-0.9c-0.9,0-1.7,0.4-2.3,0.9
				C10.5,22.8,11.4,23.2,12.3,23.2z"/>
		</g>
		<g id="XMLID_9232_">
			<path id="XMLID_9233_" class="st2" d="M9.4,19.9c-0.1,0-0.2,0.1-0.3,0.2C9,20.2,9,20.3,9,20.4c0.2,1.6,1.6,2.7,3.2,2.7
				c1.6,0,3-1.2,3.2-2.7c0-0.1,0-0.3-0.1-0.4c-0.1-0.1-0.2-0.2-0.3-0.2H9.4z"/>
		</g>
		<line id="XMLID_9231_" class="st2" x1="5.4" y1="47.5" x2="5.4" y2="36.7"/>
		<ellipse id="XMLID_9230_" class="st27" cx="6.4" cy="18.5" rx="1" ry="0.6"/>
		<ellipse id="XMLID_9229_" class="st27" cx="18.1" cy="18.5" rx="1" ry="0.6"/>
	</g>
	<g>
		<path id="XMLID_9171_" class="st1" d="M35.8,0.9c5.9,0,10.8,4.8,10.8,10.8v14c0,0.5-0.3,0.9-0.8,1.1l0,0c-6.4,2.6-13.6,2.6-20,0
			l0,0c-0.5-0.2-0.8-0.6-0.8-1.1v-14C25,5.7,29.8,0.9,35.8,0.9z"/>
		<path id="XMLID_9170_" class="st25" d="M35.8,0.9C29.8,0.9,25,5.7,25,11.6v3.2C25,8.8,29.8,4,35.7,4h0c5.9,0,10.8,4.8,10.8,10.8
			v-3.2C46.5,5.7,41.7,0.9,35.8,0.9z"/>
		<path id="XMLID_9169_" class="st2" d="M35.8,0.9c5.9,0,10.8,4.8,10.8,10.8v14c0,0.5-0.3,0.9-0.8,1.1l0,0c-6.4,2.6-13.6,2.6-20,0
			l0,0c-0.5-0.2-0.8-0.6-0.8-1.1v-14C25,5.7,29.8,0.9,35.8,0.9z"/>
		<path id="XMLID_9168_" class="st3" d="M47.5,47.5H24V37.2c0-6.5,5.3-11.7,11.7-11.7h0c6.5,0,11.7,5.3,11.7,11.7V47.5z"/>
		<path class="st4" d="M35.7,25.5c-6.5,0-11.7,5.3-11.7,11.7v3.6c0-6.5,5.3-11.8,11.7-11.8s11.7,5.3,11.7,11.8v-3.6
			C47.5,30.7,42.2,25.5,35.7,25.5z"/>
		<path id="XMLID_9167_" class="st2" d="M47.5,47.5H24V37.2c0-6.5,5.3-11.7,11.7-11.7h0c6.5,0,11.7,5.3,11.7,11.7V47.5z"/>
		<path id="XMLID_9166_" class="st26" d="M35.8,29.3L35.8,29.3c-1.4,0-2.5-1.1-2.5-2.5V24c0-1.4,1.1-2.5,2.5-2.5h0
			c1.4,0,2.5,1.1,2.5,2.5v2.8C38.3,28.2,37.1,29.3,35.8,29.3z"/>
		<g id="XMLID_9164_">
			<path id="XMLID_9165_" class="st26" d="M44.7,13.9c-2.5-0.7-4.6-2.5-5.6-5l-0.6-1.5c-2.4,3.2-5.9,5.4-9.8,6.1l-1.9,0.3
				c-1,0-1.8,0.8-1.8,1.8s0.8,1.8,1.8,1.8c0,0,0.1,0,0.1,0c0.6,4.3,4.4,7.6,8.9,7.6c4.5,0,8.2-3.3,8.9-7.6c0,0,0.1,0,0.1,0
				c1,0,1.8-0.8,1.8-1.8S45.7,13.9,44.7,13.9z"/>
		</g>
		<circle id="XMLID_9163_" class="st6" cx="31.1" cy="15.3" r="0.8"/>
		<circle id="XMLID_9162_" class="st6" cx="40.4" cy="15.3" r="0.8"/>
		<g id="XMLID_9158_">
			<g id="XMLID_9160_">
				<path id="XMLID_9161_" class="st7" d="M32.9,19.9c-0.1,0-0.2,0.1-0.3,0.2c-0.1,0.1-0.1,0.2-0.1,0.4c0.2,1.6,1.6,2.7,3.2,2.7
					c1.6,0,3-1.2,3.2-2.7c0-0.1,0-0.3-0.1-0.4c-0.1-0.1-0.2-0.2-0.3-0.2H32.9z"/>
			</g>
			<path id="XMLID_9159_" class="st8" d="M35.8,23.2c0.9,0,1.7-0.4,2.3-0.9c-0.6-0.6-1.4-0.9-2.3-0.9c-0.9,0-1.7,0.4-2.3,0.9
				C34,22.8,34.9,23.2,35.8,23.2z"/>
		</g>
		<g id="XMLID_9156_">
			<path id="XMLID_9157_" class="st2" d="M32.9,19.9c-0.1,0-0.2,0.1-0.3,0.2c-0.1,0.1-0.1,0.2-0.1,0.4c0.2,1.6,1.6,2.7,3.2,2.7
				c1.6,0,3-1.2,3.2-2.7c0-0.1,0-0.3-0.1-0.4c-0.1-0.1-0.2-0.2-0.3-0.2H32.9z"/>
		</g>
		<line id="XMLID_9155_" class="st2" x1="42.6" y1="47.5" x2="42.6" y2="36.7"/>
		<ellipse id="XMLID_9154_" class="st27" cx="29.9" cy="18.5" rx="1" ry="0.6"/>
		<ellipse id="XMLID_9153_" class="st27" cx="41.6" cy="18.5" rx="1" ry="0.6"/>
	</g>
	<g>
		<path id="XMLID_9063_" class="st22" d="M24,47.5c-1.3-3.6-4.8-6.1-8.8-6.1c-4,0-7.5,2.5-8.8,6.1H24z"/>
		<path id="XMLID_9062_" class="st23" d="M15.2,44.2c2.9,0,5.5,1.3,7.2,3.3H24c-1.3-3.6-4.8-6.1-8.8-6.1c-4,0-7.5,2.5-8.8,6.1H8
			C9.7,45.5,12.3,44.2,15.2,44.2z"/>
		<path id="XMLID_9061_" class="st2" d="M24,47.5c-1.3-3.6-4.8-6.1-8.8-6.1c-4,0-7.5,2.5-8.8,6.1H24z"/>
		<path id="XMLID_9060_" class="st28" d="M15.2,44.6L15.2,44.6c-1,0-1.9-0.8-1.9-1.9v-2.7c0-1,0.8-1.9,1.9-1.9h0
			c1,0,1.9,0.8,1.9,1.9v2.7C17,43.8,16.2,44.6,15.2,44.6z"/>
		<path id="XMLID_9059_" class="st27" d="M15.2,42.9L15.2,42.9c-1,0-1.9-0.8-1.9-1.9v-0.9c0-1,0.8-1.9,1.9-1.9h0
			c1,0,1.9,0.8,1.9,1.9V41C17,42,16.2,42.9,15.2,42.9z"/>
		<path id="XMLID_9058_" class="st2" d="M15.2,44.6L15.2,44.6c-1,0-1.9-0.8-1.9-1.9v-2.7c0-1,0.8-1.9,1.9-1.9h0c1,0,1.9,0.8,1.9,1.9
			v2.7C17,43.8,16.2,44.6,15.2,44.6z"/>
		<path id="XMLID_9057_" class="st1" d="M15.2,23.8c-0.6,0-1.2,0.1-1.8,0.2c-1.4,0.3-3.2,0.8-4.8,0.5c-0.2,1.5,0.6,2.4,0.6,2.4
			c-0.8,1.2-1.3,2.6-1.3,4.1v3.8h14.5V31C22.4,27,19.2,23.8,15.2,23.8z"/>
		<path id="XMLID_9056_" class="st25" d="M15.2,23.8c-0.6,0-1.2,0.1-1.8,0.2c-1.4,0.3-3.2,0.8-4.8,0.5c-0.1,1.4,0.5,2.2,0.6,2.4
			c1.4,0.1,3-0.3,4.2-0.6c0.6-0.1,1.2-0.2,1.8-0.2c4,0,7.3,3.2,7.3,7.3V31C22.4,27,19.2,23.8,15.2,23.8z"/>
		<path id="XMLID_9055_" class="st2" d="M15.2,23.8c-0.6,0-1.2,0.1-1.8,0.2c-1.4,0.3-3.2,0.8-4.8,0.5c-0.2,1.5,0.6,2.4,0.6,2.4
			c-0.8,1.2-1.3,2.6-1.3,4.1v3.8h14.5V31C22.4,27,19.2,23.8,15.2,23.8z"/>
		<path id="XMLID_9054_" class="st26" d="M8.2,33.1c-0.5,0.1-1,0.6-1,1.1c-0.1,0.8,0.6,1.5,1.3,1.5c0,0,0.1,0,0.1,0
			c0.5,3.2,3.3,5.7,6.6,5.7c3.4,0,6.1-2.5,6.6-5.7c0,0,0.1,0,0.1,0c0.8,0,1.4-0.7,1.3-1.5c0-0.6-0.5-1-1-1.1c-3-0.6-4.6-3.8-4.7-3.8
			C17.5,29.4,15,33.2,8.2,33.1z"/>
		<circle id="XMLID_9053_" class="st6" cx="12.2" cy="34.7" r="0.5"/>
		<circle id="XMLID_9052_" class="st6" cx="18.2" cy="34.7" r="0.5"/>
		<ellipse id="XMLID_9051_" class="st27" cx="10.8" cy="36.8" rx="0.6" ry="0.4"/>
		<ellipse id="XMLID_9050_" class="st27" cx="19.5" cy="36.8" rx="0.6" ry="0.4"/>
		<path id="XMLID_9049_" class="st2" d="M13.5,38.6c0,0,0.5,0.5,1.7,0.5s1.7-0.5,1.7-0.5"/>
	</g>
	<g>
		<path id="XMLID_8993_" class="st29" d="M22.9,41.2c0,0,0.9-0.8,1.6-2c0.8-1.4,2.7-1.7,3.5-0.5c0.7,1.1,0.3,2.4-1.5,3
			C24.5,42.5,22.9,41.2,22.9,41.2z"/>
		<path id="XMLID_8992_" class="st29" d="M42.7,41.2c0,0-0.9-0.8-1.6-2c-0.8-1.4-2.7-1.7-3.5-0.5c-0.7,1.1-0.3,2.4,1.5,3
			C41.1,42.5,42.7,41.2,42.7,41.2z"/>
		<path id="XMLID_8991_" class="st17" d="M41.6,47.5c-1.3-3.6-4.8-6.1-8.8-6.1c-4,0-7.5,2.5-8.8,6.1H41.6z"/>
		<path id="XMLID_8990_" class="st18" d="M32.8,44.2c2.9,0,5.5,1.3,7.2,3.3h1.6c-1.3-3.6-4.8-6.1-8.8-6.1c-4,0-7.5,2.5-8.8,6.1h1.6
			C27.4,45.5,29.9,44.2,32.8,44.2z"/>
		<path id="XMLID_8989_" class="st2" d="M41.6,47.5c-1.3-3.6-4.8-6.1-8.8-6.1c-4,0-7.5,2.5-8.8,6.1H41.6z"/>
		<path id="XMLID_8988_" class="st28" d="M32.8,44.6L32.8,44.6c-1,0-1.9-0.8-1.9-1.9v-2.7c0-1,0.8-1.9,1.9-1.9h0
			c1,0,1.9,0.8,1.9,1.9v2.7C34.7,43.8,33.8,44.6,32.8,44.6z"/>
		<path id="XMLID_8987_" class="st27" d="M32.8,42.9L32.8,42.9c-1,0-1.9-0.8-1.9-1.9v-0.9c0-1,0.8-1.9,1.9-1.9h0
			c1,0,1.9,0.8,1.9,1.9V41C34.7,42,33.8,42.9,32.8,42.9z"/>
		<path id="XMLID_8986_" class="st2" d="M32.8,44.6L32.8,44.6c-1,0-1.9-0.8-1.9-1.9v-2.7c0-1,0.8-1.9,1.9-1.9h0c1,0,1.9,0.8,1.9,1.9
			v2.7C34.7,43.8,33.8,44.6,32.8,44.6z"/>
		<path id="XMLID_8985_" class="st1" d="M32.8,23.8L32.8,23.8c-4,0-7.3,3.2-7.3,7.3v3.8h14.5V31C40.1,27,36.8,23.8,32.8,23.8z"/>
		<path id="XMLID_8984_" class="st25" d="M32.8,23.8c-4,0-7.3,3.2-7.3,7.3v2.3c0-4,3.2-7.3,7.3-7.3s7.3,3.2,7.3,7.3V31
			C40.1,27,36.8,23.8,32.8,23.8z"/>
		<path id="XMLID_8983_" class="st2" d="M32.8,23.8c-4,0-7.3,3.2-7.3,7.3v3.8h14.5V31C40.1,27,36.8,23.8,32.8,23.8z"/>
		<path class="st26" d="M40.8,34.3c0-0.6-0.5-1-1-1.1c-5.1,0-7-3.8-7-3.8c0,0.1-1.9,3.8-7,3.8c-0.5,0.1-1,0.6-1,1.1
			c-0.1,0.8,0.6,1.5,1.3,1.5c0,0,0.1,0,0.1,0c0.5,3.2,3.3,5.7,6.6,5.7s6.1-2.5,6.6-5.7c0,0,0.1,0,0.1,0
			C40.3,35.7,40.9,35.1,40.8,34.3z"/>
		<circle id="XMLID_8982_" class="st6" cx="29.8" cy="34.7" r="0.5"/>
		<circle id="XMLID_8981_" class="st6" cx="35.8" cy="34.7" r="0.5"/>
		<ellipse id="XMLID_8980_" class="st27" cx="28.5" cy="36.8" rx="0.6" ry="0.4"/>
		<ellipse id="XMLID_8979_" class="st27" cx="37.2" cy="36.8" rx="0.6" ry="0.4"/>
		<path id="XMLID_8978_" class="st2" d="M31.1,38.8c0,0,0.5,0.5,1.7,0.5c1.2,0,1.7-0.5,1.7-0.5"/>
	</g>
</g>
</svg>
