<svg height="512pt" viewBox="-62 0 512 512" width="512pt" xmlns="http://www.w3.org/2000/svg"><path d="m242.550781 456.558594h-97.175781l20-256.570313h57.175781zm0 0" fill="#8f95e6"/><g fill="#69ebfc"><path d="m197.964844 178.023438s-25.097656-54.78125 10.019531-92.703126c35.117187-37.925781-39.734375-73.796874-106.535156-22.472656-71.324219 54.792969-73.253907 144.25 71.417969 131.117188zm0 0"/><path d="m182.875 197.671875s-34.894531 49.121094-85.296875 37.671875c-50.398437-11.449219-44.039063 71.308594 33.808594 103.5 83.113281 34.367188 161.550781-8.6875 77.839843-127.410156zm0 0"/><path d="m207.433594 200.914062s59.988281 5.65625 75.273437 55.027344c15.285157 49.371094 83.773438 2.488282 72.730469-81.027344-11.796875-89.160156-88.300781-135.5625-149.261719-3.707031zm0 0"/></g><path d="m193.964844 0c-107.125 0-193.964844 86.839844-193.964844 193.964844s86.839844 193.964844 193.964844 193.964844 193.964844-86.839844 193.964844-193.964844c0-107.121094-86.839844-193.964844-193.964844-193.964844zm0 371.929688c-98.128906 0-177.964844-79.832032-177.964844-177.964844 0-98.128906 79.835938-177.964844 177.964844-177.964844s177.964844 79.835938 177.964844 177.964844-79.835938 177.964844-177.964844 177.964844zm0 0" fill="#6770e6"/><path d="m193.964844 6c106.121094 0 192.320312 85.226562 193.925781 190.964844.015625-1 .039063-1.996094.039063-3 0-107.125-86.839844-193.964844-193.964844-193.964844s-193.964844 86.839844-193.964844 193.964844c0 1.003906.0234375 2 .0390625 3 1.6015625-105.738282 87.8046875-190.964844 193.9257815-190.964844zm0 0" fill="#9fa6ff"/><path d="m373.191406 185.421875h-41.851562c-1.363282-22.121094-7.972656-42.832031-18.597656-60.929687l38.210937-22.058594c1.699219-.980469 2.28125-3.152344 1.300781-4.851563-.980468-1.699219-3.148437-2.277343-4.851562-1.296875l-38.410156 22.175782c-11.597657-17.609376-27.117188-32.402344-45.3125-43.136719l22.972656-39.789063c.980468-1.699218.398437-3.871094-1.296875-4.851562-1.703125-.980469-3.871094-.398438-4.851563 1.296875l-23.035156 39.898437c-18.027344-9.414062-38.378906-14.941406-59.953125-15.492187v-46.640625c0-1.960938-1.589844-3.550782-3.550781-3.550782-1.960938 0-3.550782 1.589844-3.550782 3.550782v46.640625c-21.574218.550781-41.929687 6.078125-59.953124 15.492187l-23.035157-39.898437c-.980469-1.695313-3.152343-2.277344-4.851562-1.296875-1.699219.980468-2.28125 3.152344-1.296875 4.851562l22.972656 39.789063c-18.199219 10.738281-33.71875 25.527343-45.316406 43.136719l-38.410156-22.175782c-1.699219-.980468-3.867188-.398437-4.847657 1.296875-.980469 1.699219-.398437 3.871094 1.296875 4.851563l38.210938 22.058594c-10.625 18.097656-17.234375 38.808593-18.59375 60.929687h-41.855469c-1.957031 0-3.546875 1.589844-3.546875 3.550781 0 1.960938 1.585938 3.550782 3.546875 3.550782h41.601563c-.007813.480468-.039063.957031-.039063 1.441406 0 22.246094 5.339844 43.257812 14.75 61.875l-34.074219 19.671875c-1.695312.976562-2.277344 3.148437-1.296875 4.847656.660157 1.136719 1.851563 1.777344 3.078125 1.777344.601563 0 1.210938-.15625 1.773438-.476563l33.886718-19.566406c11.109376 19.414062 26.792969 35.863281 45.589844 47.886719l-18.726562 32.429687c-.980469 1.699219-.398438 3.871094 1.296875 4.851563.5625.324219 1.171875.476562 1.773437.476562 1.226563 0 2.421875-.636719 3.078125-1.777343l18.652344-32.308594c19.082031 10.867187 40.992187 17.292968 64.335937 17.886718v36.660157c0 1.957031 1.589844 3.546875 3.550782 3.546875 1.964844 0 3.550781-1.585938 3.550781-3.546875v-36.660157c23.347656-.59375 45.253906-7.019531 64.339844-17.886718l18.652343 32.308594c.65625 1.140624 1.847657 1.777343 3.078126 1.777343.601562 0 1.210937-.152343 1.769531-.476562 1.699219-.980469 2.28125-3.152344 1.296875-4.851563l-18.722656-32.429687c18.796874-12.023438 34.480468-28.476563 45.585937-47.886719l33.886719 19.566406c.5625.324219 1.171875.476563 1.773437.476563 1.226563 0 2.421875-.636719 3.078125-1.777344.980469-1.699219.398438-3.871094-1.296875-4.847656l-34.070312-19.671875c9.410156-18.617188 14.746093-39.628906 14.746093-61.875 0-.484375-.03125-.960938-.035156-1.441406h41.597656c1.960938 0 3.550782-1.589844 3.550782-3.550782 0-1.960937-1.59375-3.550781-3.554688-3.550781zm-48.96875 0h-117.007812l99.386718-57.378906c10.015626 17.050781 16.265626 36.554687 17.621094 57.378906zm-21.378906-63.410156-99.183594 57.261719 56.46875-97.800782c17.125 10.105469 31.75 24.003906 42.714844 40.539063zm-48.929688-43.976563-56.398437 97.6875v-112.234375c20.285156.546875 39.421875 5.730469 56.398437 14.546875zm-63.5-14.546875v112.234375l-56.402343-97.6875c16.976562-8.816406 36.117187-14 56.402343-14.546875zm-62.617187 17.980469 56.46875 97.804688-99.179687-57.261719c10.964843-16.535157 25.589843-30.429688 42.710937-40.542969zm-46.46875 46.574219 99.386719 57.378906h-117.007813c1.351563-20.824219 7.605469-40.328125 17.621094-57.378906zm-17.933594 65.921875c0-.484375.035157-.960938.039063-1.441406h117.28125l-103.519532 59.765624c-8.808593-17.570312-13.800781-37.367187-13.800781-58.324218zm17.164063 64.582031 103.707031-59.875-60.714844 105.15625c-17.722656-11.394531-32.511719-26.945313-42.992187-45.28125zm49.066406 48.964844 60.789062-105.292969v122.222656c-22.054687-.59375-42.753906-6.667968-60.789062-16.929687zm67.890625 16.929687v-122.222656l60.785156 105.292969c-18.035156 10.261719-38.734375 16.339843-60.785156 16.929687zm66.859375-20.609375-60.714844-105.160156 103.710938 59.875c-10.484375 18.335937-25.273438 33.886719-42.996094 45.285156zm60.15625-109.867187c0 20.957031-4.988281 40.753906-13.800781 58.324218l-103.519531-59.765624h117.28125c.007812.480468.039062.957031.039062 1.441406zm0 0" fill="#8f95e6"/><path d="m242.0625 193.964844c0 26.5625-21.535156 48.097656-48.097656 48.097656-26.566406 0-48.097656-21.535156-48.097656-48.097656 0-26.566406 21.53125-48.097656 48.097656-48.097656 26.5625 0 48.097656 21.53125 48.097656 48.097656zm0 0" fill="#6770e6"/><path d="m193.964844 234.058594c-22.109375 0-40.097656-17.988282-40.097656-40.09375 0-22.109375 17.988281-40.09375 40.097656-40.09375 22.105468 0 40.09375 17.988281 40.09375 40.09375 0 22.109375-17.988282 40.09375-40.09375 40.09375zm0-73.089844c-18.195313 0-32.996094 14.800781-32.996094 32.996094 0 18.191406 14.800781 32.996094 32.996094 32.996094 18.191406 0 32.996094-14.804688 32.996094-32.996094 0-18.195313-14.804688-32.996094-32.996094-32.996094zm0 0" fill="#8f95e6"/><path d="m336.164062 502.292969h-284.402343c-3.527344 0-6.382813-2.855469-6.382813-6.382813v-9.441406c0-16.515625 13.390625-29.910156 29.910156-29.910156h237.347657c16.515625 0 29.910156 13.390625 29.910156 29.910156v9.441406c0 3.527344-2.855469 6.382813-6.382813 6.382813zm0 0" fill="#8f95e6"/><path d="m263.449219 477.566406h-140.65625c-2.679688 0-4.851563-2.171875-4.851563-4.847656 0-2.679688 2.171875-4.851562 4.851563-4.851562h140.65625c2.679687 0 4.851562 2.171874 4.851562 4.851562s-2.171875 4.847656-4.851562 4.847656zm0 0" fill="#6770e6"/><path d="m148.109375 452.257812h-16.394531c-2.371094 0-4.289063 1.921876-4.289063 4.289063v15.460937h24.972657v-15.460937c0-2.367187-1.917969-4.289063-4.289063-4.289063zm0 0" fill="#ff8354"/><path d="m184.144531 452.257812h-16.398437c-2.367188 0-4.289063 1.921876-4.289063 4.289063v15.460937h24.976563v-15.460937c0-2.367187-1.917969-4.289063-4.289063-4.289063zm0 0" fill="#69ebfc"/><path d="m220.179688 452.257812h-16.398438c-2.371094 0-4.289062 1.921876-4.289062 4.289063v15.460937h24.976562v-15.460937c0-2.367187-1.921875-4.289063-4.289062-4.289063zm0 0" fill="#69ebfc"/><path d="m256.210938 452.257812h-16.394532c-2.371094 0-4.289062 1.921876-4.289062 4.289063v15.460937h24.976562v-15.460937c0-2.367187-1.921875-4.289063-4.292968-4.289063zm0 0" fill="#69ebfc"/><path d="m98.703125 512h-23.984375c-1.558594 0-2.824219-1.265625-2.824219-2.820312v-6.886719h29.632813v6.886719c0 1.554687-1.265625 2.820312-2.824219 2.820312zm0 0" fill="#6770e6"/><path d="m313.210938 512h-23.988282c-1.558594 0-2.820312-1.265625-2.820312-2.820312v-6.886719h29.628906v6.886719c0 1.554687-1.261719 2.820312-2.820312 2.820312zm0 0" fill="#6770e6"/></svg>