<svg height="512pt" viewBox="0 -1 512 511" width="512pt" xmlns="http://www.w3.org/2000/svg"><path d="m48.277344 30.914062h415.441406v447.890626h-415.441406zm0 0" fill="#c0694e"/><path d="m30.410156 509.214844h451.179688c16.792968 0 30.410156-13.613282 30.410156-30.410156 0-16.792969-13.617188-30.410157-30.410156-30.410157h-451.179688c-16.792968 0-30.410156 13.617188-30.410156 30.410157 0 16.796874 13.617188 30.410156 30.410156 30.410156zm0 0" fill="#c97e67"/><path d="m511.996094 30.910156c0 8.390625-3.402344 16-8.90625 21.503906-5.496094 5.503907-13.101563 8.90625-21.503906 8.90625h-451.171876c-16.804687 0-30.41015575-13.617187-30.41015575-30.410156 0-8.390625 3.40234375-16 8.90624975-21.503906 5.328125-5.339844 12.648438-8.699219 20.761719-8.886719.246094-.019531.496094-.019531.742187-.019531h451.171876c13.824218 0 25.480468 9.214844 29.171874 21.84375.816407 2.710938 1.238282 5.585938 1.238282 8.566406zm0 0" fill="#c97e67"/><path d="m510.757812 22.34375c-.246093.019531-.492187.019531-.742187.019531h-451.171875c-13.824219 0-25.492188-9.214843-29.171875-21.84375.246094-.019531.496094-.019531.742187-.019531h451.171876c13.824218 0 25.480468 9.214844 29.171874 21.84375zm0 0" fill="#d29380"/><path d="m384.859375 311.886719v136.507812h-257.71875v-136.507812c0-71.171875 57.6875-128.859375 128.859375-128.859375 7.320312 0 14.503906.605468 21.492188 1.78125 26.96875 4.527344 51.101562 17.433594 69.625 35.957031 23.320312 23.320313 37.742187 55.535156 37.742187 91.121094zm0 0" fill="#7c3f2c"/><path d="m384.859375 311.886719v136.507812h-214.742187v-136.507812c0-63.855469 46.429687-116.851563 107.375-127.078125 26.96875 4.527344 51.101562 17.433594 69.625 35.957031 23.320312 23.320313 37.742187 55.535156 37.742187 91.121094zm0 0" fill="#954c35"/><path d="m436.402344 111.835938h-360.804688c-27.898437 0-50.511718-22.613282-50.511718-50.511719h461.828124c0 27.898437-22.613281 50.511719-50.511718 50.511719zm0 0" fill="#954c35"/><path d="m313.707031 448.394531h-128.828125c-8.691406-18.671875-12.617187-44.957031-11.152344-69.101562 2.089844-34.335938 12.441407-65.273438 23.214844-94.828125 1.265625-3.464844 4.257813-3.421875 5.484375.070312 3.082031 8.753906 6.164063 17.496094 9.257813 26.246094 4 11.371094 8.007812 22.753906 12.019531 34.113281 5.453125-8.414062 9.773437-18.875 12.597656-30.390625 1.03125-4.214844 4.566407-4.445312 5.78125-.371094 5.816407 19.503907 6.226563 43.585938.734375 63.410157 17.070313-22.617188 30.625-52.75 38.933594-86.59375 1.546875-6.300781 4.527344-14.132813 8.339844-11.917969 6.527344 3.730469 29.082031 68.347656 11.679687 132.714844 11.90625-9.699219 22.371094-24.359375 30.257813-42.277344 1.636718-3.699219 5.050781-2.515625 5.699218 1.96875 4.132813 28.761719-7.320312 61.792969-24.019531 76.957031zm0 0" fill="#f29500"/><path d="m313.707031 448.394531h-91.644531c-8.691406-32.804687-12.617188-78.976562-11.152344-121.398437.183594-5.453125.441406-10.851563.773438-16.214844 4 11.371094 8.007812 22.753906 12.019531 34.113281 5.453125-8.414062 9.773437-18.875 12.597656-30.390625 1.03125-4.214844 4.566407-4.445312 5.78125-.371094 5.816407 19.503907 6.226563 43.585938.734375 63.410157 17.070313-22.617188 30.625-52.75 38.933594-86.59375 1.546875-6.300781 4.527344-14.132813 8.339844-11.917969 6.527344 3.730469 29.082031 68.347656 11.679687 132.714844 11.90625-9.699219 22.371094-24.359375 30.257813-42.277344 1.636718-3.699219 5.050781-2.515625 5.699218 1.96875 4.132813 28.761719-7.320312 61.792969-24.019531 76.957031zm0 0" fill="#ffb52d"/><path d="m48.277344 140.972656h57.300781v42.460938h-57.300781zm0 0" fill="#7c3f2c"/><path d="m162.003906 183.433594h-56.425781v-42.460938h56.425781c.480469 0 .875.390625.875.875v40.714844c0 .480469-.394531.871094-.875.871094zm0 0" fill="#954c35"/><path d="m133.355469 225.898438h-55.550781c-.484376 0-.875-.390626-.875-.875v-41.589844h57.296874v41.589844c0 .484374-.390624.875-.871093.875zm0 0" fill="#ae583e"/><path d="m435.070312 194.640625h28.652344v42.464844h-28.652344zm0 0" fill="#954c35"/><path d="m385.734375 194.640625h49.335937v42.464844h-49.335937c-.484375 0-.875-.390625-.875-.875v-40.714844c0-.480469.390625-.875.875-.875zm0 0" fill="#ae583e"/><path d="m407.296875 152.179688h56.425781v42.460937h-56.425781c-.484375 0-.875-.390625-.875-.871094v-40.71875c0-.480469.390625-.871093.875-.871093zm0 0" fill="#7c3f2c"/><path d="m48.277344 363.519531h27.777344c.480468 0 .875.394531.875.875v40.714844c0 .484375-.394532.875-.875.875h-27.777344zm0 0" fill="#954c35"/><path d="m48.277344 405.929688h52.089844c.480468 0 .871093.394531.871093.875v40.714843c0 .484375-.390625.875-.871093.875h-52.089844zm0 0" fill="#7c3f2c"/><path d="m463.71875 448.394531h-27.773438c-.484374 0-.875-.390625-.875-.875v-41.589843h28.648438zm0 0" fill="#7c3f2c"/><path d="m463.71875 405.984375h-52.085938c-.480468 0-.875-.390625-.875-.875v-40.714844c0-.480469.394532-.875.875-.875h52.085938zm0 0" fill="#954c35"/></svg>