<svg width="11" height="10" viewBox="0 0 11 10" fill="none" xmlns="http://www.w3.org/2000/svg"><path fill-rule="evenodd" clip-rule="evenodd" d="M1.37616 3.58652e-07C0.785556 4.00846e-07 0.306778 0.44822 0.306778 1.00113C0.306778 1.55403 0.785556 2.00225 1.37616 2.00225L6.45868 2.00225L0.377524 7.69526C-0.0889665 8.13198 -0.128584 8.80294 0.289036 9.1939C0.706656 9.58487 1.42337 9.54778 1.88986 9.11106L8.0947 3.30227V8.29196C8.0947 8.84487 8.57348 9.29309 9.16408 9.29309C9.75468 9.29309 10.2335 8.84487 10.2335 8.29196V1.00113C10.2335 0.735611 10.1208 0.48097 9.92025 0.293223C9.7197 0.105476 9.4477 3.37554e-07 9.16408 0L1.37616 3.58652e-07Z" fill="#222222"></path></svg>