<?xml version="1.0" encoding="iso-8859-1"?>
<!-- Generator: Adobe Illustrator 19.0.0, SVG Export Plug-In . SVG Version: 6.00 Build 0)  -->
<svg version="1.1" id="Layer_1" xmlns="http://www.w3.org/2000/svg" xmlns:xlink="http://www.w3.org/1999/xlink" x="0px" y="0px"
	 viewBox="0 0 511.998 511.998" style="enable-background:new 0 0 511.998 511.998;" xml:space="preserve">
<path style="fill:#1566C0;" d="M486.601,127.87c0.051,32.139-12.915,62.937-35.937,85.362c-3.064,3.047-6.308,5.898-9.731,8.536
	c-3.551,2.791-7.256,5.386-11.097,7.768l-2.988,1.707c-18.114,10.619-38.754,16.193-59.753,16.133
	c-5.719,0.009-11.421-0.418-17.072-1.28c-15.066-2.083-29.578-7.128-42.681-14.853l-2.988-1.707
	c-3.841-2.382-7.546-4.977-11.097-7.768c-3.423-2.638-6.667-5.489-9.731-8.536c-47.162-46.172-47.965-121.837-1.793-168.999
	c18.344-18.737,42.339-30.918,68.289-34.674c5.659-0.785,11.362-1.187,17.072-1.195C433.096,8.363,486.601,61.868,486.601,127.87z"
	/>
<path style="fill:#2296F3;" d="M452.456,127.87c0.051,32.139-12.915,62.937-35.937,85.362c-3.064,3.047-6.308,5.898-9.731,8.536
	c-3.551,2.791-7.256,5.386-11.097,7.768l-2.988,1.707c-13.103,7.725-27.615,12.77-42.681,14.853
	c-15.066-2.083-29.578-7.128-42.681-14.853l-2.988-1.707c-3.841-2.382-7.546-4.977-11.097-7.768
	c-3.423-2.638-6.667-5.489-9.731-8.536c-47.162-46.172-47.965-121.837-1.793-168.999c18.344-18.737,42.339-30.918,68.289-34.674
	c39.633,5.719,73.761,30.91,90.91,67.094C448.546,92.65,452.49,110.149,452.456,127.87z"/>
<path style="fill:#2E7D32;" d="M281.732,211.439v223.733c0,18.856-15.288,34.145-34.145,34.145H59.792
	c-18.856,0-34.145-15.288-34.145-34.145V85.189c0-18.856,15.288-34.145,34.145-34.145h187.796c7.99,0.009,15.724,2.817,21.853,7.939
	c-1.451,2.049-2.817,4.183-4.183,6.317c-8.041,13.069-13.487,27.555-16.048,42.681c-1.118,6.573-1.665,13.223-1.622,19.889
	c-0.043,22.134,6.112,43.833,17.755,62.656c1.195,1.878,2.39,3.756,3.756,5.634C272.88,201.588,277.106,206.701,281.732,211.439z"/>
<path style="fill:#4CAF50;" d="M247.588,211.439v223.733c0,18.856-15.288,34.145-34.145,34.145H59.792
	c-18.856,0-34.145-15.288-34.145-34.145V85.189c0-18.856,15.288-34.145,34.145-34.145h153.651c7.99,0.009,15.724,2.817,21.853,7.939
	c-1.451,2.049-2.817,4.183-4.183,6.317c-8.041,13.069-13.487,27.555-16.048,42.681c-1.118,6.573-1.665,13.223-1.622,19.889
	c-0.043,22.134,6.112,43.833,17.755,62.656c1.195,1.878,2.39,3.756,3.756,5.634C238.736,201.588,242.961,206.701,247.588,211.439z"
	/>
<path d="M247.588,477.853H59.792c-23.568,0-42.681-19.112-42.681-42.681V85.189c0-23.568,19.113-42.681,42.681-42.681h187.796
	c9.987,0.009,19.65,3.508,27.316,9.902c3.372,2.86,4.003,7.828,1.451,11.438c-1.366,1.963-2.646,4.012-3.927,5.975
	c-7.435,12.19-12.446,25.694-14.768,39.779c-1.041,6.035-1.562,12.147-1.537,18.267c-0.034,20.53,5.677,40.666,16.475,58.131
	c1.024,1.707,2.134,3.414,3.414,5.122c3.551,5.105,7.52,9.902,11.865,14.341c1.528,1.579,2.382,3.696,2.39,5.89v223.819
	C290.268,458.741,271.156,477.853,247.588,477.853z M59.792,59.58c-14.144,0-25.609,11.464-25.609,25.609v349.983
	c0,14.144,11.464,25.609,25.609,25.609h187.796c14.144,0,25.609-11.464,25.609-25.609V214.853
	c-4.029-4.336-7.734-8.963-11.097-13.829c-1.366-1.793-2.646-3.841-3.927-5.89c-12.523-20.197-19.147-43.5-19.121-67.265
	c-0.043-7.034,0.529-14.059,1.707-20.999c2.766-16.031,8.562-31.379,17.072-45.242c-3.235-1.383-6.727-2.074-10.243-2.049
	L59.792,59.58L59.792,59.58z"/>
<g>
	<path style="fill:#2E7D32;" d="M59.792,469.317h42.681l0,0v17.072c0,9.432-7.64,17.072-17.072,17.072h-8.536
		c-9.432,0-17.072-7.64-17.072-17.072V469.317L59.792,469.317z"/>
	<path style="fill:#2E7D32;" d="M204.907,469.317h42.681l0,0v17.072c0,9.432-7.64,17.072-17.072,17.072h-8.536
		c-9.432,0-17.072-7.64-17.072-17.072V469.317L204.907,469.317z"/>
</g>
<path d="M85.4,511.998h-8.536c-14.144,0-25.609-11.464-25.609-25.609v-17.072c0-4.712,3.824-8.536,8.536-8.536h42.681
	c4.712,0,8.536,3.824,8.536,8.536v17.072C111.009,500.534,99.536,511.998,85.4,511.998z M68.328,477.853v8.536
	c0,4.712,3.824,8.536,8.536,8.536H85.4c4.712,0,8.536-3.824,8.536-8.536v-8.536H68.328z"/>
<path d="M230.515,511.998h-8.536c-14.144,0-25.609-11.464-25.609-25.609v-17.072c0-4.712,3.824-8.536,8.536-8.536h42.681
	c4.712,0,8.536,3.824,8.536,8.536v17.072C256.124,500.534,244.651,511.998,230.515,511.998z M213.443,477.853v8.536
	c0,4.712,3.824,8.536,8.536,8.536h8.536c4.712,0,8.536-3.824,8.536-8.536v-8.536H213.443z"/>
<path d="M269.099,204.695H25.647c-4.712,0-8.536-3.824-8.536-8.536c0-4.712,3.824-8.536,8.536-8.536h243.452
	c4.712,0,8.536,3.824,8.536,8.536C277.635,200.871,273.811,204.695,269.099,204.695z"/>
<path d="M59.792,290.057c-4.712,0-8.536-3.824-8.536-8.536v-51.217c0-4.712,3.824-8.536,8.536-8.536s8.536,3.824,8.536,8.536v51.217
	C68.328,286.233,64.504,290.057,59.792,290.057z"/>
<path d="M59.792,170.551c-4.712,0-8.536-3.824-8.536-8.536v-51.217c0-4.712,3.824-8.536,8.536-8.536s8.536,3.824,8.536,8.536v51.217
	C68.328,166.727,64.504,170.551,59.792,170.551z"/>
<path d="M367.094,255.912c-28.716,0.085-56.612-9.569-79.13-27.401c-4.379-3.406-8.511-7.119-12.377-11.097
	c-4.968-5.079-9.509-10.559-13.573-16.389c-1.366-1.793-2.646-3.841-3.927-5.89C245.599,174.93,239,151.626,239.051,127.87
	c-0.043-7.034,0.529-14.059,1.707-20.999c2.672-16.296,8.468-31.917,17.072-46.01c1.537-2.39,2.988-4.61,4.524-6.829
	c40.88-57.705,120.795-71.337,178.5-30.457s71.337,120.795,30.457,178.5c-7.059,9.962-15.51,18.873-25.088,26.445
	C423.706,246.343,395.81,256.006,367.094,255.912z M367.094,16.899c-36.065,0.017-69.877,17.559-90.654,47.034
	c-1.366,1.963-2.646,4.012-3.927,5.975c-7.435,12.19-12.446,25.694-14.768,39.779c-1.067,6.001-1.613,12.087-1.622,18.182
	c-0.034,20.53,5.677,40.666,16.475,58.131c1.024,1.707,2.134,3.414,3.414,5.122c3.551,5.105,7.52,9.902,11.865,14.341
	c3.406,3.44,7.059,6.641,10.926,9.561c48.306,37.713,118.047,29.125,155.76-19.181c15.16-19.42,23.432-43.338,23.5-67.974
	C478.064,66.58,428.375,16.899,367.094,16.899z"/>
<path d="M367.094,221.768c-4.712,0-8.536-3.824-8.536-8.536V42.508c0-4.712,3.824-8.536,8.536-8.536
	c4.712,0,8.536,3.824,8.536,8.536v170.724C375.63,217.944,371.806,221.768,367.094,221.768z"/>
<path d="M367.094,76.653c-1.673-0.017-3.304-0.521-4.695-1.451l-25.609-17.072c-3.764-2.834-4.524-8.186-1.69-11.951
	c2.612-3.474,7.426-4.43,11.165-2.219l25.609,17.072c3.91,2.629,4.951,7.93,2.322,11.848
	C372.608,75.244,369.937,76.661,367.094,76.653z"/>
<path d="M367.094,76.653c-4.712,0.009-8.545-3.799-8.553-8.519c-0.009-2.851,1.408-5.514,3.773-7.102l25.609-17.072
	c4.055-2.399,9.296-1.058,11.695,3.005c2.211,3.747,1.255,8.553-2.219,11.165l-25.609,17.072
	C370.398,76.132,368.767,76.636,367.094,76.653z"/>
<path d="M341.486,213.232c-4.712,0.009-8.545-3.799-8.553-8.519c-0.009-2.851,1.408-5.514,3.773-7.102l25.609-17.072
	c3.764-2.834,9.117-2.074,11.951,1.69c2.834,3.764,2.074,9.117-1.69,11.951c-0.256,0.188-0.512,0.367-0.785,0.529L346.18,211.78
	C344.789,212.711,343.159,213.215,341.486,213.232z"/>
<path d="M392.703,213.232c-1.673-0.017-3.303-0.521-4.695-1.451l-25.609-17.072c-3.764-2.834-4.524-8.186-1.69-11.951
	c2.612-3.474,7.426-4.43,11.165-2.219l25.609,17.072c3.91,2.629,4.951,7.93,2.322,11.848
	C398.217,211.823,395.545,213.24,392.703,213.232z"/>
<path d="M452.456,136.406H281.732c-4.712,0-8.536-3.824-8.536-8.536c0-4.712,3.824-8.536,8.536-8.536h170.724
	c4.712,0,8.536,3.824,8.536,8.536C460.992,132.582,457.168,136.406,452.456,136.406z"/>
<path d="M290.268,162.015c-4.712-0.026-8.519-3.867-8.493-8.579c0.009-1.656,0.495-3.269,1.408-4.652l17.072-25.609
	c2.834-3.764,8.186-4.524,11.951-1.69c3.474,2.612,4.43,7.426,2.219,11.165l-17.072,25.609
	C295.757,160.615,293.102,162.015,290.268,162.015z"/>
<path d="M307.341,136.406c-2.86-0.017-5.514-1.46-7.085-3.841l-17.072-25.609c-2.399-4.055-1.05-9.296,3.005-11.695
	c3.747-2.211,8.553-1.255,11.165,2.219l17.072,25.609c2.638,3.91,1.613,9.211-2.288,11.848
	C310.713,135.902,309.048,136.406,307.341,136.406z"/>
<path d="M443.92,162.015c-2.86-0.017-5.514-1.46-7.085-3.841l-17.072-25.609c-2.399-4.055-1.05-9.296,3.005-11.695
	c3.747-2.211,8.553-1.255,11.165,2.219l17.072,25.609c2.638,3.91,1.613,9.211-2.288,11.848
	C447.291,161.511,445.627,162.015,443.92,162.015z"/>
<path d="M426.847,136.406c-4.712-0.026-8.519-3.867-8.493-8.579c0.009-1.656,0.495-3.269,1.408-4.652l17.072-25.609
	c2.834-3.764,8.186-4.524,11.951-1.69c3.474,2.612,4.43,7.426,2.219,11.165l-17.072,25.609
	C432.336,135.006,429.681,136.406,426.847,136.406z"/>
<path d="M409.775,179.087c-2.271,0.017-4.447-0.879-6.061-2.475L318.353,91.25c-3.065-3.577-2.646-8.972,0.93-12.036
	c3.193-2.74,7.913-2.74,11.106,0l85.362,85.362c3.303,3.363,3.244,8.767-0.12,12.07C414.06,178.182,411.96,179.053,409.775,179.087z
	"/>
<path d="M324.413,179.087c-4.712,0.026-8.562-3.773-8.587-8.485c-0.017-2.296,0.896-4.499,2.527-6.112l85.362-85.362
	c3.577-3.064,8.971-2.646,12.036,0.93c2.74,3.193,2.74,7.913,0,11.106l-85.362,85.362
	C328.809,178.131,326.658,179.053,324.413,179.087z"/>
<g>
</g>
<g>
</g>
<g>
</g>
<g>
</g>
<g>
</g>
<g>
</g>
<g>
</g>
<g>
</g>
<g>
</g>
<g>
</g>
<g>
</g>
<g>
</g>
<g>
</g>
<g>
</g>
<g>
</g>
</svg>
