<?xml version="1.0" encoding="iso-8859-1"?>
<!-- Generator: Adobe Illustrator 19.0.0, SVG Export Plug-In . SVG Version: 6.00 Build 0)  -->
<svg version="1.1" id="Capa_1" xmlns="http://www.w3.org/2000/svg" xmlns:xlink="http://www.w3.org/1999/xlink" x="0px" y="0px"
	 viewBox="0 0 512.002 512.002" style="enable-background:new 0 0 512.002 512.002;" xml:space="preserve">
<rect x="84.411" y="70.751" style="fill:#FF6D3A;" width="56.828" height="117.732"/>
<rect x="114.211" y="70.751" style="fill:#ED5729;" width="27.03" height="117.732"/>
<path style="fill:#FF4C4C;" d="M150.527,83.227H75.114c-1.365,0-2.471-1.106-2.471-2.471V60.485c0-1.365,1.106-2.471,2.471-2.471
	h75.413c1.365,0,2.471,1.106,2.471,2.471v20.271C152.998,82.121,151.892,83.227,150.527,83.227z"/>
<polygon style="fill:#FFB123;" points="256,38.007 75.326,220.157 75.326,486.049 436.672,486.049 436.672,220.157 "/>
<polygon style="fill:#FF901D;" points="256,38.007 232.972,61.222 390.62,220.157 390.62,486.049 436.672,486.049 436.672,220.157 
	"/>
<path style="fill:#FF4C4C;" d="M247.61,10.995L29.279,231.111c-6.086,6.135-6.05,16.041,0.079,22.133l0,0
	c6.138,6.1,16.06,6.065,22.154-0.079L249.576,53.484c3.539-3.568,9.309-3.568,12.848,0l198.062,199.681
	c6.094,6.144,16.017,6.179,22.154,0.079l0,0c6.129-6.092,6.165-15.997,0.079-22.133L264.389,10.995
	C259.767,6.335,252.233,6.335,247.61,10.995z"/>
<path style="fill:#FF6D3A;" d="M290.756,315.05h-69.514c-6.239,0-11.296,5.057-11.296,11.296v159.703h92.106V326.346
	C302.052,320.107,296.995,315.05,290.756,315.05z"/>
<g>
	<path style="fill:#FFFFFF;" d="M178.766,185.916l75.961-76.582c0.7-0.706,1.842-0.706,2.543,0l75.961,76.582
		c1.121,1.13,0.32,3.052-1.271,3.052H180.038C178.446,188.967,177.645,187.046,178.766,185.916z"/>
	<path style="fill:#FFFFFF;" d="M386.874,395.002h-44.666c-1.927,0-3.489-1.562-3.489-3.489v-55.832
		c0-1.927,1.562-3.489,3.489-3.489h44.666c1.927,0,3.489,1.562,3.489,3.489v55.832C390.363,393.44,388.801,395.002,386.874,395.002z
		"/>
	<path style="fill:#FFFFFF;" d="M169.791,395.002h-44.666c-1.927,0-3.489-1.562-3.489-3.489v-55.832
		c0-1.927,1.562-3.489,3.489-3.489h44.666c1.927,0,3.489,1.562,3.489,3.489v55.832C173.28,393.44,171.718,395.002,169.791,395.002z"
		/>
</g>
<g>
	<path style="fill:#B6FA4D;" d="M468.317,486.049c1.392-26.961-17.421-42.829-37.072-42.829c-1.452,0-2.883,0.089-4.29,0.257
		c-8.197-11.503-21.645-19.004-36.846-19.004c-19.968,0-36.913,12.946-42.9,30.902c-10.731,3.183-21.112,11.718-19.922,30.673
		H468.317z"/>
	<path style="fill:#B6FA4D;" d="M43.682,486.049c-1.392-26.961,17.421-42.829,37.072-42.829c1.452,0,2.883,0.089,4.29,0.257
		c8.197-11.503,21.645-19.004,36.846-19.004c19.968,0,36.913,12.946,42.9,30.902c10.731,3.183,21.112,11.718,19.922,30.673H43.682z"
		/>
</g>
<g>
	<path style="fill:#E1EFFB;" d="M169.791,332.191h-22.332v62.811h22.332c1.927,0,3.489-1.562,3.489-3.489v-55.832
		C173.28,333.754,171.718,332.191,169.791,332.191z"/>
	<path style="fill:#E1EFFB;" d="M386.874,332.191h-22.332v62.811h22.332c1.927,0,3.49-1.562,3.49-3.489v-55.832
		C390.363,333.754,388.801,332.191,386.874,332.191z"/>
</g>
<path style="fill:#77DD00;" d="M475.64,478.501H36.359c-7.179,0-12.999,5.82-12.999,12.999l0,0c0,7.179,5.82,12.999,12.999,12.999
	h439.282c7.179,0,12.999-5.82,12.999-12.999l0,0C488.639,484.322,482.819,478.501,475.64,478.501z"/>
<path style="fill:#6EC102;" d="M486.19,499.076c0.117-0.162,0.233-0.324,0.342-0.492c0.111-0.17,0.214-0.346,0.317-0.522
	c0.103-0.175,0.206-0.349,0.301-0.529c0.094-0.18,0.179-0.365,0.265-0.55c0.087-0.186,0.176-0.369,0.254-0.56
	c0.077-0.189,0.143-0.384,0.211-0.577c0.069-0.195,0.143-0.388,0.203-0.587c0.06-0.198,0.105-0.401,0.155-0.603
	c0.051-0.202,0.108-0.402,0.149-0.608c0.043-0.214,0.068-0.435,0.1-0.653c0.029-0.2,0.068-0.397,0.088-0.6l0,0l0,0
	c0.042-0.426,0.065-0.858,0.065-1.295c0-0.352-0.038-0.694-0.065-1.038v-0.257c-0.006-0.065-0.021-0.128-0.028-0.193
	c-0.018-0.161-0.046-0.318-0.07-0.476c-0.051-0.336-0.114-0.667-0.19-0.994c-0.037-0.16-0.074-0.319-0.117-0.477
	c-0.106-0.388-0.23-0.769-0.37-1.142c-0.027-0.071-0.046-0.145-0.074-0.215c-0.172-0.434-0.372-0.854-0.589-1.263
	c-0.023-0.042-0.038-0.089-0.061-0.131c-0.002,0.004-0.005,0.008-0.007,0.012c-2.198-4.06-6.486-6.823-11.428-6.823h-33.055l0,0
	c0,7.524-6.099,13.624-13.624,13.624H36.359c-4.939,0-9.234-2.755-11.434-6.812c-1.149,2.12-1.727,4.595-1.525,7.218
	c0.527,6.831,6.499,11.969,13.35,11.969h405.836h33.055c0.436,0,0.866-0.023,1.291-0.065c0.142-0.014,0.28-0.042,0.421-0.06
	c0.279-0.037,0.559-0.073,0.833-0.127c0.166-0.033,0.327-0.079,0.49-0.118c0.242-0.058,0.485-0.114,0.721-0.185
	c0.172-0.052,0.337-0.115,0.506-0.173c0.221-0.077,0.442-0.152,0.657-0.24c0.17-0.07,0.335-0.149,0.502-0.226
	c0.204-0.094,0.408-0.188,0.606-0.292c0.166-0.087,0.327-0.182,0.489-0.276c0.189-0.11,0.376-0.221,0.559-0.34
	c0.16-0.104,0.315-0.213,0.469-0.324c0.174-0.125,0.346-0.251,0.513-0.384c0.151-0.12,0.298-0.243,0.443-0.369
	c0.159-0.138,0.315-0.279,0.467-0.425c0.141-0.135,0.279-0.272,0.414-0.412c0.144-0.15,0.282-0.304,0.419-0.461
	c0.13-0.149,0.257-0.298,0.38-0.453C485.948,499.409,486.07,499.243,486.19,499.076z"/>
<path d="M475.641,471.001h-1.116c-3.8-16.357-15.33-28.783-30.352-33.36V247.367l10.988,11.078
	c4.359,4.396,10.169,6.828,16.359,6.851c0.028,0,0.057,0,0.085,0c6.158,0,11.952-2.389,16.322-6.732
	c9.049-8.992,9.102-23.678,0.117-32.734l-51.831-52.255c-2.918-2.941-7.667-2.96-10.606-0.044
	c-2.941,2.917-2.961,7.666-0.044,10.606l51.832,52.256c3.165,3.19,3.146,8.363-0.042,11.531c-1.539,1.529-3.58,2.371-5.749,2.371
	c-0.01,0-0.021,0-0.03,0c-2.181-0.008-4.228-0.865-5.763-2.413l-40.707-41.04L267.749,48.202c-2.569-2.59-5.844-4.206-9.391-4.709
	c-0.776-0.11-1.56-0.186-2.358-0.186c-0.556,0-1.107,0.027-1.653,0.081c-3.82,0.376-7.357,2.052-10.096,4.814L85.725,208.023
	l-39.537,39.86c-1.536,1.549-3.582,2.405-5.763,2.413c-0.01,0-0.02,0-0.03,0c-2.169,0-4.211-0.842-5.75-2.371
	c-3.188-3.168-3.207-8.341-0.042-11.532L252.936,16.276c0.816-0.823,1.904-1.276,3.063-1.276c1.159,0,2.247,0.453,3.063,1.276
	l133.67,134.762c2.918,2.941,7.666,2.96,10.606,0.044c2.941-2.917,2.961-7.666,0.044-10.606L269.714,5.714
	C266.059,2.029,261.189,0,256,0c-5.189,0-10.059,2.029-13.713,5.714l-93.551,94.315v-9.302h1.793c5.498,0,9.971-4.474,9.971-9.972
	v-20.27c0-5.498-4.473-9.972-9.971-9.972H75.114c-5.498,0-9.971,4.474-9.971,9.972v20.271c0,5.498,4.473,9.972,9.971,9.972h1.793
	v81.715L23.954,225.83c-8.984,9.058-8.932,23.741,0.117,32.736c4.371,4.343,10.164,6.731,16.322,6.731c0.028,0,0.057,0,0.085,0
	c6.19-0.022,12-2.454,16.359-6.85l10.988-11.078v92.929c0,4.143,3.358,7.5,7.5,7.5c4.142,0,7.5-3.357,7.5-7.5V232.246
	l172.075-173.48c0.375-0.378,0.805-0.458,1.099-0.458c0.294,0,0.724,0.08,1.099,0.458L390.37,193.125l38.803,39.121v202.05
	c-0.114-0.125-0.236-0.242-0.351-0.366c-0.301-0.326-0.61-0.643-0.919-0.96c-0.348-0.357-0.697-0.712-1.053-1.058
	c-0.319-0.31-0.644-0.612-0.97-0.913c-0.363-0.335-0.729-0.667-1.101-0.991c-0.335-0.293-0.675-0.579-1.018-0.862
	c-0.378-0.313-0.759-0.622-1.146-0.924c-0.351-0.274-0.704-0.543-1.062-0.809c-0.393-0.292-0.789-0.577-1.189-0.858
	c-0.364-0.255-0.73-0.506-1.101-0.752c-0.407-0.27-0.819-0.533-1.233-0.792c-0.376-0.235-0.753-0.467-1.135-0.692
	c-0.421-0.249-0.847-0.489-1.275-0.725c-0.387-0.214-0.774-0.427-1.166-0.631c-0.435-0.227-0.875-0.443-1.316-0.657
	c-0.396-0.192-0.791-0.385-1.191-0.567c-0.449-0.205-0.903-0.397-1.358-0.59c-0.403-0.17-0.805-0.342-1.213-0.503
	c-0.463-0.182-0.932-0.351-1.401-0.52c-0.407-0.147-0.813-0.298-1.225-0.435c-0.48-0.16-0.966-0.305-1.451-0.451
	c-0.408-0.123-0.814-0.251-1.226-0.365c-0.499-0.137-1.003-0.257-1.506-0.38c-0.406-0.099-0.809-0.205-1.217-0.294
	c-0.521-0.114-1.047-0.209-1.572-0.307c-0.397-0.075-0.792-0.158-1.192-0.223c-0.553-0.091-1.112-0.159-1.669-0.232
	c-0.377-0.049-0.751-0.109-1.129-0.151c-0.623-0.068-1.25-0.111-1.876-0.156c-0.318-0.023-0.633-0.059-0.952-0.076
	c-0.947-0.052-1.897-0.079-2.851-0.079c-4.693,0-9.275,0.617-13.653,1.787c-15.638,4.177-28.69,15.395-35.033,30.686
	c-0.713,0.283-1.406,0.588-2.087,0.905c-0.198,0.092-0.389,0.191-0.584,0.286c-0.476,0.232-0.947,0.469-1.407,0.718
	c-0.225,0.122-0.447,0.247-0.668,0.372c-0.426,0.242-0.845,0.491-1.256,0.747c-0.211,0.132-0.423,0.263-0.631,0.398
	c-0.438,0.286-0.864,0.583-1.284,0.885c-0.158,0.114-0.321,0.224-0.477,0.34c-0.57,0.426-1.125,0.865-1.66,1.322
	c-0.056,0.048-0.108,0.1-0.164,0.148c-0.473,0.409-0.932,0.83-1.377,1.263c-0.159,0.155-0.311,0.315-0.466,0.473
	c-0.335,0.34-0.664,0.685-0.983,1.039c-0.165,0.184-0.327,0.369-0.488,0.557c-0.302,0.352-0.596,0.712-0.882,1.077
	c-0.146,0.186-0.293,0.37-0.435,0.56c-0.315,0.421-0.617,0.853-0.911,1.291c-0.094,0.139-0.193,0.274-0.285,0.415
	c-0.38,0.585-0.743,1.184-1.086,1.797c-0.064,0.115-0.121,0.235-0.184,0.35c-0.272,0.5-0.535,1.008-0.782,1.526
	c-0.101,0.211-0.195,0.427-0.292,0.641c-0.198,0.438-0.389,0.881-0.57,1.331c-0.096,0.238-0.189,0.477-0.279,0.719
	c-0.171,0.455-0.332,0.917-0.485,1.384c-0.076,0.232-0.156,0.462-0.228,0.697c-0.033,0.106-0.071,0.208-0.103,0.315h-11.813v-144.66
	c0-10.364-8.432-18.796-18.796-18.796h-69.515c-10.364,0-18.796,8.432-18.796,18.796v144.655h-11.814
	c-0.03-0.102-0.067-0.199-0.098-0.301c-0.077-0.25-0.161-0.495-0.242-0.742c-0.148-0.448-0.303-0.893-0.467-1.331
	c-0.096-0.256-0.195-0.511-0.297-0.763c-0.173-0.43-0.356-0.853-0.545-1.271c-0.105-0.233-0.207-0.468-0.317-0.698
	c-0.232-0.483-0.477-0.957-0.73-1.424c-0.08-0.148-0.153-0.302-0.236-0.448c-0.338-0.603-0.694-1.191-1.068-1.766
	c-0.109-0.168-0.228-0.33-0.34-0.496c-0.276-0.408-0.558-0.813-0.852-1.207c-0.154-0.206-0.314-0.407-0.473-0.609
	c-0.273-0.347-0.552-0.69-0.84-1.025c-0.172-0.201-0.345-0.4-0.522-0.596c-0.303-0.336-0.616-0.664-0.935-0.988
	c-0.17-0.173-0.337-0.349-0.512-0.519c-0.416-0.404-0.846-0.796-1.286-1.18c-0.085-0.074-0.166-0.154-0.252-0.227
	c-0.528-0.45-1.075-0.883-1.636-1.303c-0.175-0.131-0.359-0.255-0.537-0.383c-0.4-0.287-0.804-0.569-1.22-0.841
	c-0.222-0.145-0.449-0.285-0.675-0.426c-0.395-0.246-0.797-0.485-1.206-0.717c-0.235-0.134-0.47-0.266-0.709-0.396
	c-0.441-0.238-0.891-0.465-1.347-0.687c-0.214-0.104-0.424-0.213-0.641-0.314c-0.676-0.314-1.364-0.616-2.072-0.898
	c-8.119-19.572-27.23-32.474-48.687-32.474c-0.954,0-1.904,0.028-2.851,0.079c-0.321,0.018-0.639,0.053-0.959,0.077
	c-0.624,0.045-1.248,0.088-1.868,0.156c-0.381,0.042-0.759,0.102-1.139,0.152c-0.554,0.073-1.109,0.141-1.66,0.231
	c-0.403,0.066-0.801,0.15-1.202,0.225c-0.521,0.098-1.043,0.192-1.561,0.305c-0.414,0.091-0.823,0.198-1.234,0.299
	c-0.497,0.122-0.995,0.24-1.488,0.376c-0.418,0.115-0.83,0.245-1.244,0.371c-0.479,0.145-0.958,0.287-1.432,0.446
	c-0.417,0.139-0.828,0.292-1.242,0.441c-0.463,0.167-0.925,0.333-1.383,0.513c-0.414,0.163-0.822,0.338-1.232,0.511
	c-0.448,0.189-0.895,0.379-1.337,0.58c-0.408,0.186-0.81,0.382-1.212,0.578c-0.434,0.211-0.867,0.424-1.295,0.647
	c-0.399,0.208-0.793,0.424-1.186,0.642c-0.421,0.233-0.841,0.469-1.255,0.714c-0.388,0.229-0.771,0.465-1.154,0.704
	c-0.408,0.255-0.812,0.513-1.213,0.779c-0.377,0.25-0.749,0.505-1.119,0.765c-0.394,0.276-0.784,0.557-1.17,0.844
	c-0.363,0.27-0.723,0.543-1.079,0.822c-0.38,0.298-0.756,0.602-1.128,0.91c-0.347,0.288-0.692,0.578-1.032,0.875
	c-0.367,0.32-0.728,0.648-1.087,0.979c-0.33,0.305-0.659,0.611-0.982,0.924c-0.353,0.343-0.698,0.693-1.042,1.046
	c-0.313,0.321-0.625,0.642-0.93,0.972c-0.114,0.123-0.234,0.239-0.347,0.363v-47.397c0-4.143-3.358-7.5-7.5-7.5
	c-4.142,0-7.5,3.357-7.5,7.5v50.711c-15.046,4.555-26.558,17.018-30.353,33.392H36.36c-11.303,0-20.499,9.195-20.499,20.499
	c0,11.304,9.196,20.499,20.499,20.499h439.282c11.304,0,20.499-9.195,20.499-20.499
	C496.141,480.199,486.944,471.001,475.641,471.001z M133.734,115.151L97.29,151.893l-5.383,5.427V90.728h41.827V115.151z
	 M80.143,65.514h65.355v10.214h-4.264H84.407h-4.264V65.514z M337.656,470.976c0.277-0.458,0.576-0.897,0.892-1.323
	c0.092-0.125,0.192-0.243,0.288-0.365c0.235-0.3,0.478-0.594,0.732-0.877c0.123-0.137,0.25-0.272,0.377-0.405
	c0.256-0.268,0.523-0.526,0.798-0.779c0.126-0.116,0.25-0.234,0.38-0.347c0.375-0.325,0.765-0.638,1.173-0.936
	c0.035-0.026,0.067-0.054,0.102-0.08c0.446-0.321,0.915-0.623,1.4-0.912c0.145-0.086,0.297-0.167,0.445-0.25
	c0.354-0.199,0.715-0.392,1.088-0.576c0.18-0.089,0.363-0.175,0.548-0.26c0.378-0.174,0.767-0.338,1.163-0.496
	c0.174-0.069,0.345-0.141,0.523-0.208c0.575-0.214,1.164-0.417,1.777-0.598c2.348-0.696,4.208-2.495,4.982-4.818
	c5.14-15.416,19.52-25.773,35.784-25.773c12.172,0,23.662,5.928,30.736,15.856c1.592,2.232,4.271,3.421,6.997,3.095
	c0.614-0.073,1.228-0.124,1.842-0.157c0.169-0.009,0.336-0.009,0.505-0.015c0.432-0.016,0.864-0.026,1.295-0.023
	c0.395,0.003,0.792,0.023,1.189,0.043c0.255,0.013,0.51,0.018,0.765,0.038c0.632,0.049,1.265,0.116,1.9,0.208
	c0.016,0.002,0.032,0.003,0.048,0.006c9.716,1.417,19.582,7.839,23.614,19.978H337.642
	C337.647,470.993,337.651,470.985,337.656,470.976z M217.446,326.346c0-2.093,1.703-3.796,3.796-3.796h69.515
	c2.093,0,3.796,1.703,3.796,3.796v144.655h-77.106L217.446,326.346L217.446,326.346z M76.616,451.022c0.003,0,0.005,0,0.008-0.001
	c0.647-0.094,1.293-0.162,1.937-0.212c0.254-0.019,0.509-0.025,0.763-0.038c0.398-0.02,0.795-0.04,1.19-0.043
	c0.431-0.003,0.863,0.007,1.295,0.023c0.169,0.006,0.336,0.006,0.505,0.015c0.614,0.034,1.228,0.084,1.841,0.157
	c2.723,0.32,5.406-0.861,6.997-3.095c7.075-9.929,18.565-15.856,30.737-15.856c16.263,0,30.644,10.357,35.785,25.773
	c0.194,0.581,0.455,1.129,0.775,1.635c0.96,1.519,2.446,2.661,4.207,3.183c0.614,0.182,1.204,0.385,1.78,0.599
	c0.175,0.065,0.343,0.136,0.515,0.205c0.4,0.159,0.792,0.324,1.172,0.499c0.183,0.084,0.363,0.169,0.542,0.257
	c0.375,0.185,0.739,0.379,1.095,0.58c0.146,0.083,0.296,0.162,0.439,0.247c0.485,0.29,0.956,0.592,1.403,0.914
	c0.032,0.023,0.06,0.048,0.092,0.071c0.412,0.3,0.805,0.616,1.183,0.944c0.13,0.112,0.252,0.23,0.378,0.345
	c0.275,0.253,0.543,0.512,0.799,0.78c0.128,0.133,0.254,0.268,0.377,0.405c0.254,0.283,0.496,0.576,0.731,0.875
	c0.096,0.123,0.197,0.242,0.29,0.367c0.315,0.426,0.614,0.864,0.89,1.321c0.005,0.009,0.009,0.018,0.015,0.026H52.997
	C57.03,458.861,66.899,452.438,76.616,451.022z M475.641,497H36.359c-3.032,0-5.499-2.467-5.499-5.499
	c0-3.032,2.467-5.499,5.499-5.499h7.478h140.696h25.413h92.106h25.412h140.696h7.479c3.032,0,5.499,2.467,5.499,5.499
	C481.14,494.533,478.673,497,475.641,497z"/>
<path d="M331.219,335.681v55.832c0,6.06,4.93,10.989,10.989,10.989h44.666c6.06,0,10.989-4.93,10.989-10.989v-55.832
	c0-6.06-4.93-10.989-10.989-10.989h-44.666C336.148,324.692,331.219,329.621,331.219,335.681z M346.219,339.692h36.645v47.811
	h-36.645V339.692z"/>
<path d="M125.126,324.692c-6.06,0-10.989,4.93-10.989,10.989v55.832c0,6.06,4.93,10.989,10.989,10.989h44.666
	c6.06,0,10.989-4.93,10.989-10.989v-55.832c0-6.06-4.93-10.989-10.989-10.989H125.126z M165.78,387.502h-36.645v-47.811h36.645
	V387.502z"/>
<path d="M311.682,153.54c-0.009-0.009-0.018-0.019-0.028-0.028l-49.057-49.458c-1.758-1.774-4.102-2.751-6.599-2.751
	s-4.841,0.977-6.596,2.749l-49.06,49.461c-0.008,0.008-0.016,0.016-0.024,0.024l-26.877,27.096c-2.65,2.671-3.427,6.641-1.98,10.114
	c1.447,3.473,4.813,5.719,8.577,5.719h151.922c3.764,0,7.13-2.245,8.576-5.719c1.447-3.474,0.67-7.444-1.979-10.114L311.682,153.54z
	 M248.499,181.468h-54.757l15.017-15.14h39.74V181.468z M248.499,151.327h-24.86l24.86-25.064V151.327z M263.5,126.263
	l24.861,25.064H263.5V126.263z M263.5,181.468v-15.14h39.74l15.017,15.14H263.5z"/>
<g>
</g>
<g>
</g>
<g>
</g>
<g>
</g>
<g>
</g>
<g>
</g>
<g>
</g>
<g>
</g>
<g>
</g>
<g>
</g>
<g>
</g>
<g>
</g>
<g>
</g>
<g>
</g>
<g>
</g>
</svg>
