<svg height="464pt" viewBox="0 -48 464 464" width="464pt" xmlns="http://www.w3.org/2000/svg"><path d="m392 96h-80v-24h-16v-72h96zm0 0" fill="#9a826a"/><path d="m232 112c-4.417969 0-8-3.582031-8-8v-32c0-4.417969 3.582031-8 8-8s8 3.582031 8 8v32c0 4.417969-3.582031 8-8 8zm0 0" fill="#b9b9b9"/><path d="m184 104h96l8 32h-112zm0 0" fill="#cbcbcb"/><path d="m200 72h-184c-8.835938 0-16-7.164062-16-16v-40c0-8.835938 7.164062-16 16-16h184zm0 0" fill="#a88e74"/><path d="m96 72h-80c-8.835938 0-16-7.164062-16-16v-40c0-8.835938 7.164062-16 16-16h80zm0 0" fill="#c1ac8e"/><path d="m424 216c-4.417969 0-8-3.582031-8-8v-32c0-4.417969-3.582031-8-8-8s-8 3.582031-8 8-3.582031 8-8 8-8-3.582031-8-8c0-13.253906 10.746094-24 24-24s24 10.746094 24 24v32c0 4.417969-3.582031 8-8 8zm0 0" fill="#cbcbcb"/><path d="m160 240h144v128h-144zm0 0" fill="#dbdbdb"/><path d="m32 144h64c17.671875 0 32 14.328125 32 32v160c0 17.671875-14.328125 32-32 32h-64c-17.671875 0-32-14.328125-32-32v-160c0-17.671875 14.328125-32 32-32zm0 0" fill="#8dc79d"/><path d="m128 224h-128v-48c0-17.671875 14.328125-32 32-32h64c17.671875 0 32 14.328125 32 32zm0 0" fill="#99d8aa"/><path d="m32 280c-4.417969 0-8-3.582031-8-8v-16c0-4.417969 3.582031-8 8-8s8 3.582031 8 8v16c0 4.417969-3.582031 8-8 8zm0 0" fill="#dbdbdb"/><path d="m32 200c-4.417969 0-8-3.582031-8-8v-16c0-4.417969 3.582031-8 8-8s8 3.582031 8 8v16c0 4.417969-3.582031 8-8 8zm0 0" fill="#dbdbdb"/><path d="m304 240h160v128h-160zm0 0" fill="#c1ac8e"/><path d="m192 272h80v64h-80zm0 0" fill="#c3c3c3"/><path d="m200 272h64v56h-64zm0 0" fill="#b9b9b9"/><path d="m168 208h48v8c0 13.253906-10.746094 24-24 24s-24-10.746094-24-24zm0 0" fill="#e06661"/><path d="m248 208h40v32h-40zm0 0" fill="#6cbae5"/><path d="m392 56h-80c-4.417969 0-8-3.582031-8-8s3.582031-8 8-8h80c4.417969 0 8 3.582031 8 8s-3.582031 8-8 8zm0 0" fill="#a88e74"/><path d="m304 240h80v128h-80zm0 0" fill="#c1ac8e"/><path d="m384 240h80v128h-80zm0 0" fill="#a88e74"/><path d="m360 304c-4.417969 0-8-3.582031-8-8v-8c0-4.417969 3.582031-8 8-8s8 3.582031 8 8v8c0 4.417969-3.582031 8-8 8zm0 0" fill="#cbcbcb"/><path d="m416 304c-4.417969 0-8-3.582031-8-8v-8c0-4.417969 3.582031-8 8-8s8 3.582031 8 8v8c0 4.417969-3.582031 8-8 8zm0 0" fill="#cbcbcb"/><path d="m336 208h96v32h-96zm0 0" fill="#ebebeb"/><g fill="#fbedbf"><path d="m232 184c-4.417969 0-8-3.582031-8-8v-8c0-4.417969 3.582031-8 8-8s8 3.582031 8 8v8c0 4.417969-3.582031 8-8 8zm0 0"/><path d="m264 184c-4.417969 0-8-3.582031-8-8v-8c0-4.417969 3.582031-8 8-8s8 3.582031 8 8v8c0 4.417969-3.582031 8-8 8zm0 0"/><path d="m296 184c-4.417969 0-8-3.582031-8-8v-8c0-4.417969 3.582031-8 8-8s8 3.582031 8 8v8c0 4.417969-3.582031 8-8 8zm0 0"/></g><path d="m32 32h32v40h-32zm0 0" fill="#f7ba61"/><path d="m168 72h-48l24-40zm0 0" fill="#ffc5c3"/><path d="m192 0h120v72h-120zm0 0" fill="#c1ac8e"/><path d="m224 48c-4.417969 0-8-3.582031-8-8v-8c0-4.417969 3.582031-8 8-8s8 3.582031 8 8v8c0 4.417969-3.582031 8-8 8zm0 0" fill="#cbcbcb"/><path d="m392 0h56c8.835938 0 16 7.164062 16 16v64c0 8.835938-7.164062 16-16 16h-56zm0 0" fill="#c1ac8e"/><path d="m424 56c-4.417969 0-8-3.582031-8-8v-8c0-4.417969 3.582031-8 8-8s8 3.582031 8 8v8c0 4.417969-3.582031 8-8 8zm0 0" fill="#cbcbcb"/></svg>