<svg id="Layer_35" enable-background="new 0 0 64 64" height="512" viewBox="0 0 64 64" width="512" xmlns="http://www.w3.org/2000/svg"><g fill="#e6e9ed"><path d="m52.83 14.1c2.02 3.51 3.17 7.57 3.17 11.9s-1.15 8.39-3.17 11.9l-11.18-6.38-.1-.06c.92-1.61 1.45-3.47 1.45-5.46s-.53-3.85-1.45-5.46z"/><path d="m37.46 35.55 6.44 11.28c-3.51 2.02-7.57 3.17-11.89 3.17h-.01c-4.33 0-8.39-1.15-11.9-3.17l6.38-11.18.06-.1c1.61.92 3.47 1.45 5.46 1.45s3.85-.53 5.46-1.45z"/><path d="m22.35 20.48.1.06c-.92 1.61-1.45 3.47-1.45 5.46s.53 3.85 1.45 5.46l-11.28 6.44c-2.02-3.51-3.17-7.57-3.17-11.9s1.15-8.39 3.17-11.9z"/><path d="m43.9 5.17-6.38 11.18-.06.1c-1.61-.92-3.47-1.45-5.46-1.45s-3.85.53-5.46 1.45l-6.44-11.28c3.51-2.02 7.57-3.17 11.9-3.17s8.39 1.15 11.9 3.17z"/></g><path d="m52.83 14.1-11.28 6.44c-.97-1.7-2.39-3.12-4.09-4.09l.06-.1 6.38-11.18c3.72 2.12 6.81 5.21 8.93 8.93z" fill="#ff826e"/><path d="m41.65 31.52 11.18 6.38c-2.12 3.72-5.21 6.81-8.93 8.93l-6.44-11.28c1.7-.97 3.12-2.39 4.09-4.09z" fill="#ff826e"/><path d="m26.54 35.55-.06.1-6.38 11.18c-3.72-2.12-6.81-5.21-8.93-8.93l11.28-6.44c.97 1.7 2.39 3.12 4.09 4.09z" fill="#ff826e"/><path d="m20.1 5.17 6.44 11.28c-1.7.97-3.12 2.39-4.09 4.09l-.1-.06-11.18-6.38c2.12-3.72 5.21-6.81 8.93-8.93z" fill="#ff826e"/><path d="m63 58v4c-3.95 0-6.15-1.71-7.61-2.84-1.1-.84-1.5-1.16-2.72-1.16-1.21 0-1.62.32-2.71 1.16-1.46 1.13-3.67 2.84-7.62 2.84s-6.16-1.71-7.61-2.84c-1.1-.84-1.51-1.16-2.72-1.16-1.22 0-1.63.32-2.72 1.16-1.46 1.13-3.66 2.84-7.61 2.84-3.96 0-6.16-1.71-7.62-2.84-1.1-.84-1.5-1.16-2.72-1.16s-1.63.32-2.72 1.16c-1.46 1.13-3.67 2.84-7.62 2.84v-4c5.17 0 5.17-4 10.34-4s5.17 4 10.34 4c5.16 0 5.16-4 10.33-4 5.16 0 5.16 4 10.33 4s5.17-4 10.33-4c5.17 0 5.17 4 10.33 4z" fill="#69d6f4"/><path d="m63 54v4c-5.16 0-5.16-4-10.33-4-5.16 0-5.16 4-10.33 4s-5.17-4-10.33-4c-5.17 0-5.17 4-10.33 4-5.17 0-5.17-4-10.34-4s-5.17 4-10.34 4v-4c1.22 0 1.63-.32 2.72-1.16 1.46-1.13 3.67-2.84 7.62-2.84s6.16 1.71 7.62 2.84c1.09.84 1.5 1.16 2.72 1.16 1.21 0 1.62-.32 2.71-1.16 1.46-1.13 3.67-2.84 7.61-2.84h.01c3.95 0 6.15 1.71 7.61 2.84 1.1.84 1.5 1.16 2.72 1.16s1.62-.32 2.72-1.16c1.46-1.13 3.66-2.84 7.61-2.84s6.16 1.71 7.62 2.84c1.09.84 1.5 1.16 2.71 1.16z" fill="#69d6f4"/><path d="m52.672 53c-2.925 0-4.44 1.174-5.777 2.209-1.241.961-2.313 1.791-4.553 1.791-2.242 0-3.314-.83-4.556-1.791-1.338-1.035-2.854-2.209-5.779-2.209-2.924 0-4.44 1.174-5.777 2.209-1.242.961-2.313 1.791-4.554 1.791-2.243 0-3.315-.83-4.557-1.791-1.339-1.035-2.855-2.209-5.781-2.209s-4.442 1.174-5.781 2.209c-1.242.961-2.314 1.791-4.557 1.791v2c2.926 0 4.442-1.174 5.781-2.209 1.241-.961 2.314-1.791 4.557-1.791s3.315.83 4.557 1.791c1.338 1.035 2.855 2.209 5.781 2.209 2.925 0 4.44-1.174 5.778-2.21 1.241-.96 2.312-1.79 4.553-1.79s3.313.83 4.555 1.791c1.337 1.035 2.854 2.209 5.78 2.209 2.925 0 4.44-1.174 5.777-2.209 1.24-.961 2.313-1.791 4.553-1.791s3.312.83 4.552 1.791c1.337 1.035 2.852 2.209 5.776 2.209v-2c-2.24 0-3.312-.83-4.552-1.791-1.337-1.035-2.852-2.209-5.776-2.209z"/><path d="m52.672 57c-1.556 0-2.185.486-3.328 1.372-1.433 1.109-3.395 2.628-7.002 2.628-3.611 0-5.572-1.519-7.004-2.628-1.144-.885-1.774-1.372-3.331-1.372-1.556 0-2.185.486-3.328 1.372-1.433 1.109-3.395 2.628-7.003 2.628-3.609 0-5.572-1.519-7.005-2.628-1.144-.885-1.774-1.372-3.333-1.372s-2.189.487-3.333 1.372c-1.433 1.109-3.396 2.628-7.005 2.628v2c4.293 0 6.757-1.907 8.229-3.046 1.044-.808 1.233-.954 2.109-.954s1.064.146 2.108.954c1.473 1.139 3.937 3.046 8.23 3.046s6.756-1.907 8.229-3.049c1.041-.805 1.23-.951 2.102-.951.874 0 1.062.146 2.106.954 1.472 1.139 3.934 3.046 8.229 3.046 4.292 0 6.755-1.907 8.228-3.049 1.041-.805 1.23-.951 2.102-.951.873 0 1.061.146 2.104.954 1.471 1.139 3.933 3.046 8.224 3.046v-2c-3.606 0-5.567-1.519-7.001-2.629-1.142-.884-1.77-1.371-3.327-1.371z"/><path d="m60.896 52.046c-1.471-1.139-3.933-3.046-8.224-3.046-4.292 0-6.755 1.907-8.228 3.049-1.042.805-1.23.951-2.102.951-.875 0-1.063-.146-2.107-.954-.641-.496-1.487-1.134-2.573-1.7 11.065-2.573 19.338-12.508 19.338-24.346 0-13.785-11.215-25-25-25s-25 11.215-25 25c0 11.841 8.278 21.779 19.349 24.348-1.085.566-1.929 1.203-2.57 1.699-1.042.807-1.229.953-2.103.953-.876 0-1.064-.146-2.108-.954-1.473-1.139-3.937-3.046-8.23-3.046s-6.757 1.907-8.229 3.046c-1.045.808-1.233.954-2.109.954v2c1.56 0 2.189-.487 3.333-1.372 1.433-1.109 3.396-2.628 7.005-2.628s5.572 1.519 7.005 2.628c1.143.885 1.773 1.372 3.333 1.372 1.558 0 2.187-.487 3.329-1.372 1.432-1.109 3.392-2.628 7.002-2.628s5.571 1.519 7.003 2.628c1.143.885 1.773 1.372 3.332 1.372 1.556 0 2.185-.486 3.328-1.372 1.433-1.109 3.394-2.628 7.002-2.628 3.606 0 5.567 1.519 7.001 2.629 1.141.884 1.77 1.371 3.327 1.371v-2c-.873 0-1.061-.146-2.104-.954zm-38.896-26.046c0-5.514 4.486-10 10-10s10 4.486 10 10-4.486 10-10 10-10-4.486-10-10zm10 12c1.809 0 3.519-.414 5.058-1.133l5.47 9.572c-3.157 1.633-6.735 2.561-10.528 2.561s-7.371-.928-10.528-2.561l5.47-9.572c1.54.719 3.249 1.133 5.058 1.133zm12.263 7.444-5.466-9.565c1.205-.832 2.25-1.877 3.082-3.082l9.565 5.466c-1.831 2.893-4.288 5.35-7.181 7.181zm8.176-8.916-9.572-5.47c.719-1.54 1.133-3.249 1.133-5.058s-.414-3.519-1.133-5.058l9.572-5.47c1.633 3.157 2.561 6.735 2.561 10.528s-.928 7.371-2.561 10.528zm-.995-22.791-9.565 5.466c-.832-1.205-1.877-2.25-3.082-3.082l5.466-9.565c2.893 1.831 5.35 4.288 7.181 7.181zm-8.916-8.176-5.47 9.572c-1.54-.719-3.249-1.133-5.058-1.133s-3.519.414-5.058 1.133l-5.47-9.572c3.157-1.633 6.735-2.561 10.528-2.561s7.371.928 10.528 2.561zm-22.791.995 5.466 9.565c-1.205.832-2.25 1.877-3.082 3.082l-9.565-5.466c1.831-2.893 4.288-5.35 7.181-7.181zm-8.176 8.916 9.572 5.47c-.719 1.54-1.133 3.249-1.133 5.058s.414 3.519 1.133 5.058l-9.572 5.47c-1.633-3.157-2.561-6.735-2.561-10.528s.928-7.371 2.561-10.528zm.995 22.791 9.565-5.466c.832 1.205 1.877 2.25 3.082 3.082l-5.466 9.565c-2.893-1.831-5.35-4.288-7.181-7.181z"/><path d="m27.866 7.467c.545-.124 1.098-.225 1.642-.298l-.268-1.982c-.603.082-1.214.192-1.817.329z"/><path d="m32.003 7c.274-.001.556.006.831.019l.094-1.998c-.289-.014-.58-.021-.869-.021-.325-.004-.654.006-.979.021l.088 1.998c.275-.012.553-.019.835-.019z"/><path d="m36.582 5.517c-.604-.137-1.215-.248-1.816-.329l-.268 1.982c.542.073 1.095.173 1.641.298z"/><path d="m13.467 30.134c-.124-.545-.225-1.098-.298-1.642l-1.982.268c.082.603.192 1.214.329 1.817z"/><path d="m13 25.997c-.001-.278.006-.556.019-.831l-1.998-.094c-.015.309-.022.619-.021.928 0 .309.007.615.021.92l1.998-.088c-.012-.275-.019-.553-.019-.835z"/><path d="m13.468 21.861-1.951-.443c-.137.604-.248 1.215-.329 1.816l1.982.268c.073-.542.173-1.095.298-1.641z"/><path d="m36.577 46.484-.443-1.951c-.545.124-1.098.225-1.642.298l.268 1.982c.602-.082 1.214-.192 1.817-.329z"/><path d="m29.234 46.812.268-1.982c-.542-.073-1.095-.173-1.641-.298l-.443 1.951c.604.137 1.215.248 1.816.329z"/><path d="m32.92 46.979-.088-1.998c-.275.012-.553.019-.835.019-.284-.003-.556-.006-.831-.019l-.094 1.998c.289.014.58.021.869.021.326-.004.655-.006.979-.021z"/><path d="m50.533 21.866c.124.545.225 1.098.298 1.642l1.982-.268c-.082-.603-.192-1.214-.329-1.817z"/><path d="m51 26.003c.001.278-.006.556-.019.831l1.998.094c.015-.309.022-.619.021-.928 0-.309-.007-.615-.021-.92l-1.998.088c.012.275.019.553.019.835z"/><path d="m50.532 30.139 1.951.443c.137-.604.248-1.215.329-1.816l-1.982-.268c-.073.542-.173 1.095-.298 1.641z"/></svg>