<svg height="496pt" viewBox="0 -3 496 496" width="496pt" xmlns="http://www.w3.org/2000/svg"><path d="m48.640625 289.207031-.640625.242188h-24c-8.800781 0-16-7.203125-16-16v-16c0-8.800781 7.199219-16 16-16h16c0 16.796875 3.039062 32.878906 8.640625 47.757812zm0 0" fill="#cf9e76"/><path d="m472 289.449219h-24l-.640625-.242188c5.601563-14.878906 8.640625-30.960937 8.640625-47.757812h16c8.800781 0 16 7.199219 16 16v16c0 8.796875-7.199219 16-16 16zm0 0" fill="#cf9e76"/><path d="m376 369.449219 32 112h-48l-32-104v-.242188c16.480469-.960937 32.078125-4.800781 46.480469-11.117187zm0 0" fill="#dfb28b"/><path d="m168 377.207031v.242188l-32 104h-48l32-112 1.519531-3.359375c14.402344 6.316406 30 10.15625 46.480469 11.117187zm0 0" fill="#dfb28b"/><path d="m328 241.449219h128c0 16.796875-3.039062 32.878906-8.640625 47.757812-12.878906 34.402344-39.359375 62.242188-72.878906 76.882813-14.402344 6.316406-30 10.15625-46.480469 11.117187-2.640625.160157-5.359375.242188-8 .242188h-144c-2.640625 0-5.359375-.082031-8-.242188-16.480469-.960937-32.078125-4.800781-46.480469-11.117187-33.519531-14.640625-60-42.480469-72.878906-76.882813-5.601563-14.878906-8.640625-30.960937-8.640625-47.757812zm0 0" fill="#aab2bd"/><path d="m200 273.449219v48h-24c-13.28125 0-24-10.722657-24-24 0-6.640625 2.71875-12.640625 7.039062-16.960938 4.320313-4.320312 10.320313-7.039062 16.960938-7.039062zm0 0" fill="#fcd770"/><path d="m200 273.449219h48v48h-48zm0 0" fill="#ffc729"/><path d="m320 273.449219c13.28125 0 24 10.71875 24 24 0 6.640625-2.71875 12.640625-7.039062 16.957031-4.320313 4.320312-10.320313 7.042969-16.960938 7.042969h-24v-48zm0 0" fill="#ffc729"/><path d="m248 273.449219h48v48h-48zm0 0" fill="#fcd770"/><path d="m384 105.449219s-7.191406 3.628906-16 10.808593v-50.808593c-24 8-32 24-32 24 0-40-40-32-40-80 0 0-26.054688 4.429687-39.761719 32.367187l-.238281-.367187c-8-8-24-24-24-24s-24 24-24 40l-.246094 3.671875c-8.402344-8.746094-15.753906-18.527344-15.753906-35.671875 0 0-40 24-40 48s16 32 16 88c0-32-56-56-56-56 0 40-32 56-32 80s16 56 88 56h160c72 0 88-32 88-56s-32-40-32-80zm0 0" fill="#ff826e"/><path d="m280 145.449219s24 24 24 56-40 40-40 40h-40s-40 0-40-48c0-32 24-24 24-72 0 0 40 16 40 64 0 0 32-16 32-40zm0 0" fill="#e9573f"/><path d="m472 233.449219h-74.375c22.765625-14.785157 26.375-36.183594 26.375-48 0-12.945313-6.976562-23.175781-14.359375-34.015625-8.671875-12.738282-17.640625-25.914063-17.640625-45.984375v-12.945313l-11.574219 5.792969c-.347656.167969-2.019531 1.046875-4.425781 2.496094v-46.441407l-10.527344 3.503907c-10.898437 3.632812-18.800781 8.785156-24.511718 13.703125-4.015626-10.910156-11.410157-17.710938-18.257813-23.847656-10.039063-8.984376-18.703125-16.742188-18.703125-38.261719v-9.449219l-9.3125 1.550781c-.359375.058594-23.871094 4.464844-39.953125 27.3125l-22.734375-22.726562-5.65625 5.65625c-2.015625 2.015625-15.695312 16.007812-22.511719 30.78125-2.351562-4.71875-3.832031-10.160157-3.832031-17.125v-14.128907l-12.121094 7.273438c-4.488281 2.6875-43.878906 27.125-43.878906 54.855469 0 10.886719 2.910156 19.015625 6 27.628906 2.304688 6.425781 4.878906 13.722656 6.847656 23.699219-16.390625-15.402344-37.917968-25.066406-41.703125-26.679688l-11.144531-4.785156v12.136719c0 20.070312-8.96875 33.246093-17.640625 45.984375-7.382813 10.839844-14.359375 21.070312-14.359375 34.015625 0 11.816406 3.609375 33.214843 26.375 48h-74.375c-13.230469 0-24 10.765625-24 24v16c0 13.230469 10.769531 24 24 24h19.335938c13.359374 31.535156 37.734374 57.230469 68.175781 72.566406l-34.121094 119.433594h64.511719l32.042968-104.105469c.6875.007812 1.359376.105469 2.054688.105469h144c.695312 0 1.367188-.097657 2.054688-.105469l32.042968 104.105469h64.511719l-34.121094-119.433594c30.449219-15.335937 54.816407-41.03125 68.175781-72.566406h19.335938c13.230469 0 24-10.769531 24-24v-16c0-13.234375-10.769531-24-24-24zm-384-48c0-8.007813 5.113281-15.511719 11.574219-25.007813 7.515625-11.035156 16.546875-24.296875 19.464843-42.664062 16.769532 9.03125 40.960938 25.925781 40.960938 43.671875h16c0-35.234375-6.320312-52.882813-10.9375-65.761719-2.933594-8.207031-5.0625-14.136719-5.0625-22.238281 0-11.578125 14.296875-25.203125 25.648438-33.898438 3.617187 14.480469 12.574218 23.441407 20.695312 31.554688 9.480469 9.480469 17.65625 17.65625 17.65625 34.34375h16c0-23.3125-11.863281-35.183594-22.34375-45.65625-.792969-.792969-1.550781-1.570313-2.320312-2.34375h.664062c0-7.058594 8.296875-19.28125 16.222656-28.464844l14.59375 14.589844c-4.105468 10.113281-6.816406 22.464843-6.816406 37.875h16c0-40.359375 20.566406-55.679688 32.695312-61.210938 2.871094 21.082031 14.082032 31.113281 23.335938 39.394531 9.273438 8.304688 15.96875 14.304688 15.96875 29.816407 0 28.261719-20.839844 40-32 40v16c19.671875 0 46.679688-18.640625 47.886719-53.609375 1.6875-2.601563 6.457031-8.863282 16.113281-14.214844v34.863281c-14.734375 12.792969-32 34.265625-32 64.960938h16c0-29.058594 20.320312-48.664063 33.207031-58.183594 3.160157 17.597656 11.898438 30.4375 19.207031 41.167969 6.472657 9.503906 11.585938 17.007812 11.585938 25.015625 0 17.925781-10.390625 48-80 48h-30.734375c8.390625-7.617188 14.734375-18.089844 14.734375-32 0-34.914063-25.265625-60.585938-26.34375-61.65625l-13.65625-13.65625v19.3125c0 10.367187-8.871094 19.816406-17.0625 26.09375-6.648438-42.09375-42.296875-56.855469-43.96875-57.519531l-10.96875-4.390626v11.816407c0 23.703125-5.902344 31.375-12.160156 39.496093-5.542969 7.214844-11.839844 15.398438-11.839844 32.503907 0 18.566406 5.542969 31.34375 13.175781 40h-21.175781c-69.609375 0-80-30.074219-80-48zm104 8c0-11.664063 3.574219-16.3125 8.527344-22.746094 5.703125-7.421875 12.570312-16.34375 14.769531-35.757813 10.335937 7.648438 24.703125 23.191407 24.703125 50.503907v12.941406l11.574219-5.789063c1.160156-.578124 22.480469-11.441406 31.945312-29.65625 5.914063 9.125 12.480469 22.808594 12.480469 38.503907 0 23.292969-28 30.855469-32.871094 32h-39.074218c-3.277344-.042969-32.054688-1.527344-32.054688-40zm-168 88c-4.414062 0-8-3.59375-8-8v-16c0-4.410157 3.585938-8 8-8h8.40625c.609375 11.039062 2.394531 21.75 5.371094 32zm106.097656 192h-31.488281l27.71875-97.015625c9.960937 3.679687 20.398437 6.300781 31.238281 7.695312zm267.292969 0h-31.488281l-27.476563-89.3125c10.847657-1.394531 21.285157-4.023438 31.238281-7.695313zm-77.390625-104h-144c-67.878906 0-123.433594-53.152344-127.59375-120h399.195312c-4.167968 66.847656-59.722656 120-127.601562 120zm160-96c0 4.40625-3.585938 8-8 8h-13.769531c2.96875-10.25 4.753906-20.960938 5.371093-32h8.398438c4.414062 0 8 3.589843 8 8zm0 0"/><path d="m320 265.449219h-144c-17.648438 0-32 14.351562-32 32 0 17.648437 14.351562 32 32 32h144c17.648438 0 32-14.351563 32-32 0-17.648438-14.351562-32-32-32zm-64 16h32v32h-32zm-16 32h-32v-32h32zm-80-16c0-8.824219 7.175781-16 16-16h16v32h-16c-8.824219 0-16-7.175781-16-16zm160 16h-16v-32h16c8.824219 0 16 7.175781 16 16s-7.175781 16-16 16zm0 0"/></svg>