<?xml version="1.0" encoding="iso-8859-1"?>
<!-- Generator: Adobe Illustrator 19.0.0, SVG Export Plug-In . SVG Version: 6.00 Build 0)  -->
<svg version="1.1" id="Capa_1" xmlns="http://www.w3.org/2000/svg" xmlns:xlink="http://www.w3.org/1999/xlink" x="0px" y="0px"
	 viewBox="0 0 464 464" style="enable-background:new 0 0 464 464;" xml:space="preserve">
<path style="fill:#29485A;" d="M0,432h464v32H0V432z"/>
<path style="fill:#006837;" d="M136,432H24V168c0-17.673,14.327-32,32-32h48c17.673,0,32,14.327,32,32v128"/>
<path style="fill:#009245;" d="M56,0h48v136H56V0z"/>
<path style="fill:#1A1A1A;" d="M56,0h48v32H56V0z"/>
<path style="fill:#E6E6E6;" d="M24,400h64V176H24V400z"/>
<path style="fill:#0378A3;" d="M136,296v-92.744c0.705-15.719,13.991-27.906,29.712-27.256h44.576
	c15.721-0.65,29.007,11.537,29.712,27.256V296"/>
<path style="fill:#29485A;" d="M168,64h40v112h-40V64z"/>
<path style="fill:#333333;" d="M168,64h40v32h-40V64z"/>
<path style="fill:#3FA9F5;" d="M120,296h136l-17,136H137L120,296z"/>
<path style="fill:#BDCCD4;" d="M188.848,416c-18.685,0.326-34.99-12.611-38.92-30.88l-12.28-63.608
	c-0.702-4.362,2.265-8.468,6.627-9.17c4.174-0.672,8.151,2.02,9.077,6.146l12.288,63.6c3.397,12.844,16.564,20.502,29.408,17.105
	c7.876-2.083,14.163-8.012,16.704-15.753l2.52-9.496c1.015-4.3,5.324-6.963,9.624-5.948c4.3,1.015,6.963,5.324,5.948,9.624
	c-0.035,0.146-0.073,0.292-0.116,0.436l-2.528,9.488C222.336,404.62,206.601,416.295,188.848,416L188.848,416z"/>
<path style="fill:#ED1C24;" d="M280,168h160v264H280V168z"/>
<path style="fill:#C1272D;" d="M336,88h48v80h-48V88z"/>
<path style="fill:#42210B;" d="M320,48h80v40h-80V48z"/>
<path style="fill:#E6E6E6;" d="M304,208h112v136H304V208z"/>
<path style="fill:#F2F2F2;" d="M200,296h-64v-80h33c17.121,0,31,13.879,31,31V296z"/>
<g>
</g>
<g>
</g>
<g>
</g>
<g>
</g>
<g>
</g>
<g>
</g>
<g>
</g>
<g>
</g>
<g>
</g>
<g>
</g>
<g>
</g>
<g>
</g>
<g>
</g>
<g>
</g>
<g>
</g>
</svg>
