<?xml version="1.0" encoding="utf-8"?>
<!-- Generator: Adobe Illustrator 21.1.0, SVG Export Plug-In . SVG Version: 6.00 Build 0)  -->
<svg version="1.1" id="Icons" xmlns="http://www.w3.org/2000/svg" xmlns:xlink="http://www.w3.org/1999/xlink" x="0px" y="0px"
	 viewBox="0 0 48 48" style="enable-background:new 0 0 48 48;" xml:space="preserve">
<style type="text/css">
	.st0{opacity:0.15;fill:#45413C;}
	.st1{fill:#FF6196;}
	.st2{fill:#FF87AF;}
	.st3{fill:none;stroke:#45413C;stroke-linecap:round;stroke-linejoin:round;stroke-miterlimit:10;}
	.st4{fill:#FFE500;stroke:#45413C;stroke-linecap:round;stroke-linejoin:round;stroke-miterlimit:10;}
	.st5{fill:#FFE500;}
	.st6{fill:#EBCB00;}
	.st7{fill:#EBCB00;stroke:#45413C;stroke-linecap:round;stroke-linejoin:round;stroke-miterlimit:10;}
	.st8{fill:#FFF48C;}
	.st9{fill:#FFCCDD;stroke:#FFB0CA;stroke-linecap:round;stroke-linejoin:round;stroke-miterlimit:10;}
	.st10{fill:#FFB0CA;stroke:#FF87AF;stroke-linecap:round;stroke-linejoin:round;stroke-miterlimit:10;}
	.st11{opacity:0.7;fill:#FFE5EE;}
	.st12{fill:#009FD9;}
	.st13{fill:#00B8F0;}
	.st14{fill:#656769;}
	.st15{fill:#87898C;}
	.st16{fill:#FF6242;stroke:#45413C;stroke-linecap:round;stroke-linejoin:round;stroke-miterlimit:10;}
	.st17{fill:#4AEFF7;}
	.st18{fill:#00DFEB;}
	.st19{fill:#A6FBFF;}
	.st20{fill:#FFFFFF;}
	.st21{fill:#E5F8FF;}
	.st22{fill:#E5F8FF;stroke:#45413C;stroke-linecap:round;stroke-linejoin:round;stroke-miterlimit:10;}
	.st23{fill:#FFE500;stroke:#EBCB00;stroke-linecap:round;stroke-linejoin:round;stroke-miterlimit:10;}
	.st24{fill:#BDBEC0;}
	.st25{fill:#4ACFFF;}
	.st26{fill:#E8F4FA;stroke:#45413C;stroke-linecap:round;stroke-linejoin:round;stroke-miterlimit:10;}
	.st27{fill:#80DDFF;}
	.st28{fill:#009FD9;stroke:#45413C;stroke-linecap:round;stroke-linejoin:round;stroke-miterlimit:10;}
	.st29{fill:#B8ECFF;}
	.st30{fill:#4ACFFF;stroke:#45413C;stroke-linecap:round;stroke-linejoin:round;stroke-miterlimit:10;}
	.st31{fill:#B8ECFF;stroke:#45413C;stroke-linecap:round;stroke-linejoin:round;stroke-miterlimit:10;}
	.st32{fill:#FFFACF;}
	.st33{fill:#FFF48C;stroke:#45413C;stroke-linecap:round;stroke-linejoin:round;stroke-miterlimit:10;}
	.st34{fill:#BF8256;}
	.st35{fill:#DEA47A;}
	.st36{fill:#656769;stroke:#45413C;stroke-linecap:round;stroke-linejoin:round;stroke-miterlimit:10;}
	.st37{fill:#FF8A14;}
	.st38{fill:#FFAA54;}
	.st39{fill:#EB6D00;}
	.st40{fill:#627B8C;stroke:#45413C;stroke-linecap:round;stroke-linejoin:round;stroke-miterlimit:10;}
	.st41{fill:#FFFFFF;stroke:#45413C;stroke-linecap:round;stroke-linejoin:round;stroke-miterlimit:10;}
	.st42{fill:#E0366F;stroke:#45413C;stroke-linecap:round;stroke-linejoin:round;stroke-miterlimit:10;}
	.st43{fill:#FF87AF;stroke:#45413C;stroke-linecap:round;stroke-linejoin:round;stroke-miterlimit:10;}
	.st44{fill:#E0366F;}
	.st45{fill:#FF6196;stroke:#45413C;stroke-linecap:round;stroke-linejoin:round;stroke-miterlimit:10;}
	.st46{fill:#525252;}
	.st47{fill:#DEBB7E;}
	.st48{fill:#F0D5A8;}
	.st49{fill:#DAEDF7;}
	.st50{fill:#F7E5C6;}
	.st51{fill:#DEBB7E;stroke:#45413C;stroke-linecap:round;stroke-linejoin:round;stroke-miterlimit:10;}
	.st52{fill:#FFF5E3;}
	.st53{fill:#00F5BC;}
	.st54{fill:#FFB0CA;stroke:#45413C;stroke-linecap:round;stroke-linejoin:round;stroke-miterlimit:10;}
	.st55{fill:#8CFFE4;}
	.st56{fill:#00DBA8;}
	.st57{fill:#87898C;stroke:#45413C;stroke-linecap:round;stroke-linejoin:round;stroke-miterlimit:10;}
	.st58{fill:#FF6242;}
	.st59{fill:#FF866E;}
	.st60{fill:#F0F0F0;}
	.st61{fill:#BDBEC0;stroke:#45413C;stroke-width:1.0064;stroke-linecap:round;stroke-linejoin:round;stroke-miterlimit:10;}
	.st62{fill:#947746;stroke:#45413C;stroke-linecap:round;stroke-linejoin:round;stroke-miterlimit:10;}
	.st63{fill:#B89558;}
	.st64{fill:#E04122;}
	.st65{fill:#C0DCEB;}
	.st66{fill:#E8F4FA;}
	.st67{fill:#00B8F0;stroke:#45413C;stroke-linecap:round;stroke-linejoin:round;stroke-miterlimit:10;}
	.st68{fill:#80DDFF;stroke:#45413C;stroke-linecap:round;stroke-linejoin:round;stroke-miterlimit:10;}
	.st69{fill:#9CEB60;}
	.st70{fill:#C8FFA1;}
	.st71{fill:#FFB0CA;}
	.st72{fill:#FFCCDD;}
	.st73{fill:#FFE5EE;}
	.st74{fill:#45413C;stroke:#45413C;stroke-linecap:round;stroke-linejoin:round;stroke-miterlimit:10;}
	.st75{fill:#FFCABF;}
	.st76{fill:#FFA694;}
	.st77{fill:#FFA694;stroke:#45413C;stroke-linecap:round;stroke-linejoin:round;stroke-miterlimit:10;}
	.st78{fill:#FFCC99;}
	.st79{fill:#8CA4B8;}
	.st80{fill:#ADC4D9;}
	.st81{fill:#F0D5A8;stroke:#45413C;stroke-linecap:round;stroke-linejoin:round;stroke-miterlimit:10;}
	.st82{fill:#BDBEC0;stroke:#45413C;stroke-linecap:round;stroke-linejoin:round;stroke-miterlimit:10;}
	.st83{fill:#E0E0E0;}
	.st84{fill:#45413C;}
	.st85{fill:#E5FEFF;}
	.st86{fill:#FFFCE5;}
	.st87{fill:#FFAA54;stroke:#45413C;stroke-linecap:round;stroke-linejoin:round;stroke-miterlimit:10;}
	.st88{fill:#6DD627;}
	.st89{fill:#46B000;}
	.st90{fill:#FFE8E0;}
	.st91{fill:#FFCEBF;}
	.st92{fill:#FFE8D1;}
	.st93{fill:#FFF48C;stroke:#4F4B45;stroke-linecap:round;stroke-linejoin:round;stroke-miterlimit:10;}
	.st94{fill:#FFDCD1;stroke:#4F4B45;stroke-linejoin:round;stroke-miterlimit:10;}
	.st95{fill:none;stroke:#4F4B45;stroke-linejoin:round;stroke-miterlimit:10;}
	.st96{fill:none;stroke:#4F4B45;stroke-linecap:round;stroke-linejoin:round;stroke-miterlimit:10;}
	.st97{fill:#656769;stroke:#4F4B45;stroke-linejoin:round;stroke-miterlimit:10;}
	.st98{fill:#87898C;stroke:#4F4B45;stroke-linecap:round;stroke-linejoin:round;stroke-miterlimit:10;}
	.st99{fill:#C0DCEB;stroke:#4F4B45;stroke-linecap:round;stroke-linejoin:round;stroke-miterlimit:10;}
	.st100{fill:#FFA694;stroke:#4F4B45;stroke-linecap:round;stroke-linejoin:round;stroke-miterlimit:10;}
	.st101{fill:#E04122;stroke:#45413C;stroke-linecap:round;stroke-linejoin:round;stroke-miterlimit:10;}
	.st102{fill:#FFFCE5;stroke:#45413C;stroke-linecap:round;stroke-linejoin:round;stroke-miterlimit:10;}
	.st103{fill:#915E3A;}
	.st104{fill:none;stroke:#915E3A;stroke-linecap:round;stroke-linejoin:round;stroke-miterlimit:10;}
	.st105{fill:#915E3A;stroke:#45413C;stroke-linecap:round;stroke-linejoin:round;stroke-miterlimit:10;}
	.st106{fill:#FF866E;stroke:#45413C;stroke-linecap:round;stroke-linejoin:round;stroke-miterlimit:10;}
	.st107{fill:#FFF5E3;stroke:#45413C;stroke-linecap:round;stroke-linejoin:round;stroke-miterlimit:10;}
	.st108{fill:#FFDCD1;}
	.st109{fill:#FFDCD1;stroke:#45413C;stroke-linecap:round;stroke-linejoin:round;stroke-miterlimit:10;}
	.st110{fill:#F0C2A1;}
	.st111{fill:#FFE3CF;}
	.st112{fill:#FFFACF;stroke:#45413C;stroke-linecap:round;stroke-linejoin:round;stroke-miterlimit:10;}
	.st113{fill:#DEA47A;stroke:#45413C;stroke-linecap:round;stroke-linejoin:round;stroke-miterlimit:10;}
	.st114{fill:#F0C2A1;stroke:#45413C;stroke-linecap:round;stroke-linejoin:round;stroke-miterlimit:10;}
	.st115{fill:#EB6D00;stroke:#45413C;stroke-linecap:round;stroke-linejoin:round;stroke-miterlimit:10;}
	.st116{fill:#FF8A14;stroke:#45413C;stroke-linecap:round;stroke-linejoin:round;stroke-miterlimit:10;}
	.st117{fill:#D9FDFF;}
	.st118{fill:#C8FFA1;stroke:#45413C;stroke-linecap:round;stroke-linejoin:round;stroke-miterlimit:10;}
	.st119{fill:#E4FFD1;}
	.st120{fill:#E0E0E0;stroke:#45413C;stroke-linecap:round;stroke-linejoin:round;stroke-miterlimit:10;}
	.st121{fill:#FFCCDD;stroke:#45413C;stroke-linecap:round;stroke-linejoin:round;stroke-miterlimit:10;}
	.st122{fill:#BF8256;stroke:#45413C;stroke-linecap:round;stroke-linejoin:round;stroke-miterlimit:10;}
	.st123{fill:#C0DCEB;stroke:#45413C;stroke-linecap:round;stroke-linejoin:round;stroke-miterlimit:10;}
</style>
<g>
	<ellipse id="XMLID_12497_" class="st0" cx="24" cy="45.1" rx="20" ry="1.9"/>
	<path id="XMLID_12496_" class="st41" d="M5.4,10.8c0,0-3.1-2.2-1.3-4.9c1.6-2.4,3.1,0.4,3.1,0.4L5.4,10.8z"/>
	<path id="XMLID_12495_" class="st49" d="M7.6,16.6c0,0-3.3,0.5-3.5-3.5C3.8,9.3,7.1,6.4,7.1,6.4s3.8-1.6,5.8,1.3S7.6,16.6,7.6,16.6
		z"/>
	<path id="XMLID_12494_" class="st20" d="M4.2,14c0.3-1.2,0.8-2.2,1.4-3c1.1-1.6,3-2.6,5-2.2c0.8,0.2,1.7,0.6,2.3,1.6
		c0.4-1,0.5-1.9,0-2.6C11,4.8,7.1,6.4,7.1,6.4S3.8,9.3,4,13C4.1,13.4,4.1,13.7,4.2,14z"/>
	<path id="XMLID_12493_" class="st3" d="M7.6,16.6c0,0-3.3,0.5-3.5-3.5C3.8,9.3,7.1,6.4,7.1,6.4s3.8-1.6,5.8,1.3S7.6,16.6,7.6,16.6z
		"/>
	<path id="XMLID_12492_" class="st49" d="M8.9,25.8c0,0-2-0.6-3.1-4C4.7,18.4,5.6,15,8.9,11.7c3.3-3.4,4-4,4-4s2.9-0.7,5.3,1.8
		C20.6,11.9,8.9,25.8,8.9,25.8z"/>
	<path id="XMLID_12491_" class="st20" d="M8.9,15.3c0.9-0.9,1.6-1.6,2.1-2.2c1.8-1.8,4.8-2.1,6.8-0.4l0.1,0.1
		c0.7-1.5,0.9-2.8,0.3-3.4c-2.4-2.4-5.3-1.8-5.3-1.8s-0.7,0.6-4,4c-3,3.1-4,6.2-3.3,9.3C6,19.1,7.1,17.2,8.9,15.3z"/>
	<path id="XMLID_12490_" class="st3" d="M8.9,25.8c0,0-2-0.6-3.1-4C4.7,18.4,5.6,15,8.9,11.7c3.3-3.4,4-4,4-4s2.9-0.7,5.3,1.8
		C20.6,11.9,8.9,25.8,8.9,25.8z"/>
	<path id="XMLID_12489_" class="st49" d="M36,43.9c0,0-13.1,4.8-21.8-3.9c-6.4-6.4-7.8-15-1.8-22.1c5.9-7,5.8-8.4,5.8-8.4
		S23.7,9.7,27,13c3.3,3.3,3.1,5.8,3.1,5.8l11.1,11.1L36,43.9z"/>
	<path id="XMLID_12488_" class="st20" d="M12.4,22.8c1.3-1.5,2.3-2.8,3.1-3.8c2.8-3.7,8.2-4.3,11.5-1c3.3,3.3,3.1,5.8,3.1,5.8
		l9.7,9.7l1.3-3.6L30.1,18.8c0,0,0.2-2.4-3.1-5.8c-3.3-3.3-8.8-3.5-8.8-3.5s0.2,1.4-5.8,8.4c-3.3,3.9-4.3,8.2-3.6,12.4
		C9.3,27.7,10.5,25.2,12.4,22.8z"/>
	<path id="XMLID_12487_" class="st3" d="M36,43.9c0,0-13.1,4.8-21.8-3.9c-6.4-6.4-7.8-15-1.8-22.1c5.9-7,5.8-8.4,5.8-8.4
		S23.7,9.7,27,13c3.3,3.3,3.1,5.8,3.1,5.8l11.1,11.1L36,43.9z"/>
	<path id="XMLID_12486_" class="st49" d="M30.1,18.8c0,0,4-1.1,10,3.5c6.8,5.2,7.5,14.3,1.8,19.5c-4.2,3.8-10.3,2.9-14.2-0.9
		c-3.6-3.6-4.3-9.9,0.4-14.6C32.4,22.1,30.1,18.8,30.1,18.8z"/>
	<path class="st20" d="M30.4,23c0.9-0.1,4.4-0.4,9.5,3.6c2.8,2.2,5,5,5.8,8c0.5-4.3-1.3-9-5.5-12.3c-6-4.6-10-3.5-10-3.5
		S31.3,20.5,30.4,23z"/>
	<path id="XMLID_12485_" class="st3" d="M30.1,18.8c0,0,4-1.1,10,3.5c6.8,5.2,7.5,14.3,1.8,19.5c-4.2,3.8-10.3,2.9-14.2-0.9
		c-3.6-3.6-4.3-9.9,0.4-14.6C32.4,22.1,30.1,18.8,30.1,18.8z"/>
	<path id="XMLID_12484_" class="st65" d="M34.1,22c1.6,4.7-3.8,7-3.8,12.5c0,4.5,4.4,6.8,6.9,6.3c3.4-0.7,5.6-3.1,5.6-8.1
		C42.8,26.3,34.1,22,34.1,22z"/>
	<path id="XMLID_12483_" class="st80" d="M32.3,38.6c-1.5-4.8-0.1-7.7,3.1-9.6c1.7-1,4.8-0.8,7,1c-1.8-4.9-8.3-8.1-8.3-8.1
		c1.6,4.7-3.8,7-3.8,12.5c0,2.1,1,3.7,2.3,4.8C32.5,39.1,32.4,38.8,32.3,38.6z"/>
	<path id="XMLID_12482_" class="st3" d="M34.1,22c1.6,4.7-3.8,7-3.8,12.5c0,4.5,4.4,6.8,6.9,6.3c3.4-0.7,5.6-3.1,5.6-8.1
		C42.8,26.3,34.1,22,34.1,22z"/>
	<path id="XMLID_12481_" class="st102" d="M34.1,22c-0.9-2.1-4-3.2-4-3.2"/>
</g>
</svg>
