<svg xmlns="http://www.w3.org/2000/svg" viewBox="0 0 379.733 75.571">
  <defs>
    <style>
      .cls-1 {
        fill: #2cc675;
      }

      .cls-2 {
        fill: #9be2bd;
      }
    </style>
  </defs>
  <title>new_logo_1</title>
  <g id="Шар_2" data-name="Шар 2">
    <g id="Шар_1-2" data-name="Шар 1">
      <g>
        <g>
          <path class="cls-1" d="M11.25.714A8.529,8.529,0,0,0,13.35,1h4.364q12.786,1.271,17,2.825,5.322,1.484,6.715,3.248a35.309,35.309,0,0,0,2,3.249A9.962,9.962,0,0,1,44,13.712v1.271A9.746,9.746,0,0,1,41,21.9a53.343,53.343,0,0,0-5.286,2.825q4.428,1.095,5.572,2.26a7,7,0,0,1,4,3.672A5.15,5.15,0,0,1,46,33.345v3.248a10.216,10.216,0,0,1-1.286,4.944,7.723,7.723,0,0,1-3.428,4.378q-7,3.815-8.572,3.814,0,.248-5.285.424A28.6,28.6,0,0,1,22,51H19.79s-2.883.51-5.2,1.073q-3.2.28-10.406.281Q.8,51.9.805,49.12c0-1.735,1.125-2.766,3.375-3.12H9V43.073c-.414-2.086-1-4.36-1-4.36V32H6.29C4.157,32.245,3,29.432,3,29.432V29q0-2.035,2.55-3,.112,0,3.3-.429-.225,0-.45-7.857-.15,0-.3-9.143l-.15-.714Q5.925,8,4.95,8h-.9Q.638,8,0,5.143V4.714Q0,2.071,3.6,1.571A38.917,38.917,0,0,0,11.25.714ZM13.579,8q0,1.2.14,8.578A29.6,29.6,0,0,1,14,19.531v3.094a9.805,9.805,0,0,0,.281,2.391q2.947-.562,6.175-1.407a29.357,29.357,0,0,1,5.755-1.547,7.285,7.285,0,0,0,2.105-.984l2.666-.984q1.4,0,5.755-2.532.912,0,1.263-2.25V13.906q-1.158-2.531-2.667-2.531a43.445,43.445,0,0,0-12.21-2.813A30.012,30.012,0,0,1,18.632,8ZM15,31.4v7.453c.1,1.2,1,5.344,1,5.344v.708a42.377,42.377,0,0,1,6.682-.984,4.074,4.074,0,0,1,1.5.281,74.827,74.827,0,0,1,8.045-.844,15.542,15.542,0,0,0,3.955-2.109q3-.7,3-2.812A3.613,3.613,0,0,0,40,36.609V33.8q-.171-.808-2.455-2.109A23.471,23.471,0,0,0,31,30.141,6.047,6.047,0,0,0,29.364,30H24.43S19.579,30.745,15,31.4Z"/>
          <path class="cls-1" d="M54.383,15.109q.633.282,11.813.7a3.478,3.478,0,0,1,2.109,3.094q0,2.6-3.375,3.094h-.281Q52.7,22,52.7,20.875A2.876,2.876,0,0,1,51.149,18.2Q51.149,15.707,54.383,15.109Zm5.55.529q2.133,0,3.067,2.8v14.51l1,8.859v3.235s2.781.937,3,2.812v.422C67.18,50.011,63.805,51,63.805,51H60.993s-3.047.417-4.922.51q-2.5,0-3.094-3.234c0-1.734,1.125-2.765,3.375-3.276H57V40.542a60.652,60.652,0,0,1,0-8.3V20.305a16.767,16.767,0,0,0-.133-1.867Q56.867,16.27,59.933,15.638ZM59.586,3.7q2.5,0,3.094,3.234,0,2.5-3.234,3.094-2.5,0-3.094-3.234Q56.352,4.294,59.586,3.7Z"/>
          <path class="cls-1" d="M80.551,0h.559q5.315,0,10.348,4.767,5.208,4.26,6.851,7.8.525.216,1.958,3.466a42.545,42.545,0,0,1,3.775,8.667A21.212,21.212,0,0,1,106,33.511V33.8q-.806,7.728-2.377,9.967-2.517,3.177-4.2,5.777a19.419,19.419,0,0,0-2.517,2.312,6.013,6.013,0,0,1-4.055,1.588q-2.1,0-6.712.145-3.7,0-9.788-4.767a10.243,10.243,0,0,0-1.818-2.6A14.686,14.686,0,0,1,73,38.856V36.733q0-4.465,1.174-6A19.1,19.1,0,0,1,76.913,26.2a17.874,17.874,0,0,1,4.3-3.6q4.044-2.667,6.131-2.667.553-.532,5.739-1.466A33.164,33.164,0,0,0,91.13,15q-.456-1.233-4.3-4.8-3.717-2.932-5.217-2.933c0-.155-.3-.245-.913-.267H79.652L79,7.133V9.4q0,3.033-2.609,3.6h-.175q-2.587,0-3.076-3.467,0-.793-.559-5.777Q73.209.145,75.936.144q.978.11.979.289A11.335,11.335,0,0,1,80.551,0ZM79,36.885v.985q0,3.9,1.125,4.922a8.811,8.811,0,0,0,4.5,3.093l1.687.563q3.657-.141,5.766-.141,1.23,0,3.938-4.078,2.389-2.391,2.39-3.516.456,0,1.125-5.765A13.682,13.682,0,0,0,97.7,26.62a4.273,4.273,0,0,0-.422-1.547A24.123,24.123,0,0,0,91.094,26.2a20.065,20.065,0,0,1-3.375.984A16.656,16.656,0,0,0,83.359,30a9.046,9.046,0,0,0-3.375,4.218A6.693,6.693,0,0,0,79,36.885Z"/>
          <path class="cls-1" d="M125.612,15H131.2a44.466,44.466,0,0,1,9.333.949q2-.139,2.934-.14,3.2.422,3.2,3.093,0,2.461-3.2,2.953Q141.234,22,140,22V45.059a12.635,12.635,0,0,0,1.6-.282q2.367,0,2.933,3.094,0,2.814-3.733,3.234-.733.141-5.067.282-3.068-.528-3.066-3.094.532-2.284,1.333-2.285V23.285q0-.7.135-2.285h-7.416q-5.494.387-5.932.387a83.48,83.48,0,0,0,1.078,14.1q.135,1.653.135,3.235V45h.15l1.5-.15q2.658,0,3.294,3.294,0,3.857-9.732,3.856h-1.785q-3.255-.531-3.254-3.113.566-2.829,2.83-2.83V38.912a96.853,96.853,0,0,0-1.132-10.824q-.072-6.474-.283-6.473-3.255-.531-3.254-3.113,0-2.475,3.4-2.971a13.053,13.053,0,0,0,2.688-.248,14.119,14.119,0,0,0,1.839.248Q120.908,15.284,125.612,15Z"/>
          <path class="cls-1" d="M167.071,15h2.418a9.12,9.12,0,0,1,5.4,1.512A17.991,17.991,0,0,1,180.3,21.68a13.543,13.543,0,0,1,1.28,3.867A6.636,6.636,0,0,1,183,29.73v4.43q0,2.426-2.276,8.754-.248,0-.568,1.266l-2.134,3.445q-4.053,4.043-8.533,4.043-11.058,0-14.08-2.215a6.523,6.523,0,0,1-2.845-5.414Q151,41.86,151,37.5V34.723q.568-4.816,1.422-6.258a22.764,22.764,0,0,1,2.56-5.977q4.268-4.851,4.978-4.851a13.32,13.32,0,0,1,6.116-2.5C166.076,15.047,166.407,15,167.071,15ZM158,35.887v3.621a31.353,31.353,0,0,0,1.267,3.586q.175,2.109.985,2.109,2.885.949,9.711.949,2.639,0,4.644-3.867A54.6,54.6,0,0,0,177,35.465V30.754a14.582,14.582,0,0,0-1.267-2.637,6.707,6.707,0,0,0-1.97-4.183Q171.052,22,170.1,22H167.43l-2.815,1.23a10.993,10.993,0,0,0-2.252,2.11,10.722,10.722,0,0,0-3.1,5.414,19.348,19.348,0,0,0-1.126,4.148Z"/>
          <path class="cls-1" d="M190.067,15q2.466,0,2.933,3.39v9.775a7.819,7.819,0,0,0,2.267,4.108,14.111,14.111,0,0,0,4.533,1.559,10.638,10.638,0,0,0,5.525-1.559q2.55-1.841,2.55-2.55a11.714,11.714,0,0,0,2.125-6.8V21.861q-3.067-.553-3.067-3.19,0-2.566,3.2-3.053.832,0,4.4-.138,4.8.415,4.8,1.11a3.073,3.073,0,0,1,1.067,2.358q0,2.566-3.2,3.052h-.933q-.4,3.677-.8,10.127-1.2,8.463-1.467,12.486V46h.04q3.336,0,3.96,2.727v.409q0,2.524-3.52,3a40.924,40.924,0,0,0-6.453.409q-2.6,0-3.227-3.136a2.923,2.923,0,0,1,2.2-2.864V44.364q0-1.261.733-6.546A19.936,19.936,0,0,1,198.787,40h.346a8.666,8.666,0,0,1-4.4-1.13q-4.4-1.729-4.4-2.966A13.811,13.811,0,0,1,187,29.548V18.814Q187,15.6,189.667,15Z"/>
          <path class="cls-1" d="M230.2,14.667c1.734,0,1.8,3.375,1.8,3.375v.7l1,11.812V41.766A29.485,29.485,0,0,0,233.829,45h1.933q.968,0,4.42-2.531a19.67,19.67,0,0,1,2.348-2.531q3.108-4.359,3.592-6.047.31,0,1.1-1.969.343,0,.69-1.688,2.209-3.936,2.21-5.625.655-.492,1.1-4.078.31,0,.553-3.093,1.311-2.25,3.176-2.25,2.556,0,3.039,3.374v5.305q0,3.7,2.133,18.533,0,.434.534,4,3.066.534,3.066,3.067-.567,3.068-2.933,3.066c-.112,0-.6-.089-1.467-.266a3.7,3.7,0,0,1-1.466.4A3.4,3.4,0,0,1,256.133,52h-.666a11.368,11.368,0,0,0-1.734.133q-2.367,0-2.933-3.066,0-2.133,2.8-3.067h1.209a51.677,51.677,0,0,1-.562-5.6l-.844-5.344a27.877,27.877,0,0,0-2.11,3.938l-3.515,5.2q-4.852,5.2-5.906,5.2a12.179,12.179,0,0,1-5.485,2.6h-2.812a10.107,10.107,0,0,1-4.782-2.6A35.946,35.946,0,0,1,226,41.526V39.979a4.429,4.429,0,0,0,0-2.391V29.713s1.012-9.89,1.106-12.937A3.476,3.476,0,0,1,230.2,14.667Z"/>
          <path class="cls-1" d="M277.239,14h6.332a19.492,19.492,0,0,1,9.572,2.109q1.643,0,5,2.532A7.52,7.52,0,0,1,300,22.859v.563a8.615,8.615,0,0,1-2.571,6.469A20.03,20.03,0,0,1,294,32.984v.172a12.245,12.245,0,0,1,6.848,6.188L301,41.031v.422q0,3.868-4.109,7.313a37.362,37.362,0,0,1-4.717,2.25A77.842,77.842,0,0,1,281.065,52h-5.373s-2.953-1.1-3.516-2.318a3.881,3.881,0,0,1-.422-1.547c.094-6.4.141-11.648.246-15.75V32.1c-.105-.258-.012-1.523,1-3.8V19.026c-1.2-1.125-1.386-1.828-1.386-2.109q0-2.778,3.937-3.235A6.788,6.788,0,0,1,277.239,14ZM278,35v3.382q0,2.133-.147,6.618h3.823q10.147-.257,10.148-1.324,2.94-.992,2.941-2.352.294-.036.441-.883,0-1.508-6.618-3.97-2.205-.883-9.264-1.471Zm0-15v8.842A25.187,25.187,0,0,1,283.189,28h3.027q4.756-.561,5.91-1.684a5.6,5.6,0,0,0,1.73-2.527.126.126,0,0,0,.144-.14v-.281q0-.807-1.3-1.122,0-.351-1.874-.562Q288.342,20,283.622,20Z"/>
          <path class="cls-1" d="M320.2,15.932q4.394,0,5.906,4.922A2.586,2.586,0,0,1,326,22.963v17.86c.575,2.6,1,3.914,1.653,3.937q8.577.352,8.578,1.407a2.949,2.949,0,0,1,.984,2.25c0,1.734-1.125,2.765-3.375,2.583h-.14a31.057,31.057,0,0,1-8.157-.193,65.608,65.608,0,0,0-9.281,1.125c-.023.093-.492.141-1.406.068H311.34A5.275,5.275,0,0,1,306,48.7q-.423,0-.7-1.969a16.031,16.031,0,0,1,1.547-7.734,14.7,14.7,0,0,1,3.235-3.094,41.909,41.909,0,0,1,8.578-5.2A1.928,1.928,0,0,1,320,30.276V23.1c.059-.469-.035-.7-.222-.7a9.673,9.673,0,0,0-4.641,1.266q-2.143,1.827-3.515,1.828-2.5,0-3.094-3.235,0-2.39,4.359-4.64Q312.887,16.812,320.2,15.932ZM312,44.672V46h3.119a20.04,20.04,0,0,1,5.288-.885A32.9,32.9,0,0,1,320,40.984V37h-.136l-4.745,3.1a8.239,8.239,0,0,1-2.034,1.771Q312.475,42.276,312,44.672Z"/>
          <path class="cls-1" d="M345.969,14.667c1.735,0,3.031,3.375,3.031,3.375V41.766A29.485,29.485,0,0,0,349.829,45h1.933q.967,0,4.42-2.531a19.67,19.67,0,0,1,2.348-2.531q3.108-4.359,3.592-6.047.31,0,1.1-1.969.344,0,.69-1.688,2.209-3.936,2.21-5.625.656-.492,1.105-4.078.31,0,.553-3.093,1.311-2.25,3.176-2.25,2.556,0,3.039,3.374v5.305q0,3.7,2.133,18.533,0,.434.534,4,3.066.534,3.066,3.067-.567,3.068-2.933,3.066c-.112,0-.6-.089-1.467-.266a3.7,3.7,0,0,1-1.466.4A3.4,3.4,0,0,1,372.133,52h-.666a11.368,11.368,0,0,0-1.734.133q-2.367,0-2.933-3.066,0-2.133,2.8-3.067h.979a51.527,51.527,0,0,1-.563-5.6l-.844-5.344a27.98,27.98,0,0,0-2.109,3.938l-3.516,5.2q-4.851,5.2-5.906,5.2a12.176,12.176,0,0,1-5.484,2.6h-2.813a10.1,10.1,0,0,1-4.781-2.6A26.226,26.226,0,0,1,342,41.526V39.979a10.784,10.784,0,0,1,1-2.391V29.713s-.218-9.89-.125-12.937A3.477,3.477,0,0,1,345.969,14.667ZM369.067,1.8Q371.533,1.8,372,5v.133q0,2.068-2.533,4.934-.334.867-3.2,2.666a6.546,6.546,0,0,1-5.2,2.267h-1.734a10.089,10.089,0,0,1-7.466-3.2Q348,6.568,348,5.667a1.055,1.055,0,0,1-.133-.534q.532-3.066,3.066-3.066,1.8,0,3.467,2.933a20.963,20.963,0,0,0,2.267,3.067A5.057,5.057,0,0,0,358.933,9H360.8q.732,0,3.6-2.267a7.723,7.723,0,0,0,2-3.466A3.434,3.434,0,0,1,369.067,1.8Z"/>
        </g>
        <path class="cls-2" d="M80.259,73.928A1305.582,1305.582,0,0,0,324.631,63.241c1.9-.263,1.094-3.154-.8-2.893A1301.484,1301.484,0,0,1,80.259,70.928c-1.93-.1-1.925,2.9,0,3Z"/>
      </g>
    </g>
  </g>
</svg>
