<?xml version="1.0" encoding="utf-8"?>
<!-- Generator: Adobe Illustrator 21.1.0, SVG Export Plug-In . SVG Version: 6.00 Build 0)  -->
<svg version="1.1" id="Icons" xmlns="http://www.w3.org/2000/svg" xmlns:xlink="http://www.w3.org/1999/xlink" x="0px" y="0px"
	 viewBox="0 0 48 48" style="enable-background:new 0 0 48 48;" xml:space="preserve">
<style type="text/css">
	.st0{opacity:0.15;fill:#45413C;}
	.st1{fill:#FF6196;}
	.st2{fill:#FF87AF;}
	.st3{fill:none;stroke:#45413C;stroke-linecap:round;stroke-linejoin:round;stroke-miterlimit:10;}
	.st4{fill:#FFE500;stroke:#45413C;stroke-linecap:round;stroke-linejoin:round;stroke-miterlimit:10;}
	.st5{fill:#FFE500;}
	.st6{fill:#EBCB00;}
	.st7{fill:#EBCB00;stroke:#45413C;stroke-linecap:round;stroke-linejoin:round;stroke-miterlimit:10;}
	.st8{fill:#FFF48C;}
	.st9{fill:#FFCCDD;stroke:#FFB0CA;stroke-linecap:round;stroke-linejoin:round;stroke-miterlimit:10;}
	.st10{fill:#FFB0CA;stroke:#FF87AF;stroke-linecap:round;stroke-linejoin:round;stroke-miterlimit:10;}
	.st11{opacity:0.7;fill:#FFE5EE;}
	.st12{fill:#009FD9;}
	.st13{fill:#00B8F0;}
	.st14{fill:#656769;}
	.st15{fill:#87898C;}
	.st16{fill:#FF6242;stroke:#45413C;stroke-linecap:round;stroke-linejoin:round;stroke-miterlimit:10;}
	.st17{fill:#4AEFF7;}
	.st18{fill:#00DFEB;}
	.st19{fill:#A6FBFF;}
	.st20{fill:#FFFFFF;}
	.st21{fill:#E5F8FF;}
	.st22{fill:#E5F8FF;stroke:#45413C;stroke-linecap:round;stroke-linejoin:round;stroke-miterlimit:10;}
	.st23{fill:#FFE500;stroke:#EBCB00;stroke-linecap:round;stroke-linejoin:round;stroke-miterlimit:10;}
	.st24{fill:#BDBEC0;}
	.st25{fill:#4ACFFF;}
	.st26{fill:#E8F4FA;stroke:#45413C;stroke-linecap:round;stroke-linejoin:round;stroke-miterlimit:10;}
	.st27{fill:#80DDFF;}
	.st28{fill:#009FD9;stroke:#45413C;stroke-linecap:round;stroke-linejoin:round;stroke-miterlimit:10;}
	.st29{fill:#B8ECFF;}
	.st30{fill:#4ACFFF;stroke:#45413C;stroke-linecap:round;stroke-linejoin:round;stroke-miterlimit:10;}
	.st31{fill:#B8ECFF;stroke:#45413C;stroke-linecap:round;stroke-linejoin:round;stroke-miterlimit:10;}
	.st32{fill:#FFFACF;}
	.st33{fill:#FFF48C;stroke:#45413C;stroke-linecap:round;stroke-linejoin:round;stroke-miterlimit:10;}
	.st34{fill:#BF8256;}
	.st35{fill:#DEA47A;}
	.st36{fill:#656769;stroke:#45413C;stroke-linecap:round;stroke-linejoin:round;stroke-miterlimit:10;}
	.st37{fill:#FF8A14;}
	.st38{fill:#FFAA54;}
	.st39{fill:#EB6D00;}
	.st40{fill:#627B8C;stroke:#45413C;stroke-linecap:round;stroke-linejoin:round;stroke-miterlimit:10;}
	.st41{fill:#FFFFFF;stroke:#45413C;stroke-linecap:round;stroke-linejoin:round;stroke-miterlimit:10;}
	.st42{fill:#E0366F;stroke:#45413C;stroke-linecap:round;stroke-linejoin:round;stroke-miterlimit:10;}
	.st43{fill:#FF87AF;stroke:#45413C;stroke-linecap:round;stroke-linejoin:round;stroke-miterlimit:10;}
	.st44{fill:#E0366F;}
	.st45{fill:#FF6196;stroke:#45413C;stroke-linecap:round;stroke-linejoin:round;stroke-miterlimit:10;}
	.st46{fill:#525252;}
	.st47{fill:#DEBB7E;}
	.st48{fill:#F0D5A8;}
	.st49{fill:#DAEDF7;}
	.st50{fill:#F7E5C6;}
	.st51{fill:#DEBB7E;stroke:#45413C;stroke-linecap:round;stroke-linejoin:round;stroke-miterlimit:10;}
	.st52{fill:#FFF5E3;}
	.st53{fill:#00F5BC;}
	.st54{fill:#FFB0CA;stroke:#45413C;stroke-linecap:round;stroke-linejoin:round;stroke-miterlimit:10;}
	.st55{fill:#8CFFE4;}
	.st56{fill:#00DBA8;}
	.st57{fill:#87898C;stroke:#45413C;stroke-linecap:round;stroke-linejoin:round;stroke-miterlimit:10;}
	.st58{fill:#FF6242;}
	.st59{fill:#FF866E;}
	.st60{fill:#F0F0F0;}
	.st61{fill:#BDBEC0;stroke:#45413C;stroke-width:1.0064;stroke-linecap:round;stroke-linejoin:round;stroke-miterlimit:10;}
	.st62{fill:#947746;stroke:#45413C;stroke-linecap:round;stroke-linejoin:round;stroke-miterlimit:10;}
	.st63{fill:#B89558;}
	.st64{fill:#E04122;}
	.st65{fill:#C0DCEB;}
	.st66{fill:#E8F4FA;}
	.st67{fill:#00B8F0;stroke:#45413C;stroke-linecap:round;stroke-linejoin:round;stroke-miterlimit:10;}
	.st68{fill:#80DDFF;stroke:#45413C;stroke-linecap:round;stroke-linejoin:round;stroke-miterlimit:10;}
	.st69{fill:#9CEB60;}
	.st70{fill:#C8FFA1;}
	.st71{fill:#FFB0CA;}
	.st72{fill:#FFCCDD;}
	.st73{fill:#FFE5EE;}
	.st74{fill:#45413C;stroke:#45413C;stroke-linecap:round;stroke-linejoin:round;stroke-miterlimit:10;}
	.st75{fill:#FFCABF;}
	.st76{fill:#FFA694;}
	.st77{fill:#FFA694;stroke:#45413C;stroke-linecap:round;stroke-linejoin:round;stroke-miterlimit:10;}
	.st78{fill:#FFCC99;}
	.st79{fill:#8CA4B8;}
	.st80{fill:#ADC4D9;}
	.st81{fill:#F0D5A8;stroke:#45413C;stroke-linecap:round;stroke-linejoin:round;stroke-miterlimit:10;}
	.st82{fill:#BDBEC0;stroke:#45413C;stroke-linecap:round;stroke-linejoin:round;stroke-miterlimit:10;}
	.st83{fill:#E0E0E0;}
	.st84{fill:#45413C;}
	.st85{fill:#E5FEFF;}
	.st86{fill:#FFFCE5;}
	.st87{fill:#FFAA54;stroke:#45413C;stroke-linecap:round;stroke-linejoin:round;stroke-miterlimit:10;}
	.st88{fill:#6DD627;}
	.st89{fill:#46B000;}
	.st90{fill:#FFE8E0;}
	.st91{fill:#FFCEBF;}
	.st92{fill:#FFE8D1;}
	.st93{fill:#FFF48C;stroke:#4F4B45;stroke-linecap:round;stroke-linejoin:round;stroke-miterlimit:10;}
	.st94{fill:#FFDCD1;stroke:#4F4B45;stroke-linejoin:round;stroke-miterlimit:10;}
	.st95{fill:none;stroke:#4F4B45;stroke-linejoin:round;stroke-miterlimit:10;}
	.st96{fill:none;stroke:#4F4B45;stroke-linecap:round;stroke-linejoin:round;stroke-miterlimit:10;}
	.st97{fill:#656769;stroke:#4F4B45;stroke-linejoin:round;stroke-miterlimit:10;}
	.st98{fill:#87898C;stroke:#4F4B45;stroke-linecap:round;stroke-linejoin:round;stroke-miterlimit:10;}
	.st99{fill:#C0DCEB;stroke:#4F4B45;stroke-linecap:round;stroke-linejoin:round;stroke-miterlimit:10;}
	.st100{fill:#FFA694;stroke:#4F4B45;stroke-linecap:round;stroke-linejoin:round;stroke-miterlimit:10;}
	.st101{fill:#E04122;stroke:#45413C;stroke-linecap:round;stroke-linejoin:round;stroke-miterlimit:10;}
	.st102{fill:#FFFCE5;stroke:#45413C;stroke-linecap:round;stroke-linejoin:round;stroke-miterlimit:10;}
	.st103{fill:#915E3A;}
	.st104{fill:none;stroke:#915E3A;stroke-linecap:round;stroke-linejoin:round;stroke-miterlimit:10;}
	.st105{fill:#915E3A;stroke:#45413C;stroke-linecap:round;stroke-linejoin:round;stroke-miterlimit:10;}
	.st106{fill:#FF866E;stroke:#45413C;stroke-linecap:round;stroke-linejoin:round;stroke-miterlimit:10;}
	.st107{fill:#FFF5E3;stroke:#45413C;stroke-linecap:round;stroke-linejoin:round;stroke-miterlimit:10;}
	.st108{fill:#FFDCD1;}
	.st109{fill:#FFDCD1;stroke:#45413C;stroke-linecap:round;stroke-linejoin:round;stroke-miterlimit:10;}
	.st110{fill:#F0C2A1;}
	.st111{fill:#FFE3CF;}
	.st112{fill:#FFFACF;stroke:#45413C;stroke-linecap:round;stroke-linejoin:round;stroke-miterlimit:10;}
	.st113{fill:#DEA47A;stroke:#45413C;stroke-linecap:round;stroke-linejoin:round;stroke-miterlimit:10;}
	.st114{fill:#F0C2A1;stroke:#45413C;stroke-linecap:round;stroke-linejoin:round;stroke-miterlimit:10;}
	.st115{fill:#EB6D00;stroke:#45413C;stroke-linecap:round;stroke-linejoin:round;stroke-miterlimit:10;}
	.st116{fill:#FF8A14;stroke:#45413C;stroke-linecap:round;stroke-linejoin:round;stroke-miterlimit:10;}
	.st117{fill:#D9FDFF;}
	.st118{fill:#C8FFA1;stroke:#45413C;stroke-linecap:round;stroke-linejoin:round;stroke-miterlimit:10;}
	.st119{fill:#E4FFD1;}
	.st120{fill:#E0E0E0;stroke:#45413C;stroke-linecap:round;stroke-linejoin:round;stroke-miterlimit:10;}
	.st121{fill:#FFCCDD;stroke:#45413C;stroke-linecap:round;stroke-linejoin:round;stroke-miterlimit:10;}
	.st122{fill:#BF8256;stroke:#45413C;stroke-linecap:round;stroke-linejoin:round;stroke-miterlimit:10;}
	.st123{fill:#C0DCEB;stroke:#45413C;stroke-linecap:round;stroke-linejoin:round;stroke-miterlimit:10;}
</style>
<g id="XMLID_11524_">
	<ellipse id="XMLID_11541_" class="st0" cx="24" cy="45.3" rx="15.1" ry="1.7"/>
	<path id="XMLID_11540_" class="st25" d="M45,18.7c-0.1-0.2-0.3-0.3-0.5-0.3c-2.2,0.4-4.2,1.8-5.3,3.9c-0.2,0.5-0.4,1-0.6,1.5
		c-0.3-0.3-0.5-0.5-0.9-0.8c-1.9-1.5-4.3-1.9-6.4-1.3c-0.2,0.1-0.4,0.3-0.4,0.5c0,2.2,1,4.4,2.9,5.9c1.3,1,2.8,1.5,4.3,1.5
		c-0.1,1.2-0.9,2.7-4,2.9c-4,0.3-4.2-4.5-5.9-7.9c-1.7-4.1-5.7-7.1-10.4-7.4c-6.6-0.4-12.7,4.7-13.1,11.3c-0.4,6.6,2.7,12,10.8,14
		c11.5,2.9,21.1,0.3,24.8-5.1c2.9-4.4,1.4-7.7,0.8-8.8c1.6-0.6,3.1-1.8,3.9-3.5C46,23.1,46,20.7,45,18.7z"/>
	<g id="XMLID_11537_">
		<path id="XMLID_11539_" class="st27" d="M39.2,25.3c1-2.1,3-3.6,5.3-4c0.2,0,0.4,0.1,0.5,0.3c0.3,0.6,0.5,1.2,0.6,1.8
			c0.3-1.6,0.1-3.3-0.6-4.7c-0.1-0.2-0.3-0.3-0.5-0.3c-2.2,0.4-4.2,1.8-5.3,3.9c-0.2,0.5-0.4,1-0.6,1.5c-0.3-0.3-0.5-0.5-0.9-0.8
			c-1.9-1.5-4.3-1.9-6.4-1.3c-0.2,0.1-0.4,0.3-0.4,0.5c0,0.8,0.1,1.6,0.4,2.4c2-0.6,4.3-0.2,6.1,1.1C38,26.2,38.9,25.9,39.2,25.3z"
			/>
		<path id="XMLID_11538_" class="st27" d="M17.8,20.4c4.7,0.3,8.7,3.3,10.4,7.4c1.6,3.4,2.3,6.5,6.3,6.2c3.1-0.2,3.4-3,3.6-4.2
			c-0.1,1.2-0.9,2.7-4,2.9c-4,0.3-4.2-4.5-5.9-7.9c-1.7-4.1-5.7-7.1-10.4-7.4c-6.6-0.4-12.7,4.7-13.1,11.3c0,0.8,0,1.7,0,2.5
			C5.3,24.8,11.3,20,17.8,20.4z"/>
	</g>
	<path id="XMLID_11536_" class="st3" d="M45,18.7c-0.1-0.2-0.3-0.3-0.5-0.3c-2.2,0.4-4.2,1.8-5.3,3.9c-0.2,0.5-0.4,1-0.6,1.5
		c-0.3-0.3-0.5-0.5-0.9-0.8c-1.9-1.5-4.3-1.9-6.4-1.3c-0.2,0.1-0.4,0.3-0.4,0.5c0,2.2,1,4.4,2.9,5.9c1.3,1,2.8,1.5,4.3,1.5
		c-0.1,1.2-0.9,2.7-4,2.9c-4,0.3-4.2-4.5-5.9-7.9c-1.7-4.1-5.7-7.1-10.4-7.4c-6.6-0.4-12.7,4.7-13.1,11.3c-0.4,6.6,2.7,12,10.8,14
		c11.5,2.9,21.1,0.3,24.8-5.1c2.9-4.4,1.4-7.7,0.8-8.8c1.6-0.6,3.1-1.8,3.9-3.5C46,23.1,46,20.7,45,18.7z"/>
	
		<ellipse id="XMLID_11535_" transform="matrix(5.445496e-02 -0.9985 0.9985 5.445496e-02 -15.2829 37.5984)" class="st74" cx="12.2" cy="26.9" rx="1.4" ry="1.4"/>
	<path id="XMLID_11534_" class="st38" d="M20,30.7c-0.1,0.6-0.8,1-1.8,0.9c-0.9,0-1.6-0.5-1.6-1.1c0.1-0.6,0.8-1,1.8-0.9
		C19.4,29.7,20.1,30.2,20,30.7z"/>
	<path id="XMLID_11533_" class="st17" d="M17.9,15.2c0,0-1.2-4.1-4.8-4.9c-3.6-0.8-5.3,1.5-7.8-1.3c-2.5-2.8,1.6-7,6.3-5.2
		C15.5,5.2,18.3,8.6,17.9,15.2z"/>
	<path id="XMLID_11532_" class="st17" d="M19.8,10c0,0,0-5,2.5-6.8c2.5-1.8,5.8-0.3,5.8,1.9c0,2.2-2.3,2.3-4.4,2.4
		C21.4,7.6,19.8,10,19.8,10z"/>
	<path class="st19" d="M11.6,3.7C7.4,2.1,3.7,5.3,4.8,8.1c0.9-1.9,3.7-3.2,6.7-2c3.3,1.3,5.8,3.9,6.2,8.6c0.1,0.3,0.2,0.5,0.2,0.5
		l0,0C18.3,8.6,15.5,5.2,11.6,3.7z"/>
	<path id="XMLID_11531_" class="st19" d="M20,9.8c0.3-1.5,0.9-3.4,2.2-4.3c2.1-1.5,4.7-0.7,5.5,0.9C28,6,28.2,5.6,28.2,5.1
		c0-2.2-3.3-3.8-5.8-1.9C19.9,5,19.8,10,19.8,10S19.9,9.9,20,9.8z"/>
	<path id="XMLID_11530_" class="st3" d="M17.9,15.2c0,0-1.2-4.1-4.8-4.9c-3.6-0.8-5.3,1.5-7.8-1.3c-2.5-2.8,1.6-7,6.3-5.2
		C15.5,5.2,18.3,8.6,17.9,15.2z"/>
	<path id="XMLID_11529_" class="st3" d="M19.8,10c0,0,0-5,2.5-6.8c2.5-1.8,5.8-0.3,5.8,1.9c0,2.2-2.3,2.3-4.4,2.4
		C21.4,7.6,19.8,10,19.8,10z"/>
	<path class="st41" d="M39.4,38.8c-7.5,3.7-15.8-0.7-22.2-2.8c-1.6-0.5-3.2-1-4.7-1.5c-2.4,1.4-5,1.5-6.6,1.3c1.6,3.3,4.6,5.7,9.6,7
		C26.1,45.4,35.2,43.4,39.4,38.8z"/>
	<path id="XMLID_11528_" class="st3" d="M9.5,35.6c1.5,2.2,6.2,3.9,8.9,4.6c6.5,1.8,14.8,2,16,2"/>
	<path id="XMLID_11527_" class="st30" d="M20.5,35.9c0,0-1.2,2.9,1,6.3c1.6,2.5,4.8,3.3,6.3,3.5c0.5,0.1,0.9-0.3,0.9-0.8
		c0-2.1-0.2-7.5-2-9.3"/>
	<path id="XMLID_11526_" class="st3" d="M14.5,31c-0.5,1.4,0.2,2.7,2,2.6"/>
	<path id="XMLID_11525_" class="st3" d="M12.6,34.5c0.7-0.4,1.4-0.9,2.1-1.6"/>
</g>
</svg>
