<svg id="icons" enable-background="new 0 0 64 64" height="512" viewBox="0 0 64 64" width="512" xmlns="http://www.w3.org/2000/svg"><path d="m44 60.01v.99c0 1.11-.89 2-2 2h-20c-1.1 0-2-.89-2-2v-.99h1 22z" fill="#e6e9ed"/><path d="m32.03 43c.81.02 1.46.69 1.46 1.5 0 .83-.66 1.49-1.49 1.5h-.01c-.83 0-1.5-.67-1.5-1.5 0-.81.66-1.49 1.479-1.5l.031.02z" fill="#aab2bd"/><path d="m43 59.94v.069h-22v-3.009c0-6.07 4.92-10.99 10.99-11h.01c6.08 0 11 4.93 11 11z" fill="#ccd1d9"/><path d="m32 46h-.01c-.68.001-1.342.072-1.987.191 5.119.944 8.993 5.424 8.993 10.809v2.94.069h4.004v-.069-2.94c0-6.07-4.92-11-11-11z" fill="#aab2bd"/><path d="m59 28c-2.3-2.47-5.49-4-9.01-4-3.521 0-6.7 1.53-9 4-2.3-2.47-5.49-4-9.01-4-3.521 0-6.7 1.53-9 4-2.301-2.47-5.48-4-9.011-4-3.5 0-6.67 1.51-8.97 3.96.021-14.89 12.101-26.96 27.001-26.96 14.91 0 27 12.09 27 27z" fill="#ed5565"/><path d="m54.829 25.025c1.573.694 2.991 1.707 4.171 2.975 0-14.91-12.09-27-27-27-.674 0-1.341.033-2.002.082 12.987.953 23.422 11.088 24.831 23.943z" fill="#da4453"/><path d="m59 29c-.553 0-1-.447-1-1 0-14.337-11.663-26-26-26s-26 11.663-26 26c0 .553-.447 1-1 1s-1-.447-1-1c0-15.439 12.561-28 28-28s28 12.561 28 28c0 .553-.447 1-1 1z"/><path d="m59 28.996c-.268 0-.535-.107-.731-.318-2.211-2.374-5.151-3.682-8.28-3.682-3.125 0-6.063 1.307-8.272 3.68-.377.406-1.086.406-1.463 0-2.211-2.373-5.148-3.68-8.272-3.68-3.125 0-6.063 1.307-8.273 3.68-.188.203-.454.318-.731.318-.277 0-.543-.115-.731-.318-2.21-2.373-5.147-3.68-8.272-3.68-3.109 0-6.037 1.293-8.243 3.642-.377.404-1.011.422-1.413.044s-.423-1.011-.044-1.413c2.588-2.755 6.032-4.272 9.7-4.272 3.35 0 6.51 1.266 9.004 3.585 2.495-2.319 5.656-3.585 9.005-3.585s6.509 1.266 9.004 3.585c2.494-2.319 5.654-3.585 9.004-3.585 3.69 0 7.15 1.533 9.743 4.318.377.404.354 1.037-.05 1.413-.196.179-.441.268-.685.268z"/><path d="m31.997 44.011c-.165 0-.332-.041-.486-.127l-26.998-15.058c-.482-.269-.655-.878-.386-1.36s.878-.655 1.36-.386l26.998 15.058c.482.269.655.878.386 1.36-.183.328-.523.513-.874.513z"/><path d="m31.999 44.011c-.34 0-.671-.173-.858-.485l-9.022-15.017c-.284-.473-.131-1.087.343-1.372.475-.285 1.088-.13 1.372.343l9.022 15.017c.284.473.131 1.087-.343 1.372-.161.096-.339.142-.514.142z"/><path d="m31.997 44.011c-.175 0-.352-.046-.513-.142-.474-.284-.628-.898-.345-1.372l8.986-15.017c.284-.473.897-.627 1.372-.345.474.284.628.898.345 1.372l-8.986 15.017c-.187.313-.519.487-.859.487z"/><path d="m31.999 44.011c-.352 0-.692-.186-.875-.514-.269-.483-.095-1.092.388-1.36l27.002-15.015c.485-.27 1.093-.094 1.36.388.269.483.095 1.092-.388 1.36l-27.002 15.015c-.154.086-.321.126-.485.126z"/><path d="m45.001 61.002h-26.001c-.553 0-1-.447-1-1s.447-1 1-1h26.001c.553 0 1 .447 1 1s-.447 1-1 1z"/><path d="m43.002 58c-.553 0-1-.447-1-1 0-5.514-4.486-10-10-10s-10 4.486-10 10c0 .553-.447 1-1 1s-1-.447-1-1c0-6.617 5.383-12 12-12s12 5.383 12 12c0 .553-.447 1-1 1z"/><path d="m21.002 61.002c-.553 0-1-.447-1-1v-3.002c0-.553.447-1 1-1s1 .447 1 1v3.002c0 .553-.447 1-1 1z"/><path d="m43 60.938c-.553 0-1-.447-1-1v-2.938c0-.553.447-1 1-1s1 .447 1 1v2.938c0 .552-.447 1-1 1z"/><path d="m22.001 64c-1.654 0-3-1.346-3-3 0-.553.447-1 1-1s1 .447 1 1c0 .552.448 1 1 1 .553 0 1 .447 1 1s-.447 1-1 1z"/><path d="m41.999 64c-.553 0-1-.447-1-1s.447-1 1-1c.552 0 1-.448 1-1 0-.553.447-1 1-1s1 .447 1 1c0 1.654-1.346 3-3 3z"/><path d="m41.999 64h-19.998c-.553 0-1-.447-1-1s.447-1 1-1h19.998c.553 0 1 .447 1 1s-.447 1-1 1z"/><path d="m44.001 62c-.553 0-1-.447-1-1v-.998c0-.553.447-1 1-1s1 .447 1 1v.998c0 .553-.447 1-1 1z"/><path d="m20.002 62c-.553 0-1-.447-1-1v-.998c0-.553.447-1 1-1s1 .447 1 1v.998c0 .553-.447 1-1 1z"/><path d="m31.99 47c-1.379 0-2.5-1.121-2.5-2.5s1.121-2.5 2.5-2.5 2.5 1.121 2.5 2.5-1.121 2.5-2.5 2.5zm0-3c-.275 0-.5.225-.5.5s.225.5.5.5.5-.225.5-.5-.224-.5-.5-.5z"/></svg>