<svg height="480pt" viewBox="0 0 480 480" width="480pt" xmlns="http://www.w3.org/2000/svg"><path d="m224 168h32v304h-32zm0 0" fill="#58595b"/><path d="m304 168c8.835938 0 16-7.164062 16-16v-128c0-8.835938-7.164062-16-16-16h-128c-8.835938 0-16 7.164062-16 16v128c0 8.835938 7.164062 16 16 16zm-88-80v-48h48c8.835938 0 16 7.164062 16 16v16c0 8.835938-7.164062 16-16 16zm0 0" fill="#2488ff"/><path d="m280 72v-16c0-8.835938-7.164062-16-16-16h-48v48h48c8.835938 0 16-7.164062 16-16zm0 0" fill="#2488ff"/><path d="m104 384c0 4.417969-3.582031 8-8 8s-8-3.582031-8-8 3.582031-8 8-8 8 3.582031 8 8zm0 0" fill="#9bc9ff"/><path d="m400 400c0 4.417969-3.582031 8-8 8s-8-3.582031-8-8 3.582031-8 8-8 8 3.582031 8 8zm0 0" fill="#9bc9ff"/><path d="m320 288c-8.835938 0-16 7.164062-16 16v16h24c8.835938 0 16 7.164062 16 16s-7.164062 16-16 16h-24v48h48c0-22.089844 17.910156-40 40-40s40 17.910156 40 40h48v-112zm0 0" fill="#ffcd00"/><path d="m344 336c0-8.835938-7.164062-16-16-16h-24v32h24c8.835938 0 16-7.164062 16-16zm0 0" fill="#e6e7e8"/><path d="m392 392c-4.417969 0-8 3.582031-8 8h16c0-4.417969-3.582031-8-8-8zm0 0" fill="#9bc9ff"/><path d="m392 360c-22.089844 0-40 17.910156-40 40s17.910156 40 40 40 40-17.910156 40-40-17.910156-40-40-40zm0 48c-4.417969 0-8-3.582031-8-8s3.582031-8 8-8 8 3.582031 8 8-3.582031 8-8 8zm0 0" fill="#414042"/><path d="m480 288h-128l43.574219-87.152344c2.710937-5.421875 8.253906-8.847656 14.3125-8.847656h70.113281zm0 0" fill="#d1d3d4"/><path d="m96 376c-4.417969 0-8 3.582031-8 8h16c0-4.417969-3.582031-8-8-8zm0 0" fill="#9bc9ff"/><path d="m168 272h-168v112h56c0-22.089844 17.910156-40 40-40s40 17.910156 40 40h32c8.835938 0 16-7.164062 16-16v-80c0-8.835938-7.164062-16-16-16zm0 0" fill="#ff3051"/><path d="m96 344c-22.089844 0-40 17.910156-40 40s17.910156 40 40 40 40-17.910156 40-40-17.910156-40-40-40zm0 48c-4.417969 0-8-3.582031-8-8s3.582031-8 8-8 8 3.582031 8 8-3.582031 8-8 8zm0 0" fill="#414042"/><path d="m88 272h-88v-80h45.167969c6.535156.007812 12.40625 3.988281 14.832031 10.054688zm0 0" fill="#d1d3d4"/><g fill="#231f20"><path d="m264 176h40c13.253906 0 24-10.746094 24-24v-128c0-13.253906-10.746094-24-24-24h-128c-13.253906 0-24 10.746094-24 24v128c0 13.253906 10.746094 24 24 24h40v288h-216v16h480v-16h-216zm-96-24v-128c0-4.417969 3.582031-8 8-8h128c4.417969 0 8 3.582031 8 8v128c0 4.417969-3.582031 8-8 8h-128c-4.417969 0-8-3.582031-8-8zm64 312v-288h16v288zm0 0"/><path d="m224 96h40c13.253906 0 24-10.746094 24-24v-16c0-13.253906-10.746094-24-24-24h-48c-4.417969 0-8 3.582031-8 8v96c0 4.417969 3.582031 8 8 8s8-3.582031 8-8zm48-40v16c0 4.417969-3.582031 8-8 8h-40v-32h40c4.417969 0 8 3.582031 8 8zm0 0"/><path d="m480 184h-70.113281c-9.097657-.03125-17.421875 5.113281-21.460938 13.265625l-41.371093 82.734375h-27.054688c-13.253906 0-24 10.746094-24 24v104h48.71875c3.882812 23.085938 23.871094 39.992188 47.28125 39.992188s43.398438-16.90625 47.28125-39.992188h40.71875v-16h-40.71875c-3.882812-23.085938-23.871094-39.992188-47.28125-39.992188s-43.398438 16.90625-47.28125 39.992188h-32.71875v-32h16c13.253906 0 24-10.746094 24-24s-10.746094-24-24-24h-16v-8c0-4.417969 3.582031-8 8-8h160v-16h-115.054688l37.789063-75.574219c1.347656-2.71875 4.121094-4.433593 7.152344-4.425781h70.113281zm-88 184c17.671875 0 32 14.328125 32 32s-14.328125 32-32 32-32-14.328125-32-32 14.328125-32 32-32zm-64-40c4.417969 0 8 3.582031 8 8s-3.582031 8-8 8h-16v-16zm0 0"/><path d="m464 312h16v64h-16zm0 0"/><path d="m404.800781 224.414062-4.351562 13.058594 15.199219 5.054688 4.351562-13.054688c1.082031-3.246094 4.105469-5.445312 7.527344-5.472656h36.472656v-16h-36.472656c-10.316406.019531-19.46875 6.628906-22.726563 16.414062zm0 0"/><path d="m96 432c23.398438-.042969 43.359375-16.933594 47.28125-40h24.71875c13.253906 0 24-10.746094 24-24v-80c0-13.253906-10.746094-24-24-24h-74.585938l-25.957031-64.910156c-3.621093-9.132813-12.464843-15.121094-22.289062-15.089844h-45.167969v16h45.167969c3.273437-.011719 6.222656 1.984375 7.425781 5.03125l23.589844 58.96875h-76.183594v16h168c4.417969 0 8 3.582031 8 8v80c0 4.417969-3.582031 8-8 8h-24.71875c-3.882812-23.085938-23.871094-39.992188-47.28125-39.992188s-43.398438 16.90625-47.28125 39.992188h-48.71875v16h48.71875c3.921875 23.066406 23.882812 39.957031 47.28125 40zm0-80c17.671875 0 32 14.328125 32 32s-14.328125 32-32 32-32-14.328125-32-32 14.328125-32 32-32zm0 0"/><path d="m0 288h80v16h-80zm0 0"/><path d="m112 384c0 8.835938-7.164062 16-16 16s-16-7.164062-16-16 7.164062-16 16-16 16 7.164062 16 16zm0 0"/><path d="m408 400c0 8.835938-7.164062 16-16 16s-16-7.164062-16-16 7.164062-16 16-16 16 7.164062 16 16zm0 0"/><path d="m0 352h40v16h-40zm0 0"/></g></svg>