<?xml version="1.0" encoding="iso-8859-1"?>
<!-- Generator: Adobe Illustrator 19.0.0, SVG Export Plug-In . SVG Version: 6.00 Build 0)  -->
<svg version="1.1" id="Capa_1" xmlns="http://www.w3.org/2000/svg" xmlns:xlink="http://www.w3.org/1999/xlink" x="0px" y="0px"
	 viewBox="0 0 512 512" style="enable-background:new 0 0 512 512;" xml:space="preserve">
<path style="fill:#FF5C5C;" d="M368,250.969c0,61.856-112,192-112,192s-112-130.144-112-192s50.144-112,112-112
	S368,189.114,368,250.969z"/>
<path style="fill:#ED4040;" d="M160,242.969c0-40.67,21.679-76.275,54.109-95.895C173.008,163.663,144,203.926,144,250.969
	c0,61.856,112,192,112,192s4.338-5.043,11.29-13.59C246.033,403.852,160,297.184,160,242.969z"/>
<circle style="fill:#FFFFFF;" cx="256" cy="250.97" r="48"/>
<g>
	<circle style="fill:#A6DCE5;" cx="368" cy="402.47" r="16"/>
	<circle style="fill:#A6DCE5;" cx="144" cy="402.47" r="16"/>
	<path style="fill:#A6DCE5;" d="M432,418.469L432,418.469c-8.837,0-16-7.163-16-16v-16c0-8.837,7.163-16,16-16l0,0
		c8.837,0,16,7.163,16,16v16C448,411.306,440.837,418.469,432,418.469z"/>
	<path style="fill:#A6DCE5;" d="M80,418.469L80,418.469c-8.837,0-16-7.163-16-16v-16c0-8.837,7.163-16,16-16l0,0
		c8.837,0,16,7.163,16,16v16C96,411.306,88.837,418.469,80,418.469z"/>
</g>
<path style="fill:#FFBDD4;" d="M184.5,186.469l33.781-30.873c8.292-7.578,8.292-19.865,0-27.443l0,0
	c-8.292-7.578-21.736-7.578-30.028,0l-3.753,3.43l-3.754-3.43c-8.292-7.578-21.736-7.578-30.027,0l0,0
	c-8.292,7.578-8.292,19.865,0,27.443L184.5,186.469z"/>
<g>
	<path style="fill:#F9A2C3;" d="M197.5,123.583l0.545-0.499c-0.291,0.067-0.584,0.121-0.873,0.2L197.5,123.583z"/>
	<path style="fill:#F9A2C3;" d="M163.719,147.596c-7.344-6.712-8.17-17.112-2.504-24.668c-3.845,0.762-7.507,2.493-10.496,5.225l0,0
		c-8.292,7.578-8.292,19.865,0,27.443l33.781,30.873l10.877-9.941L163.719,147.596z"/>
</g>
<path style="fill:#FFBDD4;" d="M104.5,132.469l33.781-30.873c8.292-7.578,8.292-19.865,0-27.443l0,0
	c-8.292-7.578-21.736-7.578-30.028,0l-3.753,3.43l-3.754-3.43c-8.292-7.578-21.736-7.578-30.027,0l0,0
	c-8.292,7.578-8.292,19.865,0,27.443L104.5,132.469z"/>
<g>
	<path style="fill:#F9A2C3;" d="M117.5,69.583l0.545-0.499c-0.291,0.067-0.584,0.121-0.873,0.2L117.5,69.583z"/>
	<path style="fill:#F9A2C3;" d="M83.719,93.596c-7.344-6.712-8.17-17.112-2.504-24.668c-3.845,0.762-7.507,2.493-10.496,5.225l0,0
		c-8.292,7.578-8.292,19.865,0,27.443l33.781,30.873l10.877-9.941L83.719,93.596z"/>
</g>
<path d="M256,306.469c30.603,0,55.5-24.898,55.5-55.5s-24.897-55.5-55.5-55.5s-55.5,24.898-55.5,55.5S225.397,306.469,256,306.469z
	 M256,210.469c22.331,0,40.5,18.168,40.5,40.5s-18.169,40.5-40.5,40.5c-22.332,0-40.5-18.168-40.5-40.5S233.668,210.469,256,210.469
	z"/>
<path d="M439,435.969v-11.234c10-3.138,16-11.93,16-22.266v-16c0-12.958-10.542-23.5-23.5-23.5s-23.5,10.542-23.5,23.5v16
	c0,10.335,7,19.127,16,22.266v11.234h-49v-11.234c10-3.138,16.25-11.93,16.25-22.266c0-12.958-10.417-23.5-23.375-23.5
	s-23.688,10.542-23.688,23.5c0,10.335,6.813,19.127,15.813,22.266v11.234h-87.968c28.195-35,103.468-131.685,103.468-184.75
	c0-65.893-53.607-119.625-119.5-119.625c-8.513,0-16.953,0.84-25.199,2.61c-1.376-4.328-3.908-8.31-7.461-11.557
	c-10.643-9.726-27.704-10.114-38.841-1.138c-11.137-8.979-28.198-8.612-38.841,1.114c-5.584,5.104-8.659,11.939-8.659,19.254
	s3.075,14.152,8.659,19.256l38.841,35.496l38.841-35.497c3.572-3.265,6.112-7.243,7.482-11.598
	c8.197-2.026,16.642-3.065,25.177-3.065c57.622,0,104.5,46.879,104.5,104.5c0,23.736-18.876,63.438-54.586,114.812
	c-20.072,28.876-40.342,53.973-49.914,65.525c-9.557-11.532-29.78-36.569-49.842-65.422C170.4,314.46,151.5,274.722,151.5,250.969
	c0-15.674,3.382-30.74,10.052-44.782l-13.549-6.436c-7.633,16.068-11.503,33.551-11.503,51.468
	c0,53.065,75.273,149.75,103.468,184.75H151v-11.234c10-3.138,16.25-11.93,16.25-22.266c0-12.958-10.417-23.5-23.375-23.5
	s-23.688,10.542-23.688,23.5c0,10.335,6.813,19.127,15.813,22.266v11.234H87v-11.234c10-3.138,16-11.93,16-22.266v-16
	c0-12.958-10.542-23.5-23.5-23.5S56,373.511,56,386.469v16c0,10.335,7,19.127,16,22.266v11.234H0v15h512v-15H439z M213.222,150.06
	L184.5,176.309l-28.722-26.249c-2.437-2.227-3.778-5.134-3.778-8.186s1.342-5.959,3.778-8.186c2.698-2.466,6.326-3.698,9.955-3.698
	c3.628,0,7.256,1.232,9.954,3.698l8.814,8.056l8.813-8.056c5.395-4.931,14.512-4.931,19.909,0c2.437,2.227,3.778,5.134,3.778,8.186
	C217,144.926,215.658,147.834,213.222,150.06z M79.5,410.969c-4.687,0-8.5-3.814-8.5-8.5v-16c0-4.687,3.813-8.5,8.5-8.5
	s8.5,3.813,8.5,8.5v16C88,407.156,84.187,410.969,79.5,410.969z M144,410.969c-4.687,0-8.5-3.814-8.5-8.5c0-4.687,3.813-8.5,8.5-8.5
	s8.5,3.813,8.5,8.5S148.687,410.969,144,410.969z M368,410.969c-4.687,0-8.5-3.814-8.5-8.5c0-4.687,3.813-8.5,8.5-8.5
	s8.5,3.813,8.5,8.5S372.687,410.969,368,410.969z M431.5,410.969c-4.687,0-8.5-3.814-8.5-8.5v-16c0-4.687,3.813-8.5,8.5-8.5
	s8.5,3.813,8.5,8.5v16C440,407.156,436.187,410.969,431.5,410.969z"/>
<path d="M65.659,107.133L104.5,142.63l38.841-35.497C148.925,102.029,152,95.19,152,87.875s-3.075-14.154-8.659-19.258
	c-10.643-9.727-27.704-10.1-38.841-1.122c-11.137-8.979-28.198-8.604-38.841,1.122C60.075,73.72,57,80.559,57,87.875
	C57,95.19,60.075,102.029,65.659,107.133z M75.778,79.689c2.698-2.466,6.326-3.698,9.955-3.698c3.627,0,7.256,1.232,9.954,3.698
	l8.814,8.056l8.813-8.056c5.395-4.932,14.512-4.932,19.909,0c2.437,2.227,3.778,5.134,3.778,8.186c0,3.052-1.342,5.959-3.778,8.186
	L104.5,122.309L75.778,96.06C73.342,93.834,72,90.926,72,87.875C72,84.823,73.342,81.916,75.778,79.689z"/>
<g>
	<rect x="272" y="339.47" style="fill:#FFFFFF;" width="16" height="15"/>
	<rect x="176" y="211.47" style="fill:#FFFFFF;" width="16" height="15"/>
</g>
<g>
</g>
<g>
</g>
<g>
</g>
<g>
</g>
<g>
</g>
<g>
</g>
<g>
</g>
<g>
</g>
<g>
</g>
<g>
</g>
<g>
</g>
<g>
</g>
<g>
</g>
<g>
</g>
<g>
</g>
</svg>
