<?xml version="1.0" encoding="iso-8859-1"?>
<!-- Generator: Adobe Illustrator 19.0.0, SVG Export Plug-In . SVG Version: 6.00 Build 0)  -->
<svg version="1.1" id="Capa_1" xmlns="http://www.w3.org/2000/svg" xmlns:xlink="http://www.w3.org/1999/xlink" x="0px" y="0px"
	 viewBox="0 0 512 512" style="enable-background:new 0 0 512 512;" xml:space="preserve">
<circle style="fill:#69CDFF;" cx="256" cy="267" r="245"/>
<path style="fill:#FFC610;" d="M384.927,404.763c-0.815-0.099-2.478-0.787-3.124-1.293L222.579,244.245
	c-1.75-1.749-3.922-2.968-6.273-3.588c-0.639-0.298-1.342-0.476-2.089-0.476H45.614c-2.75,0-5,2.25-5,5v16.862v1.183V278
	c0,2.75,2.25,5,5,5h168.602c2.121,0,3.931-1.344,4.655-3.217l143.388,143.388c5.5,5.501,14.774,9.343,22.554,9.343h51.813
	c7.973-8.696,15.326-17.969,21.99-27.75L384.927,404.763L384.927,404.763z"/>
<g>
	<path style="fill:#A4ECFF;" d="M362.935,78.64H219.817c0.001,0.044,0.013,0.086,0.013,0.13v24.414c0,2.206-1.795,4-4,4h-8.614
		c-0.552,0-1,0.447-1,1v23.735h68.899c5.428,0,9.866-3.994,9.866-8.879c0-4.885-4.438-8.881-9.866-8.881h-24.427
		c-5.428,0-9.867-3.996-9.867-8.879c0-4.885,4.439-8.88,9.867-8.88h112.248c5.427,0,9.866-3.997,9.866-8.881
		C372.802,82.636,368.363,78.64,362.935,78.64z"/>
	<path style="fill:#A4ECFF;" d="M238.548,33.24H214.12c-4.256,0-7.893-2.462-9.27-5.877c-12.587,2.674-24.814,6.317-36.605,10.842
		L180.863,51h57.685c5.428,0,9.866-3.994,9.866-8.879S243.975,33.24,238.548,33.24z"/>
	<path style="fill:#A4ECFF;" d="M391.869,122.6c0,4.884,4.44,8.881,9.867,8.881h22.2c5.426,0,9.866,3.995,9.866,8.88
		c0,4.883-4.44,8.879-9.866,8.879h-70.302c-5.427,0-9.868,3.996-9.868,8.881s4.441,8.879,9.868,8.879H479.72
		c-8.594-19.197-19.591-37.079-32.601-53.279h-45.383C396.309,113.72,391.869,117.717,391.869,122.6z"/>
</g>
<g>
	<path style="fill:#2BB381;" d="M384.813,432.513c-7.78,0-17.055-3.842-22.554-9.343L325.088,386H41.81
		C83.653,461.151,163.882,512,256,512c71.496,0,135.826-30.636,180.61-79.486h-51.797V432.513z"/>
	<path style="fill:#2BB381;" d="M397.132,386l17.471,17.471c0.647,0.506,2.31,1.194,3.124,1.293h40.87
		c4.133-6.066,8.007-12.323,11.593-18.764H397.132z"/>
</g>
<g>
	<path style="fill:#4CCC76;" d="M215.5,399h-8.284v10.469h7c2.282,0,4.2,1.559,4.792,3.658c2.374-1.26,3.991-3.753,3.991-6.627
		C223,402.357,219.642,399,215.5,399z"/>
	<path style="fill:#4CCC76;" d="M101.741,409.469h17.115c0.721-1.152,1.144-2.51,1.144-3.969c0-4.143-3.357-7.5-7.5-7.5h-10.759
		C101.741,398,101.741,409.469,101.741,409.469z"/>
</g>
<path style="fill:#C0272D;" d="M398.587,403.47c0.646,0.506,2.309,1.194,3.124,1.293h16.016c-0.815-0.099-2.478-0.787-3.124-1.293
	L255.379,244.245c-2.602-2.602-6.131-4.064-9.811-4.064h-16.016c3.68,0,7.209,1.462,9.811,4.064L398.587,403.47z"/>
<path style="fill:#FE3745;" d="M218.614,242.858c1.456,0.674,2.809,1.573,3.965,2.729l159.224,159.225
	c0.647,0.506,2.31,1.194,3.124,1.293h72.756c0.31-0.448,0.626-0.892,0.933-1.343h-55.689c-0.815-0.099-2.478-0.787-3.124-1.293
	L240.579,244.245c-2.602-2.602-6.131-4.064-9.811-4.064h-16.552C216.124,240.182,217.772,241.276,218.614,242.858z"/>
<path style="fill:#E52E49;" d="M384.927,404.763c-0.815-0.099-2.478-0.787-3.124-1.293L222.579,244.245
	c-1.75-1.749-3.923-2.969-6.275-3.589c1.711,0.796,2.912,2.522,2.912,4.525V278c0,0.629-0.13,1.227-0.345,1.783l143.388,143.388
	c5.5,5.501,14.774,9.343,22.554,9.343h51.813c7.973-8.696,15.326-17.969,21.99-27.75L384.927,404.763L384.927,404.763z"/>
<g>
	<path style="fill:#1A2B63;" d="M52.614,281.954v121.681c1.667,2.478,3.396,4.909,5.152,7.319h16.45v-129H52.614z"/>
	<rect x="185.61" y="281.95" style="fill:#1A2B63;" width="21.602" height="129"/>
</g>
<path style="fill:#FFC248;" d="M159.089,262.045V271h-58.348v-8.955H40.614V278c0,2.75,2.25,5,5,5h168.602c2.75,0,5-2.25,5-5
	v-15.955H159.089z"/>
<path style="fill:#FFAF10;" d="M61.398,278v-14.773H40.614V278c0,2.75,2.25,5,5,5h20.784C63.648,283,61.398,280.75,61.398,278z"/>
<path style="fill:#FE3745;" d="M59.184,74.77c2.206,0,4,1.794,4,4v2.973c0,3.309,2.691,6,6,6h17.73c3.309,0,6-2.691,6-6V78.77
	c0-2.206,1.794-4,4-4h14.136c2.206,0,4,1.794,4,4v2.973c0,3.309,2.691,6,6,6h17.73c3.309,0,6-2.691,6-6V78.77c0-2.206,1.794-4,4-4
	h14.136c2.206,0,4,1.794,4,4v2.973c0,3.309,2.691,6,6,6h17.73c3.309,0,6-2.691,6-6V78.77c0-2.206,1.794-4,4-4h5.06l-72.28-73.301
	c-1.931-1.958-5.09-1.958-7.022,0L54.123,74.77H59.184z"/>
<path style="fill:#E52E49;" d="M59.184,74.77c2.206,0,4,1.794,4,4v2.973c0,1.374,0.469,2.638,1.249,3.649l75.875-76.945
	l-6.881-6.978c-1.931-1.958-5.09-1.958-7.022,0L54.123,74.77H59.184z"/>
<rect x="52.614" y="107.18" style="fill:#FFC610;" width="154.6" height="134"/>
<g>
	<rect x="52.614" y="107.18" style="fill:#FFAF10;" width="10.386" height="134"/>
	<path style="fill:#FFAF10;" d="M214.216,240.182H45.614c-2.75,0-5,2.25-5,5v18.045h60.127v-7.227h58.348v7.227h60.127v-18.045
		C219.216,242.432,216.966,240.182,214.216,240.182z"/>
</g>
<path style="fill:#EF9614;" d="M66.398,240.182H45.614c-2.75,0-5,2.25-5,5v18.045h20.784v-18.045
	C61.398,242.432,63.648,240.182,66.398,240.182z"/>
<g>
	<rect x="100.74" y="365" style="fill:#183889;" width="58.35" height="15"/>
	<rect x="100.74" y="255.999" style="fill:#183889;" width="58.35" height="15"/>
	<rect x="100.74" y="310.59" style="fill:#183889;" width="58.35" height="15"/>
</g>
<path style="fill:#B7092B;" d="M200.647,73.77c-2.75,0-5,2.25-5,5v2.973c0,2.75-2.25,5-5,5h-17.73c-2.75,0-5-2.25-5-5V78.77
	c0-2.75-2.25-5-5-5h-14.136c-2.75,0-5,2.25-5,5v2.973c0,2.75-2.25,5-5,5h-17.73c-2.75,0-5-2.25-5-5V78.77c0-2.75-2.25-5-5-5H96.914
	c-2.75,0-5,2.25-5,5v2.973c0,2.75-2.25,5-5,5h-17.73c-2.75,0-5-2.25-5-5V78.77c0-2.75-2.25-5-5-5H44c-2.75,0-5,2.25-5,5v24.414
	c0,2.75,2.25,5,5,5h171.83c2.75,0,5-2.25,5-5V78.77c0-2.75-2.25-5-5-5H200.647z"/>
<path style="fill:#960B15;" d="M51,103.184V78.77c0-2.75,2.25-5,5-5H44c-2.75,0-5,2.25-5,5v24.414c0,2.75,2.25,5,5,5h12
	C53.25,108.184,51,105.934,51,103.184z"/>
<g>
	<path style="fill:#1A2B63;" d="M173.089,410.954V202.773c-4.027,5.639-9.125,10.457-15,14.157v194.023h15V410.954z"/>
	<path style="fill:#1A2B63;" d="M101.741,410.954V216.93c-5.876-3.7-10.973-8.52-15-14.158v208.182L101.741,410.954L101.741,410.954
		z"/>
</g>
<path style="fill:#285399;" d="M129.915,226.065c-29.794,0-54.034-24.239-54.034-54.033S100.121,118,129.915,118
	s54.034,24.239,54.034,54.033S159.709,226.065,129.915,226.065z"/>
<circle style="fill:#5DC1D8;" cx="129.91" cy="172.029" r="36.595"/>
<path style="fill:#2DA1DC;" d="M106.809,172.033c0-17.905,12.863-32.798,29.851-35.965c-2.187-0.408-4.439-0.631-6.745-0.631
	c-20.211,0-36.595,16.385-36.595,36.596s16.384,36.596,36.595,36.596c2.305,0,4.558-0.223,6.745-0.631
	C119.672,204.83,106.809,189.938,106.809,172.033z"/>
<g>
	<path style="fill:#4CCC76;" d="M375.5,457h-15c-4.143,0-7.5-3.357-7.5-7.5s3.357-7.5,7.5-7.5h15c4.143,0,7.5,3.357,7.5,7.5
		C383,453.642,379.642,457,375.5,457z"/>
	<path style="fill:#4CCC76;" d="M312.5,423h-15c-4.143,0-7.5-3.357-7.5-7.5s3.357-7.5,7.5-7.5h15c4.143,0,7.5,3.357,7.5,7.5
		C320,419.642,316.642,423,312.5,423z"/>
	<path style="fill:#4CCC76;" d="M254.5,462h-15c-4.143,0-7.5-3.357-7.5-7.5s3.357-7.5,7.5-7.5h15c4.143,0,7.5,3.357,7.5,7.5
		C262,458.642,258.642,462,254.5,462z"/>
	<path style="fill:#4CCC76;" d="M169.5,470h-15c-4.143,0-7.5-3.357-7.5-7.5s3.357-7.5,7.5-7.5h15c4.143,0,7.5,3.357,7.5,7.5
		C177,466.642,173.642,470,169.5,470z"/>
	<path style="fill:#4CCC76;" d="M309.5,487h-15c-4.143,0-7.5-3.357-7.5-7.5s3.357-7.5,7.5-7.5h15c4.143,0,7.5,3.357,7.5,7.5
		C317,483.642,313.642,487,309.5,487z"/>
</g>
<path style="fill:#183889;" d="M214.216,409.469H56.669c5.771,8.061,12.021,15.755,18.705,23.045h138.842c2.75,0,5-2.25,5-5v-13.045
	C219.216,411.719,216.966,409.469,214.216,409.469z"/>
<g>
	<circle style="fill:#EF9614;" cx="67.25" cy="224.249" r="7.5"/>
	<circle style="fill:#EF9614;" cx="192.75" cy="224.249" r="7.5"/>
	<circle style="fill:#EF9614;" cx="67.25" cy="122.75" r="7.5"/>
	<circle style="fill:#EF9614;" cx="192.75" cy="122.75" r="7.5"/>
</g>
<g>
</g>
<g>
</g>
<g>
</g>
<g>
</g>
<g>
</g>
<g>
</g>
<g>
</g>
<g>
</g>
<g>
</g>
<g>
</g>
<g>
</g>
<g>
</g>
<g>
</g>
<g>
</g>
<g>
</g>
</svg>
