<?xml version="1.0" encoding="iso-8859-1"?>
<!-- Generator: Adobe Illustrator 19.0.0, SVG Export Plug-In . SVG Version: 6.00 Build 0)  -->
<svg version="1.1" id="Capa_1" xmlns="http://www.w3.org/2000/svg" xmlns:xlink="http://www.w3.org/1999/xlink" x="0px" y="0px"
	 viewBox="0 0 512 512" style="enable-background:new 0 0 512 512;" xml:space="preserve">
<circle style="fill:#5DC1D8;" cx="256" cy="267" r="245"/>
<path style="fill:#6A96E5;" d="M256,22C120.69,22,11,131.69,11,267c0,23.961,3.455,47.112,9.868,69h92.026l-22.501-53.575
	c-0.113-0.268-0.336-0.474-0.613-0.564c-0.101-0.032-0.205-0.049-0.309-0.049c-0.181,0-0.361,0.049-0.519,0.146
	c-1.118,0.679-2.407,1.037-3.728,1.037c-1.912,0-3.704-0.738-5.045-2.079L34.973,235.71c-1.993-1.993-2.149-5.08-0.348-6.881
	c0.806-0.806,1.915-1.249,3.121-1.249c1.375,0,2.746,0.581,3.761,1.596l22.698,22.698c0.188,0.188,0.442,0.293,0.707,0.293
	s0.52-0.106,0.707-0.293l2.119-2.119c0.391-0.391,0.391-1.023,0-1.414l-26.799-26.799c-0.972-0.972-1.538-2.234-1.593-3.555
	c-0.054-1.289,0.388-2.471,1.245-3.327c0.806-0.806,1.915-1.25,3.122-1.25c1.375,0,2.746,0.582,3.761,1.598l26.799,26.799
	c0.195,0.195,0.451,0.293,0.707,0.293c0.256,0,0.512-0.098,0.707-0.293l2.12-2.12c0.188-0.188,0.293-0.441,0.293-0.707
	s-0.105-0.52-0.293-0.707L48.643,209.11c-0.972-0.972-1.538-2.234-1.593-3.555c-0.054-1.289,0.388-2.471,1.245-3.327
	c0.806-0.806,1.914-1.25,3.121-1.25c1.375,0,2.747,0.583,3.762,1.598l29.162,29.162c0.195,0.195,0.451,0.293,0.707,0.293
	c0.256,0,0.512-0.098,0.707-0.293l2.12-2.119c0.188-0.188,0.293-0.441,0.293-0.707c0-0.265-0.105-0.52-0.293-0.707l-22.698-22.697
	c-0.972-0.972-1.538-2.233-1.593-3.555c-0.054-1.288,0.388-2.47,1.245-3.327c0.806-0.806,1.914-1.249,3.121-1.249
	c1.376,0,2.747,0.582,3.761,1.597l30.691,30.69c0.191,0.191,0.447,0.293,0.707,0.293c0.129,0,0.259-0.024,0.383-0.076
	c0.374-0.154,0.617-0.52,0.617-0.924l-0.001-10.094c0-2.819,2.294-5.113,5.112-5.113h2.091c2.819,0,5.112,2.293,5.113,5.112
	l-0.001,24.409c0,0.266,0.105,0.52,0.293,0.707l0.2,0.2c2.788,2.788,2.788,7.324,0,10.112l-1.319,1.318
	c-0.287,0.287-0.372,0.72-0.215,1.094l25.098,59.756c0.156,0.372,0.52,0.613,0.922,0.613c0,0,0.001,0,0.002,0
	c0.404-0.001,0.767-0.244,0.922-0.617l22.935-55.278c2.565-6.182,8.547-10.177,15.24-10.177h54.319c0.552,0,1-0.448,1-1v-11.884
	c6.273,1.939,12.768,2.921,19.327,2.921h1.706c6.558,0,13.053-0.982,19.329-2.922V250c0,0.552,0.448,1,1,1h58.703
	c6.693,0,12.676,3.995,15.24,10.177l22.935,55.278c0.154,0.373,0.518,0.616,0.922,0.617c0.001,0,0.001,0,0.002,0
	c0.402,0,0.766-0.241,0.922-0.612l21.848-52.018c0.052-0.123,0.078-0.255,0.078-0.388V233c0-4.963,4.037-9,9-9h25.223
	c4.963,0,9,4.037,9,9v35c0,4.963-4.037,9-9,9h-3.118c-0.402,0-0.766,0.241-0.922,0.612L403.49,336h87.642
	c6.413-21.888,9.868-45.039,9.868-69C501,131.69,391.31,22,256,22z"/>
<g>
	<path style="fill:#D9EAFC;" d="M141.403,317.072c0.404-0.001,0.767-0.244,0.922-0.617l3.093-7.455h-8.072l3.133,7.459
		c0.156,0.372,0.52,0.613,0.922,0.613C141.401,317.072,141.403,317.072,141.403,317.072z"/>
	<path style="fill:#D9EAFC;" d="M370.966,309l3.093,7.455c0.154,0.373,0.518,0.616,0.922,0.617c0.001,0,0.001,0,0.002,0
		c0.402,0,0.766-0.241,0.922-0.612l3.133-7.46H370.966z"/>
	<path style="fill:#D9EAFC;" d="M101.554,309H14.606c1.59,9.184,3.682,18.195,6.261,27h92.026L101.554,309z"/>
	<path style="fill:#D9EAFC;" d="M414.83,309l-11.34,27h87.642c2.579-8.805,4.672-17.816,6.262-27H414.83z"/>
	<path style="fill:#D9EAFC;" d="M418.476,190.519c-0.142,0.194-0.369,0.311-0.608,0.311c-0.24,0-0.468-0.116-0.608-0.311
		l-3.715-5.111V224h9v-39.079L418.476,190.519z"/>
</g>
<g>
	<path style="fill:#FFC987;" d="M306.592,368c-13.497,0-26.055-6.059-34.451-16.622c-0.19-0.239-0.478-0.378-0.783-0.378h-30.716
		c-0.305,0-0.593,0.139-0.783,0.378C231.462,361.941,218.905,368,205.408,368c-9.425,0-18.16-2.985-25.331-8.047
		c2.542,17.528,5.084,35.414,7.627,55.047h136.593c2.541-19.634,5.083-37.519,7.625-55.047C324.751,365.015,316.017,368,306.592,368
		z"/>
	<path style="fill:#FFC987;" d="M432.053,223H406.83c-5.5,0-10,4.5-10,10v31.055l-21.848,52.018l-22.934-55.278
		c-2.711-6.534-9.09-10.794-16.164-10.794h-58.703v-13.255c-6.397,2.124-13.228,3.292-20.329,3.292h-1.706
		c-7.101,0-13.93-1.167-20.327-3.291V250H180.5c-7.074,0-13.453,4.26-16.164,10.794l-22.934,55.278l-25.098-59.756l1.319-1.318
		c3.17-3.17,3.169-8.356,0-11.526l-0.2-0.2l0.001-24.409c-0.001-3.361-2.752-6.112-6.113-6.112h-2.091
		c-3.361,0-6.112,2.751-6.112,6.113l0.001,10.094l-30.691-30.69c-2.377-2.377-6.11-2.533-8.296-0.348
		c-2.186,2.186-2.029,5.92,0.348,8.296l22.698,22.697l-2.12,2.119L55.886,201.87c-2.378-2.377-6.111-2.534-8.297-0.348
		c-2.186,2.185-2.029,5.919,0.348,8.296L77.1,238.98l-2.12,2.12l-26.8-26.799c-2.377-2.378-6.11-2.533-8.297-0.348
		c-2.186,2.185-2.028,5.919,0.349,8.296l26.799,26.799l-2.119,2.119l-22.698-22.698c-2.377-2.376-6.11-2.532-8.296-0.347
		c-2.186,2.186-2.029,5.918,0.348,8.295l45.205,45.206c2.702,2.701,6.865,3.092,9.999,1.19l35.895,85.464
		c2.729,6.498,9.09,10.724,16.135,10.724c0.013,0,0.025,0,0.038,0c7.06-0.016,13.42-4.272,16.126-10.794l9.392-22.637
		c-3.615-6.39-5.69-13.761-5.69-21.612c0-11.306,4.287-22.059,12.072-30.278c0.826-0.87,1.99-1.37,3.192-1.37
		c0.932,0,1.823,0.29,2.578,0.838l59.885,43.484c0.171,0.124,0.377,0.19,0.587,0.19h32.64c0.211,0,0.417-0.066,0.588-0.19
		l59.886-43.483c0.753-0.549,1.645-0.839,2.578-0.839c1.219,0,2.353,0.487,3.193,1.371c7.783,8.219,12.07,18.972,12.07,30.277
		c0,5.932-1.186,11.589-3.32,16.758l11.405,27.491c2.706,6.521,9.065,10.778,16.126,10.794c0.013,0,0.025,0,0.038,0
		c7.045,0,13.405-4.226,16.135-10.724L428.935,278h3.118c5.5,0,10-4.5,10-10v-35C442.053,227.5,437.553,223,432.053,223z"/>
</g>
<path style="fill:#EAA663;" d="M208.353,415c-2.113-16.321-4.226-31.44-6.34-46.141c-8.006-0.601-15.438-3.289-21.738-7.541
	c2.476,17.091,4.953,34.557,7.429,53.682L208.353,415L208.353,415z"/>
<path style="fill:#293D7C;" d="M179.207,293.147l17.861,12.969l37.751-51.268V250H208.69l-31.22,42.398
	C178.093,292.52,178.684,292.767,179.207,293.147z"/>
<path style="fill:#1A2B63;" d="M179.207,293.147l5.423,3.938L219.301,250H208.69l-31.22,42.398
	C178.093,292.52,178.684,292.767,179.207,293.147z"/>
<path style="fill:#293D7C;" d="M332.793,293.147c0.753-0.549,1.645-0.839,2.578-0.839c0.133,0,0.26,0.027,0.391,0.039L304.58,250
	h-27.399v3.123l38.579,52.393L332.793,293.147z"/>
<path style="fill:#D9EAFC;" d="M417.867,191.829c-0.563,0-1.089-0.27-1.418-0.723l-43.115-59.324
	c-0.388-0.533-0.442-1.237-0.143-1.824c0.297-0.588,0.9-0.958,1.56-0.958h86.23c0.66,0,1.263,0.37,1.561,0.958
	c0.3,0.587,0.244,1.291-0.143,1.824l-43.115,59.324C418.954,191.56,418.427,191.829,417.867,191.829z"/>
<path style="fill:#C3DDF4;" d="M394.334,131.782c-0.388-0.533-0.442-1.237-0.143-1.824c0.297-0.588,0.9-0.958,1.56-0.958h-21
	c-0.659,0-1.263,0.37-1.56,0.958c-0.3,0.587-0.245,1.291,0.143,1.824l43.115,59.324c0.329,0.453,0.855,0.723,1.418,0.723
	c0.56,0,1.087-0.27,1.417-0.723l9.083-12.497L394.334,131.782z"/>
<path style="fill:#FFAF10;" d="M416.449,191.106c0.329,0.453,0.855,0.723,1.418,0.723c0.56,0,1.087-0.27,1.417-0.723l32.442-44.639
	h-67.72L416.449,191.106z"/>
<path style="fill:#EF9614;" d="M405,146.468h-20.993l32.442,44.639c0.329,0.453,0.855,0.723,1.418,0.723
	c0.56,0,1.087-0.27,1.417-0.723l9.079-12.492L405,146.468z"/>
<g>
	<path style="fill:#91E0E8;" d="M379,428.5H133c-4.142,0-7.5-3.357-7.5-7.5s3.358-7.5,7.5-7.5h246c4.143,0,7.5,3.357,7.5,7.5
		S383.143,428.5,379,428.5z"/>
	<path style="fill:#91E0E8;" d="M250.463,467.5h-51.271c-4.142,0-7.5-3.357-7.5-7.5s3.358-7.5,7.5-7.5h51.271
		c4.142,0,7.5,3.357,7.5,7.5S254.605,467.5,250.463,467.5z"/>
	<path style="fill:#91E0E8;" d="M317.515,467.5H291c-4.143,0-7.5-3.357-7.5-7.5s3.357-7.5,7.5-7.5h26.515c4.143,0,7.5,3.357,7.5,7.5
		S321.657,467.5,317.515,467.5z"/>
	<path style="fill:#91E0E8;" d="M431.373,388.5h-18.23c-4.143,0-7.5-3.357-7.5-7.5s3.357-7.5,7.5-7.5h18.23
		c4.143,0,7.5,3.357,7.5,7.5S435.516,388.5,431.373,388.5z"/>
	<path style="fill:#91E0E8;" d="M102.445,388.5H81.04c-4.142,0-7.5-3.357-7.5-7.5s3.358-7.5,7.5-7.5h21.405
		c4.142,0,7.5,3.357,7.5,7.5S106.587,388.5,102.445,388.5z"/>
</g>
<path style="fill:#EF8318;" d="M255.485,30.301h1.027c10.676,0,20.349,4.37,27.329,11.413c3.397-4.378,5.424-9.871,5.424-15.841
	C289.266,11.584,277.682,0,263.393,0h-14.785c-14.29,0-25.874,11.584-25.874,25.873c0,5.969,2.027,11.462,5.422,15.84
	C235.138,34.671,244.81,30.301,255.485,30.301z"/>
<path style="fill:#DB722C;" d="M235.125,36.146C233.76,32.996,233,29.524,233,25.873C233,11.584,244.583,0,258.873,0h-10.265
	c-14.29,0-25.874,11.584-25.874,25.873c0,5.969,2.027,11.462,5.422,15.84C230.251,39.6,232.591,37.732,235.125,36.146z"/>
<path style="fill:#FFD00D;" d="M255.146,41.636h1.706c13.13,0,25.351,3.944,35.562,10.694
	c-6.245-13.589-19.967-23.029-35.901-23.029h-1.027c-15.936,0-29.658,9.441-35.902,23.03
	C229.793,45.58,242.015,41.636,255.146,41.636z"/>
<path style="fill:#FFAF10;" d="M233.769,45.283c6.357-8.559,16.093-14.458,27.237-15.721c-1.475-0.167-2.974-0.262-4.494-0.262
	h-1.027c-15.936,0-29.658,9.441-35.902,23.03C223.969,49.432,228.727,47.055,233.769,45.283z"/>
<path style="fill:#EF8318;" d="M256.852,40.636h-1.706c-36.265,0-65.664,29.4-65.664,65.664v20.445h41.493
	c17.136,0,31.642-11.237,36.564-26.745c6.014,13.322,19.401,22.599,34.968,22.599h20.01V106.3
	C322.517,70.035,293.116,40.636,256.852,40.636z"/>
<path style="fill:#DB722C;" d="M199.966,106.3c0-34.788,27.059-63.241,61.274-65.502c-1.452-0.096-2.912-0.162-4.388-0.162h-1.706
	c-36.265,0-65.664,29.4-65.664,65.664v20.445h10.483V106.3H199.966z"/>
<path style="fill:#FFC987;" d="M190.482,175.373V140.41h-7.708c-6.372,0-11.537,5.166-11.537,11.538v20.414
	c0,6.372,5.165,11.539,11.537,11.539h8.289C190.692,181.108,190.482,178.266,190.482,175.373z"/>
<path style="fill:#EAA663;" d="M329.223,140.41h-7.706v34.963c0,2.893-0.21,5.735-0.58,8.528h8.286
	c6.374,0,11.541-5.167,11.541-11.539v-20.414C340.764,145.576,335.597,140.41,329.223,140.41z"/>
<path style="fill:#FFC987;" d="M302.507,121.566c-15.566,0-28.954-9.276-34.968-22.599c-4.922,15.508-19.428,26.745-36.564,26.745
	h-41.493v49.66c0,36.264,29.398,65.664,65.664,65.664h1.706c36.264,0,65.665-29.4,65.665-65.664v-53.807L302.507,121.566
	L302.507,121.566z"/>
<path style="fill:#EAA663;" d="M199.966,175.373v-49.66h-10.483v49.66c0,36.264,29.398,65.664,65.664,65.664h1.706
	c1.476,0,2.936-0.066,4.388-0.162C227.024,238.614,199.966,210.16,199.966,175.373z"/>
<g>
	<path style="fill:#293D7C;" d="M226.152,156.05c0,5.575-4.521,10.095-10.097,10.095l0,0c-5.573,0-10.094-4.52-10.094-10.095v-5.436
		c0-5.576,4.52-10.096,10.094-10.096l0,0c5.576,0,10.097,4.52,10.097,10.096V156.05z"/>
	<path style="fill:#293D7C;" d="M306.036,156.05c0,5.575-4.521,10.095-10.093,10.095l0,0c-5.577,0-10.098-4.52-10.098-10.095v-5.436
		c0-5.576,4.521-10.096,10.098-10.096l0,0c5.572,0,10.093,4.52,10.093,10.096V156.05z"/>
</g>
<path style="fill:#FFB05A;" d="M262.339,179.811c-0.043,0-0.086,0-0.128-0.001l-8.241-0.138
	c-6.822-0.111-12.374-5.756-12.374-12.582v-17.937c0-4.143,3.358-7.5,7.5-7.5s7.5,3.357,7.5,7.5v15.561l5.865,0.098
	c4.142,0.069,7.443,3.482,7.374,7.624C269.767,176.536,266.422,179.811,262.339,179.811z"/>
<path style="fill:#FF9F60;" d="M255.999,223.804c-17.708,0-32.115-14.405-32.115-32.11c0-2.088,1.693-3.779,3.779-3.779h56.671
	c2.085,0,3.778,1.691,3.778,3.779C288.113,209.398,273.705,223.804,255.999,223.804z"/>
<path style="fill:#F48C51;" d="M234,191.693c0-2.088,1.693-3.779,3.779-3.779h-10.116c-2.087,0-3.779,1.691-3.779,3.779
	c0,17.705,14.407,32.11,32.115,32.11c1.721,0,3.41-0.14,5.057-0.401C245.744,220.969,234,207.678,234,191.693z"/>
<path style="fill:#FFFFFF;" d="M284.335,187.914h-56.671c-2.087,0-3.779,1.691-3.779,3.779c0,2.3,0.249,4.541,0.708,6.705h62.81
	c0.46-2.164,0.711-4.405,0.711-6.705C288.113,189.605,286.42,187.914,284.335,187.914z"/>
<path style="fill:#EEF6FF;" d="M237.779,187.914h-10.116c-2.087,0-3.779,1.691-3.779,3.779c0,2.3,0.249,4.541,0.708,6.705h10.116
	c-0.459-2.164-0.708-4.405-0.708-6.705C234,189.605,235.693,187.914,237.779,187.914z"/>
<path style="fill:#FFD00D;" d="M154.335,151.48c1.945,1.944,1.362,4.118-1.294,4.829l-24.336,6.521
	c-2.656,0.711-4.247-0.88-3.536-3.536l6.521-24.335c0.711-2.656,2.885-3.239,4.83-1.295L154.335,151.48z"/>
<path style="fill:#F24976;" d="M428.336,77.965c1.944,1.944,1.361,4.118-1.295,4.829l-24.336,6.521
	c-2.656,0.711-4.246-0.88-3.535-3.536l6.522-24.335c0.711-2.656,2.885-3.239,4.829-1.295L428.336,77.965z"/>
<path style="fill:#02AF8E;" d="M134.335,41.965c1.944,1.944,1.361,4.118-1.295,4.829l-24.336,6.521
	c-2.656,0.711-4.246-0.88-3.535-3.536l6.521-24.335c0.711-2.656,2.885-3.239,4.829-1.295L134.335,41.965z"/>
<path style="fill:#F24976;" d="M88.335,105.965c1.944,1.944,1.361,4.118-1.295,4.829l-24.336,6.521
	c-2.656,0.711-4.246-0.88-3.535-3.536l6.521-24.335c0.711-2.656,2.885-3.239,4.829-1.295L88.335,105.965z"/>
<path style="fill:#445EA0;" d="M339.289,292.991c-1.055-1.11-2.48-1.683-3.918-1.683c-1.103,0-2.217,0.338-3.166,1.029
	l-59.886,43.483h-32.64l-59.884-43.483c-0.952-0.691-2.063-1.029-3.166-1.029c-1.438,0-2.864,0.572-3.918,1.683
	c-7.96,8.405-12.346,19.401-12.346,30.966c0,24.836,20.206,45.043,45.042,45.043c13.887,0,26.786-6.373,35.233-17h30.716
	c8.447,10.627,21.347,17,35.234,17c24.835,0,45.043-20.207,45.043-45.043C351.635,312.393,347.25,301.397,339.289,292.991z"/>
<path style="fill:#2E4C89;" d="M181,323.957c0-9.06,2.703-17.766,7.697-25.156l-8.901-6.463c-0.952-0.691-2.063-1.029-3.166-1.029
	c-1.438,0-2.864,0.572-3.918,1.683c-7.96,8.405-12.346,19.401-12.346,30.966c0,24.836,20.206,45.043,45.042,45.043
	c3.516,0,6.961-0.431,10.296-1.211C195.836,363.103,181,345.234,181,323.957z"/>
<g>
</g>
<g>
</g>
<g>
</g>
<g>
</g>
<g>
</g>
<g>
</g>
<g>
</g>
<g>
</g>
<g>
</g>
<g>
</g>
<g>
</g>
<g>
</g>
<g>
</g>
<g>
</g>
<g>
</g>
</svg>
