<?xml version="1.0" encoding="utf-8"?>
<!-- Generator: Adobe Illustrator 21.1.0, SVG Export Plug-In . SVG Version: 6.00 Build 0)  -->
<svg version="1.1" id="Icons" xmlns="http://www.w3.org/2000/svg" xmlns:xlink="http://www.w3.org/1999/xlink" x="0px" y="0px"
	 viewBox="0 0 48 48" style="enable-background:new 0 0 48 48;" xml:space="preserve">
<style type="text/css">
	.st0{opacity:0.15;fill:#45413C;}
	.st1{fill:#DAEDF7;stroke:#45413C;stroke-linecap:round;stroke-linejoin:round;stroke-miterlimit:10;}
	.st2{fill:#656769;}
	.st3{fill:#87898C;}
	.st4{fill:none;stroke:#45413C;stroke-linecap:round;stroke-linejoin:round;stroke-miterlimit:10;}
	.st5{fill:#DAEDF7;}
	.st6{fill:#E8F4FA;}
	.st7{fill:#FFFFFF;}
	.st8{fill:#E0E0E0;}
	.st9{fill:#00B8F0;}
	.st10{fill:#FF6242;stroke:#45413C;stroke-linecap:round;stroke-linejoin:round;stroke-miterlimit:10;}
	.st11{fill:#FFE500;stroke:#45413C;stroke-linecap:round;stroke-linejoin:round;stroke-miterlimit:10;}
	.st12{fill:#00DBA8;stroke:#45413C;stroke-linecap:round;stroke-linejoin:round;stroke-miterlimit:10;}
	.st13{fill:#BF8DF2;stroke:#45413C;stroke-linecap:round;stroke-linejoin:round;stroke-miterlimit:10;}
	.st14{fill:#00B8F0;stroke:#45413C;stroke-linecap:round;stroke-linejoin:round;stroke-miterlimit:10;}
	.st15{fill:#87898C;stroke:#45413C;stroke-linecap:round;stroke-linejoin:round;stroke-miterlimit:10;}
	.st16{fill:#FF6242;}
	.st17{fill:#E04122;}
	.st18{fill:#9CEB60;}
	.st19{fill:#6DD627;}
	.st20{fill:#FF866E;}
	.st21{fill:#F0F0F0;}
	.st22{fill:#009FD9;}
	.st23{fill:#656769;stroke:#45413C;stroke-linecap:round;stroke-linejoin:round;stroke-miterlimit:10;}
	.st24{fill:#ADC4D9;}
	.st25{fill:#8CA4B8;}
	.st26{fill:#BDBEC0;}
	.st27{fill:#C0DCEB;stroke:#45413C;stroke-linecap:round;stroke-linejoin:round;stroke-miterlimit:10;}
	.st28{fill:#4ACFFF;}
	.st29{fill:#FFFFFF;stroke:#45413C;stroke-linecap:round;stroke-linejoin:round;stroke-miterlimit:10;}
	.st30{fill:#C0DCEB;}
	.st31{fill:#FFAA54;stroke:#45413C;stroke-linecap:round;stroke-linejoin:round;stroke-miterlimit:10;}
	.st32{fill:#FF8A14;}
	.st33{fill:#FFAA54;}
	.st34{fill:#6DD627;stroke:#45413C;stroke-linecap:round;stroke-linejoin:round;stroke-miterlimit:10;}
	.st35{fill:#DEBB7E;}
	.st36{fill:#F0D5A8;}
	.st37{fill:none;stroke:#45413C;stroke-miterlimit:10;}
	.st38{fill:#FFE500;}
	.st39{fill:#FFF48C;}
	.st40{fill:#FFF48C;stroke:#45413C;stroke-linecap:round;stroke-linejoin:round;stroke-miterlimit:10;}
	.st41{fill:#FF8A14;stroke:#45413C;stroke-linecap:round;stroke-linejoin:round;stroke-miterlimit:10;}
	.st42{fill:#525252;}
	.st43{fill:#00F5BC;}
	.st44{fill:#8CFFE4;}
	.st45{fill:#00DBA8;}
	.st46{fill:#EBCB00;}
	.st47{fill:#FF866E;stroke:#45413C;stroke-linecap:round;stroke-linejoin:round;stroke-miterlimit:10;}
	.st48{fill:#FFCC99;}
	.st49{fill:#45413C;stroke:#45413C;stroke-linecap:round;stroke-linejoin:round;stroke-miterlimit:10;}
	.st50{fill:#C8FFA1;}
	.st51{fill:#BDBEC0;stroke:#45413C;stroke-linecap:round;stroke-linejoin:round;stroke-miterlimit:10;}
	.st52{fill:#80DDFF;}
	.st53{fill:#4ACFFF;stroke:#45413C;stroke-linecap:round;stroke-linejoin:round;stroke-miterlimit:10;}
	.st54{fill:#FFFCE5;}
	.st55{fill:#FFFACF;}
	.st56{fill:#627B8C;}
	.st57{fill:#BF8256;}
	.st58{fill:#DEA47A;}
	.st59{fill:#BF8256;stroke:#45413C;stroke-linecap:round;stroke-linejoin:round;stroke-miterlimit:10;}
	.st60{fill:#DEBB7E;stroke:#45413C;stroke-linecap:round;stroke-linejoin:round;stroke-miterlimit:10;}
	.st61{fill:#B89558;}
	.st62{fill:#B8ECFF;}
	.st63{fill:#F7E5C6;}
	.st64{fill:#FFF5E3;}
	.st65{fill:#915E3A;}
	.st66{fill:#45413C;stroke:#45413C;stroke-miterlimit:10;}
	.st67{fill:#FFB0CA;stroke:#45413C;stroke-linecap:round;stroke-linejoin:round;stroke-miterlimit:10;}
	.st68{fill:#FF87AF;stroke:#45413C;stroke-linecap:round;stroke-linejoin:round;stroke-miterlimit:10;}
	.st69{fill:#E5FEFF;}
	.st70{fill:#A6FBFF;}
	.st71{fill:#FFB0CA;}
	.st72{fill:#FF87AF;}
	.st73{fill:none;stroke:#45413C;stroke-linecap:round;stroke-miterlimit:10;}
	.st74{fill:#BF8DF2;}
	.st75{fill:#DABFF5;}
	.st76{fill:#4AEFF7;}
	.st77{fill:#00DFEB;}
	.st78{fill:#FFCEBF;}
	.st79{fill:#FF6196;stroke:#45413C;stroke-linecap:round;stroke-linejoin:round;stroke-miterlimit:10;}
	.st80{fill:#00DFEB;stroke:#45413C;stroke-linecap:round;stroke-linejoin:round;stroke-miterlimit:10;}
	.st81{fill:#FF6196;}
	.st82{fill:#EBCB00;stroke:#45413C;stroke-linecap:round;stroke-linejoin:round;stroke-miterlimit:10;}
	.st83{fill:#00F5BC;stroke:#45413C;stroke-linecap:round;stroke-linejoin:round;stroke-miterlimit:10;}
	.st84{fill:#4AEFF7;stroke:#45413C;stroke-linecap:round;stroke-linejoin:round;stroke-miterlimit:10;}
	.st85{fill:#46B000;}
	.st86{fill:#E0366F;}
	.st87{fill:#E0366F;stroke:#45413C;stroke-linecap:round;stroke-linejoin:round;stroke-miterlimit:10;}
	.st88{fill:none;stroke:#E04122;stroke-linecap:round;stroke-linejoin:round;stroke-miterlimit:10;}
	.st89{fill:#FFA694;}
	.st90{fill:#EDDBFF;stroke:#45413C;stroke-linecap:round;stroke-linejoin:round;stroke-miterlimit:10;}
	.st91{fill:none;stroke:#BF8DF2;stroke-linecap:round;stroke-linejoin:round;stroke-miterlimit:10;}
	.st92{fill:#EDDBFF;}
	.st93{fill:#DABFF5;stroke:#45413C;stroke-linecap:round;stroke-linejoin:round;stroke-miterlimit:10;}
	.st94{fill:#E04122;stroke:#45413C;stroke-linecap:round;stroke-linejoin:round;stroke-miterlimit:10;}
	.st95{fill:#EB6D00;}
	.st96{fill:none;stroke:#45413C;stroke-width:1.0064;stroke-linecap:round;stroke-linejoin:round;stroke-miterlimit:10;}
	.st97{fill:#915E3A;stroke:#45413C;stroke-linecap:round;stroke-linejoin:round;stroke-miterlimit:10;}
	.st98{fill:#E0E0E0;stroke:#45413C;stroke-linecap:round;stroke-linejoin:round;stroke-miterlimit:10;}
	.st99{fill:#F0F0F0;stroke:#45413C;stroke-linecap:round;stroke-linejoin:round;stroke-miterlimit:10;}
	.st100{fill:#46B000;stroke:#45413C;stroke-linecap:round;stroke-linejoin:round;stroke-miterlimit:10;}
	.st101{fill:#4F4B45;}
	.st102{fill:#FFDCD1;}
	.st103{fill:#8CA4B8;stroke:#45413C;stroke-linecap:round;stroke-linejoin:round;stroke-miterlimit:10;}
	.st104{fill:#E8F4FA;stroke:#45413C;stroke-linecap:round;stroke-linejoin:round;stroke-miterlimit:10;}
	.st105{fill:none;stroke:#48CF3E;stroke-linecap:round;stroke-linejoin:round;stroke-miterlimit:10;}
	.st106{fill:none;stroke:#FF4064;stroke-linecap:round;stroke-linejoin:round;stroke-miterlimit:10;}
	.st107{fill:none;stroke:#FFB700;stroke-linecap:round;stroke-linejoin:round;stroke-miterlimit:10;}
	.st108{fill:none;stroke:#00AED9;stroke-linecap:round;stroke-linejoin:round;stroke-miterlimit:10;}
	.st109{fill:#C0DCEB;stroke:#45413C;stroke-miterlimit:10;}
	.st110{fill:#525252;stroke:#45413C;stroke-linecap:round;stroke-linejoin:round;stroke-miterlimit:10;}
	.st111{fill:#FFF5E3;stroke:#45413C;stroke-linecap:round;stroke-linejoin:round;stroke-miterlimit:10;}
	.st112{fill:#FFFFFF;stroke:#45413C;stroke-linejoin:round;stroke-miterlimit:10;}
	.st113{fill:#F0C2A1;}
	.st114{fill:#DEA47A;stroke:#45413C;stroke-linecap:round;stroke-linejoin:round;stroke-miterlimit:10;}
	.st115{fill:#F0C2A1;stroke:#45413C;stroke-linecap:round;stroke-linejoin:round;stroke-miterlimit:10;}
	.st116{fill:#FFFEF2;}
	.st117{fill:#9CEB60;stroke:#45413C;stroke-linecap:round;stroke-linejoin:round;stroke-miterlimit:10;}
	.st118{fill:#9F5AE5;stroke:#45413C;stroke-linecap:round;stroke-linejoin:round;stroke-miterlimit:10;}
	.st119{fill:#627B8C;stroke:#45413C;stroke-linecap:round;stroke-linejoin:round;stroke-miterlimit:10;}
	.st120{fill:#FFFACF;stroke:#45413C;stroke-linecap:round;stroke-linejoin:round;stroke-miterlimit:10;}
</style>
<g>
	<g id="XMLID_16206_">
		<g id="XMLID_16215_">
			<g id="XMLID_16216_">
				<path id="XMLID_16220_" class="st25" d="M47.5,17.7c0-2.3-1.6-4.1-3.7-4.6c0.4-3-1.9-5.3-4.6-5.3c-1,0-1.9,0.3-2.6,0.8
					c0.2-2.9-2.1-5-4.7-5c-1.3,0-2.5,0.5-3.3,1.4C28,3,26.2,1.5,24,1.5S20,3,19.5,5c-0.9-0.8-2-1.4-3.3-1.4c-2.6,0-4.8,2.1-4.7,5
					c-0.8-0.5-1.7-0.8-2.6-0.8c-2.7,0-5,2.3-4.6,5.3c-2.1,0.5-3.7,2.3-3.7,4.6c0,2.3,1.7,4.3,4,4.6c-1.2,3.2,1.2,6.3,4.4,6.3
					c1,0,1.9-0.3,2.6-0.8c-0.2,2.9,2.1,5,4.7,5c1.4,0,2.7-0.7,3.6-1.7c0.7,1.6,2.4,2.7,4.3,2.7s3.5-1.1,4.3-2.7
					c0.9,1,2.1,1.7,3.6,1.7c2.6,0,4.8-2.1,4.7-5c0.8,0.5,1.7,0.8,2.6,0.8c3.2,0,5.6-3.2,4.4-6.3C45.8,22,47.5,20,47.5,17.7z"/>
				<path id="XMLID_16219_" class="st56" d="M46.7,15.1c-0.9,0.6-1.5,1.6-1.6,2.7c-0.1,2.6-2.3,4.8-5,4.8c-0.3,0-0.6,0-0.9-0.1
					c-1-0.2-1.9,0.4-2.2,1.3c-0.7,1.9-2.6,3.3-4.7,3.3c-0.9,0-1.7-0.2-2.4-0.7c-0.8-0.4-1.8-0.3-2.4,0.3c-0.9,0.9-2.1,1.4-3.5,1.4
					s-2.6-0.6-3.5-1.4c-0.6-0.6-1.6-0.8-2.4-0.3c-0.7,0.4-1.6,0.7-2.4,0.7c-2.1,0-4-1.3-4.7-3.3c-0.3-0.9-1.3-1.5-2.2-1.3
					c-0.3,0.1-0.6,0.1-0.9,0.1c-2.7,0-4.9-2.2-5-4.8c0-1.1-0.6-2.1-1.6-2.7c-0.5,0.7-0.8,1.6-0.8,2.5c0,2.3,1.7,4.3,4,4.6
					c-1.2,3.2,1.2,6.3,4.4,6.3c1,0,1.9-0.3,2.6-0.8c-0.2,2.9,2.1,5,4.7,5c1.4,0,2.7-0.7,3.6-1.7c0.7,1.6,2.4,2.7,4.3,2.7
					s3.5-1.1,4.3-2.7c0.9,1,2.1,1.7,3.6,1.7c2.6,0,4.8-2.1,4.7-5c0.8,0.5,1.7,0.8,2.6,0.8c3.2,0,5.6-3.2,4.4-6.3
					c2.2-0.4,4-2.3,4-4.6C47.5,16.7,47.2,15.9,46.7,15.1z"/>
				<path id="XMLID_16217_" class="st4" d="M47.5,17.7c0-2.3-1.6-4.1-3.7-4.6c0.4-3-1.9-5.3-4.6-5.3c-1,0-1.9,0.3-2.6,0.8
					c0.2-2.9-2.1-5-4.7-5c-1.3,0-2.5,0.5-3.3,1.4C28,3,26.2,1.5,24,1.5S20,3,19.5,5c-0.9-0.8-2-1.4-3.3-1.4c-2.6,0-4.8,2.1-4.7,5
					c-0.8-0.5-1.7-0.8-2.6-0.8c-2.7,0-5,2.3-4.6,5.3c-2.1,0.5-3.7,2.3-3.7,4.6c0,2.3,1.7,4.3,4,4.6c-1.2,3.2,1.2,6.3,4.4,6.3
					c1,0,1.9-0.3,2.6-0.8c-0.2,2.9,2.1,5,4.7,5c1.4,0,2.7-0.7,3.6-1.7c0.7,1.6,2.4,2.7,4.3,2.7s3.5-1.1,4.3-2.7
					c0.9,1,2.1,1.7,3.6,1.7c2.6,0,4.8-2.1,4.7-5c0.8,0.5,1.7,0.8,2.6,0.8c3.2,0,5.6-3.2,4.4-6.3C45.8,22,47.5,20,47.5,17.7z"/>
			</g>
		</g>
		<ellipse id="XMLID_16214_" class="st56" cx="16.6" cy="18.6" rx="1.3" ry="0.9"/>
		<g id="XMLID_16212_">
			<path id="XMLID_16213_" class="st67" d="M20.6,24.7c-0.3,0-0.5-0.1-0.7-0.3c-0.2-0.2-0.2-0.5-0.2-0.8c0.2-1,0.8-1.8,1.6-2.4
				c0.7-0.6,1.7-0.9,2.7-0.9s1.9,0.3,2.7,0.9c0.8,0.6,1.3,1.4,1.6,2.4c0.1,0.3,0,0.6-0.2,0.8c-0.2,0.2-0.4,0.3-0.7,0.3
				c0,0-2.1-0.4-3.4-0.4S20.6,24.7,20.6,24.7z"/>
		</g>
		<path id="XMLID_16211_" class="st4" d="M19.5,15.1c-0.4,1.1-1.7,1.7-2.8,1.3"/>
		<ellipse id="XMLID_16210_" class="st56" cx="31.4" cy="18.6" rx="1.3" ry="0.9"/>
		<path id="XMLID_16209_" class="st4" d="M28.5,15.1c0.4,1.1,1.7,1.7,2.8,1.3"/>
		<g id="XMLID_16207_">
			<path id="XMLID_16208_" class="st67" d="M20.6,24.7c-0.3,0-0.5-0.1-0.7-0.3c-0.2-0.2-0.2-0.5-0.2-0.8c0.2-1,0.8-1.8,1.6-2.4
				c0.7-0.6,1.7-0.9,2.7-0.9s1.9,0.3,2.7,0.9c0.8,0.6,1.3,1.4,1.6,2.4c0.1,0.3,0,0.6-0.2,0.8c-0.2,0.2-0.4,0.3-0.7,0.3
				c0,0-2.1-0.4-3.4-0.4S20.6,24.7,20.6,24.7z"/>
		</g>
	</g>
	<g id="XMLID_16146_">
		<ellipse id="XMLID_16167_" class="st0" cx="24" cy="46.5" rx="13.5" ry="1.5"/>
		<g id="XMLID_16163_">
			<path id="XMLID_16166_" class="st30" d="M31.8,45c0,0.9-0.7,1.6-1.6,1.6c-0.9,0-1.6-0.7-1.6-1.6c0-0.6,0.8-2.5,1.3-3.4
				c0.1-0.2,0.4-0.2,0.6,0C30.9,42.5,31.8,44.4,31.8,45z"/>
			<path id="XMLID_16165_" class="st6" d="M30.2,45.6c-0.7,0-1.2-0.4-1.5-1c-0.1,0.2-0.1,0.4-0.1,0.5c0,0.9,0.7,1.6,1.6,1.6
				c0.9,0,1.6-0.7,1.6-1.6c0-0.1,0-0.3-0.1-0.5C31.5,45.1,30.9,45.6,30.2,45.6z"/>
			<path id="XMLID_16164_" class="st4" d="M31.8,45c0,0.9-0.7,1.6-1.6,1.6c-0.9,0-1.6-0.7-1.6-1.6c0-0.6,0.8-2.5,1.3-3.4
				c0.1-0.2,0.4-0.2,0.6,0C30.9,42.5,31.8,44.4,31.8,45z"/>
		</g>
		<g id="XMLID_16159_">
			<path id="XMLID_16162_" class="st30" d="M36.7,38.2c0,0.9-0.7,1.6-1.6,1.6s-1.6-0.7-1.6-1.6c0-0.6,0.8-2.5,1.3-3.4
				c0.1-0.2,0.4-0.2,0.6,0C35.9,35.7,36.7,37.6,36.7,38.2z"/>
			<path id="XMLID_16161_" class="st6" d="M35.2,38.7c-0.7,0-1.2-0.4-1.5-1c-0.1,0.2-0.1,0.4-0.1,0.5c0,0.9,0.7,1.6,1.6,1.6
				c0.9,0,1.6-0.7,1.6-1.6c0-0.1,0-0.3-0.1-0.5C36.4,38.3,35.9,38.7,35.2,38.7z"/>
			<path id="XMLID_16160_" class="st4" d="M36.7,38.2c0,0.9-0.7,1.6-1.6,1.6s-1.6-0.7-1.6-1.6c0-0.6,0.8-2.5,1.3-3.4
				c0.1-0.2,0.4-0.2,0.6,0C35.9,35.7,36.7,37.6,36.7,38.2z"/>
		</g>
		<g id="XMLID_16155_">
			<path id="XMLID_16158_" class="st30" d="M16.2,45c0,0.9,0.7,1.6,1.6,1.6c0.9,0,1.6-0.7,1.6-1.6c0-0.6-0.8-2.5-1.3-3.4
				c-0.1-0.2-0.4-0.2-0.6,0C17.1,42.5,16.2,44.4,16.2,45z"/>
			<path id="XMLID_16157_" class="st6" d="M17.8,45.6c0.7,0,1.2-0.4,1.5-1c0.1,0.2,0.1,0.4,0.1,0.5c0,0.9-0.7,1.6-1.6,1.6
				c-0.9,0-1.6-0.7-1.6-1.6c0-0.1,0-0.3,0.1-0.5C16.5,45.1,17.1,45.6,17.8,45.6z"/>
			<path id="XMLID_16156_" class="st4" d="M16.2,45c0,0.9,0.7,1.6,1.6,1.6c0.9,0,1.6-0.7,1.6-1.6c0-0.6-0.8-2.5-1.3-3.4
				c-0.1-0.2-0.4-0.2-0.6,0C17.1,42.5,16.2,44.4,16.2,45z"/>
		</g>
		<g id="XMLID_16151_">
			<path id="XMLID_16154_" class="st30" d="M11.3,38.2c0,0.9,0.7,1.6,1.6,1.6c0.9,0,1.6-0.7,1.6-1.6c0-0.6-0.8-2.5-1.3-3.4
				c-0.1-0.2-0.4-0.2-0.6,0C12.1,35.7,11.3,37.6,11.3,38.2z"/>
			<path id="XMLID_16153_" class="st6" d="M12.8,38.7c0.7,0,1.2-0.4,1.5-1c0.1,0.2,0.1,0.4,0.1,0.5c0,0.9-0.7,1.6-1.6,1.6
				c-0.9,0-1.6-0.7-1.6-1.6c0-0.1,0-0.3,0.1-0.5C11.6,38.3,12.1,38.7,12.8,38.7z"/>
			<path id="XMLID_16152_" class="st4" d="M11.3,38.2c0,0.9,0.7,1.6,1.6,1.6c0.9,0,1.6-0.7,1.6-1.6c0-0.6-0.8-2.5-1.3-3.4
				c-0.1-0.2-0.4-0.2-0.6,0C12.1,35.7,11.3,37.6,11.3,38.2z"/>
		</g>
		<g id="XMLID_16147_">
			<path id="XMLID_16150_" class="st30" d="M25.6,41.6c0,0.9-0.7,1.6-1.6,1.6c-0.9,0-1.6-0.7-1.6-1.6c0-0.6,0.8-2.5,1.3-3.4
				c0.1-0.2,0.4-0.2,0.6,0C24.7,39.1,25.6,41,25.6,41.6z"/>
			<path id="XMLID_16149_" class="st6" d="M24,42.1c-0.7,0-1.2-0.4-1.5-1c-0.1,0.2-0.1,0.4-0.1,0.5c0,0.9,0.7,1.6,1.6,1.6
				c0.9,0,1.6-0.7,1.6-1.6c0-0.1,0-0.3-0.1-0.5C25.2,41.7,24.7,42.1,24,42.1z"/>
			<path id="XMLID_16148_" class="st4" d="M25.6,41.6c0,0.9-0.7,1.6-1.6,1.6c-0.9,0-1.6-0.7-1.6-1.6c0-0.6,0.8-2.5,1.3-3.4
				c0.1-0.2,0.4-0.2,0.6,0C24.7,39.1,25.6,41,25.6,41.6z"/>
		</g>
	</g>
</g>
</svg>
