<?xml version="1.0" encoding="iso-8859-1"?>
<!-- Generator: Adobe Illustrator 19.0.0, SVG Export Plug-In . SVG Version: 6.00 Build 0)  -->
<svg version="1.1" id="Capa_1" xmlns="http://www.w3.org/2000/svg" xmlns:xlink="http://www.w3.org/1999/xlink" x="0px" y="0px"
	 viewBox="0 0 512.001 512.001" style="enable-background:new 0 0 512.001 512.001;" xml:space="preserve">
<path style="fill:#2D5872;" d="M245.347,110.894c-0.499,0-1.003-0.05-1.507-0.152c-3.347-0.675-5.834-3.496-6.085-6.9
	c-2.038-27.669,10.417-59.25,31.729-80.458C286.066,6.885,305.962-1.36,325.506,0.183c20.732,1.63,36.145,12.978,40.226,29.615
	c0.13,0.528,0.202,1.07,0.216,1.614c0.824,31.602-22.713,33.429-43.479,35.04c-24.307,1.886-51.856,4.022-70.344,40.288
	C250.807,109.324,248.164,110.894,245.347,110.894z M320.887,15.221c-13.981,0-28.295,6.641-40.667,18.952
	c-11.366,11.31-19.805,25.977-24.154,41.079c20.695-20.519,45.72-22.46,65.226-23.973c23.772-1.844,29.631-3.825,29.459-18.609
	c-2.798-9.776-12.611-16.227-26.437-17.315C323.174,15.266,322.031,15.221,320.887,15.221z"/>
<path style="fill:#9AADAF;" d="M17.201,454.522c-1.552,3.593-0.726,7.768,2.093,10.483c4.395,4.233,12.795,10.524,28.142,16.978
	c10.451,4.395,25.617,3.013,42.011,7.241c11.967,3.086,24.371,12.15,39.993,14.668c12.642,2.037,27.341-2.425,42.62-1.001
	c13.007,1.213,26.585,8.449,41.65,9.074c13.22,0.548,27.388-5.453,42.29-5.453c14.902,0,29.07,6.001,42.29,5.453
	c15.065-0.625,28.643-7.861,41.65-9.074c15.279-1.425,29.979,3.038,42.62,1.001c15.622-2.517,28.026-11.581,39.993-14.668
	c16.394-4.228,31.559-2.846,42.01-7.241c15.347-6.454,23.747-12.745,28.142-16.978c2.819-2.715,3.645-6.891,2.093-10.483
	c-11.31-26.182-62.135-146.162-93.021-258.018C366.867,70.069,256,79.976,256,79.976s-110.867-9.907-145.778,116.528
	C79.337,308.36,28.512,428.34,17.201,454.522z"/>
<path style="fill:#8DA2A3;" d="M494.799,454.521c-11.31-26.182-62.135-146.161-93.021-258.017
	C367.739,73.23,261.515,79.565,256.224,79.959c34.816,22.193,76.108,63.563,95.255,139.363
	c28.42,112.508,81.711,231.836,93.021,258.017c1.214,2.811,0.954,5.97-0.558,8.515c7.888-0.802,14.953-1.487,20.623-3.871
	c15.347-6.454,23.747-12.745,28.142-16.978C495.525,462.29,496.351,458.114,494.799,454.521z"/>
<path style="fill:#FFD57F;" d="M369.218,359.107c-75.509,9.006-150.928,9.006-226.435,0c-3.132-0.374-5.351-3.25-4.936-6.377
	c3.102-23.367,6.204-46.733,9.306-70.1c0.408-3.074,3.211-5.235,6.29-4.871c68.438,8.084,136.678,8.083,205.115,0
	c3.079-0.364,5.882,1.798,6.29,4.871c3.102,23.367,6.204,46.733,9.306,70.1C374.569,355.857,372.35,358.734,369.218,359.107z"/>
<path style="fill:#F7C169;" d="M374.154,352.73c-3.102-23.367-6.204-46.733-9.306-70.1c-0.408-3.074-3.211-5.235-6.29-4.871
	c-16.472,1.945-32.933,3.411-49.387,4.42c3.395,25.703,7.199,55.942,10.582,81.515c16.486-1.108,32.973-2.619,49.466-4.586
	C372.35,358.734,374.569,355.857,374.154,352.73z"/>
<g>
	<path style="fill:#FFFFFF;" d="M179.304,311.513c0-2.92,2.494-4.684,6.873-4.684c5.11,0,6.509,2.311,8.395,2.311
		c2.19,0,3.163-2.798,3.163-4.197c0-4.015-7.969-4.867-11.558-4.867c-6.995,0-14.781,3.103-14.781,12.166
		c0,14.416,19.526,11.618,19.526,20.743c0,3.649-3.163,5.291-6.813,5.291c-6.204,0-7.847-4.683-10.341-4.683
		c-1.886,0-3.467,2.555-3.467,4.257c0,3.529,6.083,7.543,14.051,7.543c8.395,0,14.477-4.501,14.477-13.2
		C198.83,316.44,179.304,319.056,179.304,311.513z"/>
	<path style="fill:#FFFFFF;" d="M223.157,302.693c-0.548-1.825-2.798-2.677-5.11-2.677c-2.251,0-4.501,0.852-5.049,2.677
		l-11.74,38.261c-0.061,0.244-0.121,0.486-0.121,0.608c0,1.947,2.859,3.285,4.988,3.285c1.338,0,2.372-0.426,2.676-1.582l2.311-8.09
		h13.93l2.311,8.09c0.304,1.156,1.338,1.582,2.676,1.582c2.129,0,4.988-1.399,4.988-3.285c0-0.182-0.061-0.364-0.122-0.608
		L223.157,302.693z M212.756,328.971l5.292-18.675l5.292,18.675H212.756z"/>
	<path style="fill:#FFFFFF;" d="M263.971,300.382c-2.007,0-3.954,0.73-3.954,2.432v28.468c0,4.745-2.494,6.995-6.691,6.995
		c-4.198,0-6.691-2.25-6.691-6.995v-28.468c0-1.702-2.007-2.432-3.954-2.432c-2.007,0-3.954,0.73-3.954,2.432v28.468
		c0,10.158,6.387,13.93,14.599,13.93c8.151,0,14.599-3.772,14.599-13.93v-28.468C267.925,301.112,265.917,300.382,263.971,300.382z"
		/>
	<path style="fill:#FFFFFF;" d="M300.586,300.382c-2.007,0-3.954,0.73-3.954,2.432v24.454l-11.74-22.689
		c-1.886-3.589-3.041-4.197-5.9-4.197c-2.007,0-3.953,0.79-3.953,2.494v39.478c0,1.642,1.947,2.494,3.953,2.494
		c1.947,0,3.954-0.852,3.954-2.494V317.9l13.078,24.454c1.034,1.886,2.676,2.494,4.562,2.494c1.947,0,3.954-0.852,3.954-2.494
		v-39.539C304.54,301.112,302.533,300.382,300.586,300.382z"/>
	<path style="fill:#FFFFFF;" d="M330.754,302.693c-0.548-1.825-2.798-2.677-5.11-2.677c-2.251,0-4.501,0.852-5.049,2.677
		l-11.74,38.261c-0.061,0.244-0.121,0.486-0.121,0.608c0,1.947,2.859,3.285,4.988,3.285c1.338,0,2.372-0.426,2.676-1.582l2.311-8.09
		h13.93l2.311,8.09c0.304,1.156,1.338,1.582,2.676,1.582c2.129,0,4.988-1.399,4.988-3.285c0-0.182-0.061-0.364-0.122-0.608
		L330.754,302.693z M320.352,328.971l5.292-18.675l5.292,18.675H320.352z"/>
</g>
<g>
	<path style="fill:#C0CBCC;" d="M256,79.976c0,0-1.491-0.131-4.156-0.17l9.144,7.593c50.034,40.76,63.991,120.621,67.678,153.333
		l0.398,3.522c0.439,3.883,3.731,6.751,7.548,6.751c0.261,0,0.525-0.014,0.791-0.042c4.201-0.434,7.224-4.452,6.75-8.648
		l-0.371-3.286c-5.059-44.886-16.494-83.533-33.986-114.866c-7.244-12.977-14.765-23.318-21.807-31.471
		c-1.596-1.848-3.287-3.605-5.048-5.296l-7.065-6.786C263.785,79.281,256,79.976,256,79.976z"/>
	<path style="fill:#C0CBCC;" d="M256,79.976c0,0-5.869-0.52-15.316,0.209l-8.572,8.628c-8.002,8.673-16.824,20.219-25.271,35.35
		c-17.492,31.334-28.926,69.98-33.985,114.866l-0.446,3.944c-0.473,4.173,2.527,7.94,6.701,8.414c0.291,0.033,0.58,0.05,0.866,0.05
		c3.817,0,7.108-2.867,7.548-6.75l0.447-3.955c3.682-32.67,17.606-112.366,67.481-153.175l8.737-7.733
		C259.017,79.71,256,79.976,256,79.976z"/>
	<path style="fill:#C0CBCC;" d="M400.305,490.057c-14.622-27.849-24.931-57.253-33.239-94.785c-0.908-4.1-4.965-6.691-9.07-5.782
		c-4.101,0.907-6.69,4.969-5.782,9.07c8.445,38.149,18.927,68.292,33.712,96.835l3.577,6.914c5.228-1.503,10.108-3.578,14.754-5.688
		L400.305,490.057z"/>
	<path style="fill:#C0CBCC;" d="M158.545,389.958c-4.101-0.911-8.163,1.676-9.074,5.775c-8.455,38.055-18.973,67.735-34.006,95.972
		l-3.31,6.859c4.524,1.925,9.28,3.677,14.384,4.78l3.718-7.082c14.976-28.717,25.553-58.928,34.063-97.229
		C165.232,394.932,162.646,390.87,158.545,389.958z"/>
</g>
<g>
</g>
<g>
</g>
<g>
</g>
<g>
</g>
<g>
</g>
<g>
</g>
<g>
</g>
<g>
</g>
<g>
</g>
<g>
</g>
<g>
</g>
<g>
</g>
<g>
</g>
<g>
</g>
<g>
</g>
</svg>
