<svg height="464pt" viewBox="0 0 464 464" width="464pt" xmlns="http://www.w3.org/2000/svg"><g fill="#00ccb3"><path d="m0 80h32v288h-32zm0 0"/><path d="m32 16c0-8.835938-7.164062-16-16-16s-16 7.164062-16 16v32h32zm0 0"/><path d="m448 0c-8.835938 0-16 7.164062-16 16v32h32v-32c0-8.835938-7.164062-16-16-16zm0 0"/><path d="m432 80h32v288h-32zm0 0"/></g><path d="m0 432h32v32h-32zm0 0" fill="#ff6243"/><path d="m0 400h32v32h-32zm0 0" fill="#3d9ae2"/><path d="m0 368h32v32h-32zm0 0" fill="#ff6243"/><path d="m432 432h32v32h-32zm0 0" fill="#ff6243"/><path d="m432 400h32v32h-32zm0 0" fill="#3d9ae2"/><path d="m432 368h32v32h-32zm0 0" fill="#ff6243"/><path d="m432 48h-432v32h464v-32zm0 0" fill="#ffa733"/><path d="m0 80h32v16h-32zm0 0" fill="#00b39d"/><path d="m432 80h32v16h-32zm0 0" fill="#00b39d"/><path d="m352 48h16v32h-16zm0 0" fill="#ee8700"/><path d="m232 48h16v32h-16zm0 0" fill="#ee8700"/><path d="m112 48h16v32h-16zm0 0" fill="#ee8700"/><path d="m104 48h16v80h-16zm0 0" fill="#1e81ce"/><path d="m224 48h16v80h-16zm0 0" fill="#1e81ce"/><path d="m344 48h16v80h-16zm0 0" fill="#1e81ce"/><path d="m232 216c-26.507812 0-48-21.492188-48-48s21.492188-48 48-48 48 21.492188 48 48c-.027344 26.5-21.5 47.972656-48 48zm0-80c-17.671875 0-32 14.328125-32 32s14.328125 32 32 32 32-14.328125 32-32-14.328125-32-32-32zm0 0" fill="#ee8700"/><path d="m352 216c-26.507812 0-48-21.492188-48-48s21.492188-48 48-48 48 21.492188 48 48c-.027344 26.5-21.5 47.972656-48 48zm0-80c-17.671875 0-32 14.328125-32 32s14.328125 32 32 32 32-14.328125 32-32-14.328125-32-32-32zm0 0" fill="#ee8700"/><path d="m112 216c-26.507812 0-48-21.492188-48-48s21.492188-48 48-48 48 21.492188 48 48c-.027344 26.5-21.5 47.972656-48 48zm0-80c-17.671875 0-32 14.328125-32 32s14.328125 32 32 32 32-14.328125 32-32-14.328125-32-32-32zm0 0" fill="#ee8700"/></svg>