<?xml version="1.0" encoding="utf-8"?>
<!-- Generator: Adobe Illustrator 21.1.0, SVG Export Plug-In . SVG Version: 6.00 Build 0)  -->
<svg version="1.1" id="Icons" xmlns="http://www.w3.org/2000/svg" xmlns:xlink="http://www.w3.org/1999/xlink" x="0px" y="0px"
	 viewBox="0 0 48 48" style="enable-background:new 0 0 48 48;" xml:space="preserve">
<style type="text/css">
	.st0{opacity:0.15;fill:#45413C;}
	.st1{fill:#DAEDF7;stroke:#45413C;stroke-linecap:round;stroke-linejoin:round;stroke-miterlimit:10;}
	.st2{fill:#656769;}
	.st3{fill:#87898C;}
	.st4{fill:none;stroke:#45413C;stroke-linecap:round;stroke-linejoin:round;stroke-miterlimit:10;}
	.st5{fill:#DAEDF7;}
	.st6{fill:#E8F4FA;}
	.st7{fill:#FFFFFF;}
	.st8{fill:#E0E0E0;}
	.st9{fill:#00B8F0;}
	.st10{fill:#FF6242;stroke:#45413C;stroke-linecap:round;stroke-linejoin:round;stroke-miterlimit:10;}
	.st11{fill:#FFE500;stroke:#45413C;stroke-linecap:round;stroke-linejoin:round;stroke-miterlimit:10;}
	.st12{fill:#00DBA8;stroke:#45413C;stroke-linecap:round;stroke-linejoin:round;stroke-miterlimit:10;}
	.st13{fill:#BF8DF2;stroke:#45413C;stroke-linecap:round;stroke-linejoin:round;stroke-miterlimit:10;}
	.st14{fill:#00B8F0;stroke:#45413C;stroke-linecap:round;stroke-linejoin:round;stroke-miterlimit:10;}
	.st15{fill:#87898C;stroke:#45413C;stroke-linecap:round;stroke-linejoin:round;stroke-miterlimit:10;}
	.st16{fill:#FF6242;}
	.st17{fill:#E04122;}
	.st18{fill:#9CEB60;}
	.st19{fill:#6DD627;}
	.st20{fill:#FF866E;}
	.st21{fill:#F0F0F0;}
	.st22{fill:#009FD9;}
	.st23{fill:#656769;stroke:#45413C;stroke-linecap:round;stroke-linejoin:round;stroke-miterlimit:10;}
	.st24{fill:#ADC4D9;}
	.st25{fill:#8CA4B8;}
	.st26{fill:#BDBEC0;}
	.st27{fill:#C0DCEB;stroke:#45413C;stroke-linecap:round;stroke-linejoin:round;stroke-miterlimit:10;}
	.st28{fill:#4ACFFF;}
	.st29{fill:#FFFFFF;stroke:#45413C;stroke-linecap:round;stroke-linejoin:round;stroke-miterlimit:10;}
	.st30{fill:#C0DCEB;}
	.st31{fill:#FFAA54;stroke:#45413C;stroke-linecap:round;stroke-linejoin:round;stroke-miterlimit:10;}
	.st32{fill:#FF8A14;}
	.st33{fill:#FFAA54;}
	.st34{fill:#6DD627;stroke:#45413C;stroke-linecap:round;stroke-linejoin:round;stroke-miterlimit:10;}
	.st35{fill:#DEBB7E;}
	.st36{fill:#F0D5A8;}
	.st37{fill:none;stroke:#45413C;stroke-miterlimit:10;}
	.st38{fill:#FFE500;}
	.st39{fill:#FFF48C;}
	.st40{fill:#FFF48C;stroke:#45413C;stroke-linecap:round;stroke-linejoin:round;stroke-miterlimit:10;}
	.st41{fill:#FF8A14;stroke:#45413C;stroke-linecap:round;stroke-linejoin:round;stroke-miterlimit:10;}
	.st42{fill:#525252;}
	.st43{fill:#00F5BC;}
	.st44{fill:#8CFFE4;}
	.st45{fill:#00DBA8;}
	.st46{fill:#EBCB00;}
	.st47{fill:#FF866E;stroke:#45413C;stroke-linecap:round;stroke-linejoin:round;stroke-miterlimit:10;}
	.st48{fill:#FFCC99;}
	.st49{fill:#45413C;stroke:#45413C;stroke-linecap:round;stroke-linejoin:round;stroke-miterlimit:10;}
	.st50{fill:#C8FFA1;}
	.st51{fill:#BDBEC0;stroke:#45413C;stroke-linecap:round;stroke-linejoin:round;stroke-miterlimit:10;}
	.st52{fill:#80DDFF;}
	.st53{fill:#4ACFFF;stroke:#45413C;stroke-linecap:round;stroke-linejoin:round;stroke-miterlimit:10;}
	.st54{fill:#FFFCE5;}
	.st55{fill:#FFFACF;}
	.st56{fill:#627B8C;}
	.st57{fill:#BF8256;}
	.st58{fill:#DEA47A;}
	.st59{fill:#BF8256;stroke:#45413C;stroke-linecap:round;stroke-linejoin:round;stroke-miterlimit:10;}
	.st60{fill:#DEBB7E;stroke:#45413C;stroke-linecap:round;stroke-linejoin:round;stroke-miterlimit:10;}
	.st61{fill:#B89558;}
	.st62{fill:#B8ECFF;}
	.st63{fill:#F7E5C6;}
	.st64{fill:#FFF5E3;}
	.st65{fill:#915E3A;}
	.st66{fill:#45413C;stroke:#45413C;stroke-miterlimit:10;}
	.st67{fill:#FFB0CA;stroke:#45413C;stroke-linecap:round;stroke-linejoin:round;stroke-miterlimit:10;}
	.st68{fill:#FF87AF;stroke:#45413C;stroke-linecap:round;stroke-linejoin:round;stroke-miterlimit:10;}
	.st69{fill:#E5FEFF;}
	.st70{fill:#A6FBFF;}
	.st71{fill:#FFB0CA;}
	.st72{fill:#FF87AF;}
	.st73{fill:none;stroke:#45413C;stroke-linecap:round;stroke-miterlimit:10;}
	.st74{fill:#BF8DF2;}
	.st75{fill:#DABFF5;}
	.st76{fill:#4AEFF7;}
	.st77{fill:#00DFEB;}
	.st78{fill:#FFCEBF;}
	.st79{fill:#FF6196;stroke:#45413C;stroke-linecap:round;stroke-linejoin:round;stroke-miterlimit:10;}
	.st80{fill:#00DFEB;stroke:#45413C;stroke-linecap:round;stroke-linejoin:round;stroke-miterlimit:10;}
	.st81{fill:#FF6196;}
	.st82{fill:#EBCB00;stroke:#45413C;stroke-linecap:round;stroke-linejoin:round;stroke-miterlimit:10;}
	.st83{fill:#00F5BC;stroke:#45413C;stroke-linecap:round;stroke-linejoin:round;stroke-miterlimit:10;}
	.st84{fill:#4AEFF7;stroke:#45413C;stroke-linecap:round;stroke-linejoin:round;stroke-miterlimit:10;}
	.st85{fill:#46B000;}
	.st86{fill:#E0366F;}
	.st87{fill:#E0366F;stroke:#45413C;stroke-linecap:round;stroke-linejoin:round;stroke-miterlimit:10;}
	.st88{fill:none;stroke:#E04122;stroke-linecap:round;stroke-linejoin:round;stroke-miterlimit:10;}
	.st89{fill:#FFA694;}
	.st90{fill:#EDDBFF;stroke:#45413C;stroke-linecap:round;stroke-linejoin:round;stroke-miterlimit:10;}
	.st91{fill:none;stroke:#BF8DF2;stroke-linecap:round;stroke-linejoin:round;stroke-miterlimit:10;}
	.st92{fill:#EDDBFF;}
	.st93{fill:#DABFF5;stroke:#45413C;stroke-linecap:round;stroke-linejoin:round;stroke-miterlimit:10;}
	.st94{fill:#E04122;stroke:#45413C;stroke-linecap:round;stroke-linejoin:round;stroke-miterlimit:10;}
	.st95{fill:#EB6D00;}
	.st96{fill:none;stroke:#45413C;stroke-width:1.0064;stroke-linecap:round;stroke-linejoin:round;stroke-miterlimit:10;}
	.st97{fill:#915E3A;stroke:#45413C;stroke-linecap:round;stroke-linejoin:round;stroke-miterlimit:10;}
	.st98{fill:#E0E0E0;stroke:#45413C;stroke-linecap:round;stroke-linejoin:round;stroke-miterlimit:10;}
	.st99{fill:#F0F0F0;stroke:#45413C;stroke-linecap:round;stroke-linejoin:round;stroke-miterlimit:10;}
	.st100{fill:#46B000;stroke:#45413C;stroke-linecap:round;stroke-linejoin:round;stroke-miterlimit:10;}
	.st101{fill:#4F4B45;}
	.st102{fill:#FFDCD1;}
	.st103{fill:#8CA4B8;stroke:#45413C;stroke-linecap:round;stroke-linejoin:round;stroke-miterlimit:10;}
	.st104{fill:#E8F4FA;stroke:#45413C;stroke-linecap:round;stroke-linejoin:round;stroke-miterlimit:10;}
	.st105{fill:none;stroke:#48CF3E;stroke-linecap:round;stroke-linejoin:round;stroke-miterlimit:10;}
	.st106{fill:none;stroke:#FF4064;stroke-linecap:round;stroke-linejoin:round;stroke-miterlimit:10;}
	.st107{fill:none;stroke:#FFB700;stroke-linecap:round;stroke-linejoin:round;stroke-miterlimit:10;}
	.st108{fill:none;stroke:#00AED9;stroke-linecap:round;stroke-linejoin:round;stroke-miterlimit:10;}
	.st109{fill:#C0DCEB;stroke:#45413C;stroke-miterlimit:10;}
	.st110{fill:#525252;stroke:#45413C;stroke-linecap:round;stroke-linejoin:round;stroke-miterlimit:10;}
	.st111{fill:#FFF5E3;stroke:#45413C;stroke-linecap:round;stroke-linejoin:round;stroke-miterlimit:10;}
	.st112{fill:#FFFFFF;stroke:#45413C;stroke-linejoin:round;stroke-miterlimit:10;}
	.st113{fill:#F0C2A1;}
	.st114{fill:#DEA47A;stroke:#45413C;stroke-linecap:round;stroke-linejoin:round;stroke-miterlimit:10;}
	.st115{fill:#F0C2A1;stroke:#45413C;stroke-linecap:round;stroke-linejoin:round;stroke-miterlimit:10;}
	.st116{fill:#FFFEF2;}
	.st117{fill:#9CEB60;stroke:#45413C;stroke-linecap:round;stroke-linejoin:round;stroke-miterlimit:10;}
	.st118{fill:#9F5AE5;stroke:#45413C;stroke-linecap:round;stroke-linejoin:round;stroke-miterlimit:10;}
	.st119{fill:#627B8C;stroke:#45413C;stroke-linecap:round;stroke-linejoin:round;stroke-miterlimit:10;}
	.st120{fill:#FFFACF;stroke:#45413C;stroke-linecap:round;stroke-linejoin:round;stroke-miterlimit:10;}
</style>
<g>
	<ellipse id="XMLID_16145_" class="st0" cx="24" cy="44.5" rx="13.5" ry="1.5"/>
	<g id="XMLID_16123_">
		<g id="XMLID_16140_">
			
				<ellipse id="XMLID_16144_" transform="matrix(0.967 -0.2547 0.2547 0.967 -3.4127 4.0047)" class="st38" cx="13.8" cy="15.2" rx="8.2" ry="8.2"/>
			<path id="XMLID_16143_" class="st46" d="M12.4,7.1c3.8-0.6,7.5,1.8,8.5,5.6c1.1,4.1-1.4,8.2-5.4,9.3c-4.1,1.1-8.2-1.4-9.3-5.4
				c-1-3.8,1.1-7.7,4.7-9C7,8.9,4.7,13.1,5.8,17.3c1.2,4.4,5.6,7,10,5.8s7-5.6,5.8-10C20.6,9,16.6,6.4,12.4,7.1z"/>
			
				<ellipse id="XMLID_16142_" transform="matrix(0.967 -0.2547 0.2547 0.967 -3.4127 4.0047)" class="st4" cx="13.8" cy="15.2" rx="8.2" ry="8.2"/>
			
				<ellipse id="XMLID_16141_" transform="matrix(0.967 -0.2547 0.2547 0.967 -1.8956 3.3876)" class="st39" cx="12.1" cy="9" rx="2.4" ry="0.6"/>
		</g>
		<g id="XMLID_16131_">
			<path id="XMLID_16139_" class="st11" d="M11.4,2.6c-0.1-0.5-0.6-0.8-1.1-0.6S9.5,2.6,9.6,3.1l0.5,1.8c0.1,0.5,0.6,0.8,1.1,0.6
				c0.5-0.1,0.8-0.6,0.6-1.1L11.4,2.6z"/>
			<path id="XMLID_16138_" class="st11" d="M3.2,8C2.8,7.7,2.2,7.9,2,8.3c-0.3,0.4-0.1,1,0.3,1.2l1.6,0.9c0.4,0.3,1,0.1,1.2-0.3
				c0.3-0.4,0.1-1-0.3-1.2L3.2,8z"/>
			<path id="XMLID_16137_" class="st11" d="M1.2,17.5c-0.5,0.1-0.8,0.6-0.6,1.1s0.6,0.8,1.1,0.6l1.8-0.5c0.5-0.1,0.8-0.6,0.6-1.1
				C3.9,17.2,3.4,17,3,17.1L1.2,17.5z"/>
			<path id="XMLID_16136_" class="st11" d="M6.5,25.7c-0.3,0.4-0.1,1,0.3,1.2c0.4,0.3,1,0.1,1.2-0.3L9,25.1c0.3-0.4,0.1-1-0.3-1.2
				c-0.4-0.3-1-0.1-1.2,0.3L6.5,25.7z"/>
			<path id="XMLID_16135_" class="st11" d="M16.1,27.7c0.1,0.5,0.6,0.8,1.1,0.6c0.5-0.1,0.8-0.6,0.6-1.1l-0.5-1.8
				c-0.1-0.5-0.6-0.8-1.1-0.6c-0.5,0.1-0.8,0.6-0.6,1.1L16.1,27.7z"/>
			<path id="XMLID_16134_" class="st11" d="M24.3,22.4c0.4,0.3,1,0.1,1.2-0.3c0.3-0.4,0.1-1-0.3-1.2l-1.6-0.9
				c-0.4-0.3-1-0.1-1.2,0.3c-0.3,0.4-0.1,1,0.3,1.2L24.3,22.4z"/>
			<path id="XMLID_16133_" class="st11" d="M26.3,12.8c0.5-0.1,0.8-0.6,0.6-1.1c-0.1-0.5-0.6-0.8-1.1-0.6l-1.8,0.5
				c-0.5,0.1-0.8,0.6-0.6,1.1c0.1,0.5,0.6,0.8,1.1,0.6L26.3,12.8z"/>
			<path id="XMLID_16132_" class="st11" d="M21,4.6c0.3-0.4,0.1-1-0.3-1.2c-0.4-0.3-1-0.1-1.2,0.3l-0.9,1.6c-0.3,0.4-0.1,1,0.3,1.2
				c0.4,0.3,1,0.1,1.2-0.3L21,4.6z"/>
		</g>
		<g id="XMLID_16124_">
			
				<ellipse id="XMLID_16130_" transform="matrix(0.967 -0.2547 0.2547 0.967 -3.9121 2.7765)" class="st33" cx="8.8" cy="16.5" rx="0.9" ry="0.6"/>
			<g id="XMLID_16128_">
				<path id="XMLID_16129_" class="st67" d="M16.4,16c0.4-0.1,0.8,0.2,0.8,0.6c0,1.4-0.9,2.6-2.3,3c-1.4,0.4-2.8-0.3-3.4-1.5
					c-0.2-0.3,0-0.8,0.4-0.9L16.4,16z"/>
			</g>
			<path id="XMLID_16127_" class="st4" d="M8.2,15.4c-0.1-0.5,0.2-1,0.6-1.1c0.5-0.1,1,0.2,1.1,0.6"/>
			
				<ellipse id="XMLID_16126_" transform="matrix(0.967 -0.2547 0.2547 0.967 -2.913 5.2324)" class="st33" cx="18.7" cy="13.9" rx="0.9" ry="0.6"/>
			<path id="XMLID_16125_" class="st4" d="M18.7,12.6c-0.1-0.5-0.6-0.8-1.1-0.6c-0.5,0.1-0.8,0.6-0.6,1.1"/>
		</g>
	</g>
	<g id="XMLID_16109_">
		<g id="XMLID_16116_">
			<g id="XMLID_16117_">
				<path id="XMLID_16121_" class="st7" d="M47.5,26.4c0-1.7-1.2-3-2.7-3.4c0.3-2.2-1.4-3.9-3.4-3.9c-0.7,0-1.4,0.2-1.9,0.6
					c0.1-2.1-1.5-3.7-3.4-3.7c-0.9,0-1.8,0.4-2.4,1c-0.4-1.5-1.7-2.5-3.3-2.5c-1.6,0-2.9,1.1-3.3,2.5c-0.6-0.6-1.5-1-2.4-1
					c-1.9,0-3.5,1.6-3.4,3.7c-0.6-0.4-1.2-0.6-1.9-0.6c-2,0-3.7,1.7-3.4,3.9c-1.6,0.3-2.7,1.7-2.7,3.4c0,1.7,1.3,3.1,2.9,3.4
					c-0.9,2.3,0.9,4.6,3.2,4.6c0.7,0,1.4-0.2,1.9-0.6c-0.1,2.1,1.5,3.7,3.4,3.7c1.1,0,2-0.5,2.6-1.2c0.5,1.2,1.7,2,3.1,2
					c1.4,0,2.6-0.8,3.1-2c0.6,0.7,1.6,1.2,2.6,1.2c1.9,0,3.5-1.6,3.4-3.7c0.6,0.4,1.2,0.6,1.9,0.6c2.3,0,4.1-2.3,3.2-4.6
					C46.2,29.5,47.5,28.1,47.5,26.4z"/>
				<path id="XMLID_16120_" class="st21" d="M46.9,24.5c-0.7,0.4-1.1,1.2-1.1,2c-0.1,1.9-1.7,3.5-3.7,3.5c-0.3,0-0.6,0-1-0.1
					c-0.5-0.1-1.1,0.2-1.2,0.7c-0.4,1.6-1.9,2.7-3.5,2.7c-0.8,0-1.5-0.2-2-0.6c-0.4-0.3-1-0.2-1.3,0.2c-0.7,0.8-1.7,1.3-2.8,1.3
					c-1.1,0-2.1-0.5-2.8-1.3c-0.3-0.4-0.9-0.5-1.3-0.2c-0.6,0.4-1.3,0.6-2,0.6c-1.6,0-3.1-1.1-3.5-2.7c-0.1-0.5-0.7-0.8-1.2-0.7
					c-0.3,0.1-0.6,0.1-1,0.1c-2,0-3.6-1.6-3.7-3.5c0-0.8-0.5-1.6-1.1-2c-0.4,0.5-0.6,1.2-0.6,1.9c0,1.7,1.3,3.1,2.9,3.4
					c-0.9,2.3,0.9,4.6,3.2,4.6c0.7,0,1.4-0.2,1.9-0.6c-0.1,2.1,1.5,3.7,3.4,3.7c1.1,0,2-0.5,2.6-1.2c0.5,1.2,1.7,2,3.1,2
					c1.4,0,2.6-0.8,3.1-2c0.6,0.7,1.6,1.2,2.6,1.2c1.9,0,3.5-1.6,3.4-3.7c0.6,0.4,1.2,0.6,1.9,0.6c2.3,0,4.1-2.3,3.2-4.6
					c1.6-0.3,2.9-1.7,2.9-3.4C47.5,25.7,47.3,25.1,46.9,24.5z"/>
				<path id="XMLID_16118_" class="st4" d="M47.5,26.4c0-1.7-1.2-3-2.7-3.4c0.3-2.2-1.4-3.9-3.4-3.9c-0.7,0-1.4,0.2-1.9,0.6
					c0.1-2.1-1.5-3.7-3.4-3.7c-0.9,0-1.8,0.4-2.4,1c-0.4-1.5-1.7-2.5-3.3-2.5c-1.6,0-2.9,1.1-3.3,2.5c-0.6-0.6-1.5-1-2.4-1
					c-1.9,0-3.5,1.6-3.4,3.7c-0.6-0.4-1.2-0.6-1.9-0.6c-2,0-3.7,1.7-3.4,3.9c-1.6,0.3-2.7,1.7-2.7,3.4c0,1.7,1.3,3.1,2.9,3.4
					c-0.9,2.3,0.9,4.6,3.2,4.6c0.7,0,1.4-0.2,1.9-0.6c-0.1,2.1,1.5,3.7,3.4,3.7c1.1,0,2-0.5,2.6-1.2c0.5,1.2,1.7,2,3.1,2
					c1.4,0,2.6-0.8,3.1-2c0.6,0.7,1.6,1.2,2.6,1.2c1.9,0,3.5-1.6,3.4-3.7c0.6,0.4,1.2,0.6,1.9,0.6c2.3,0,4.1-2.3,3.2-4.6
					C46.2,29.5,47.5,28.1,47.5,26.4z"/>
			</g>
		</g>
		<g id="XMLID_16110_">
			<ellipse id="XMLID_16115_" class="st71" cx="25.1" cy="27.9" rx="0.9" ry="0.6"/>
			<path id="XMLID_16114_" class="st67" d="M32.7,29.5c0.4,0,0.7,0.4,0.6,0.8c-0.3,1.3-1.5,2.3-2.9,2.3c-1.4,0-2.6-1-2.9-2.3
				c-0.1-0.4,0.2-0.8,0.6-0.8H32.7z"/>
			<path id="XMLID_16113_" class="st4" d="M24.8,26.7c0-0.5,0.4-0.9,0.9-0.9c0.5,0,0.9,0.4,0.9,0.9"/>
			<ellipse id="XMLID_16112_" class="st71" cx="35.5" cy="27.9" rx="0.9" ry="0.6"/>
			<path id="XMLID_16111_" class="st4" d="M35.8,26.7c0-0.5-0.4-0.9-0.9-0.9c-0.5,0-0.9,0.4-0.9,0.9"/>
		</g>
	</g>
</g>
</svg>
