<svg height="466pt" viewBox="-16 0 466 466.24" width="466pt" xmlns="http://www.w3.org/2000/svg"><path d="m361.039062 203.660156c0-18.988281 14.371094-34.390625 32.101563-34.390625h.71875c17.699219 0 32.0625 15.339844 32.101563 34.289063.148437 62.03125.050781 68.121094-.03125 160.769531-.050782 52.011719-39.429688 94.152344-87.988282 94.152344h-104.261718c-31.898438 0-61.308594-18.511719-76.847657-48.359375l-92.960937-178.589844 9.710937-8.050781c20.109375-18.480469 50.347657-16.210938 67.847657 5.089843l26.011718 31.667969.160156-217.867187c.007813-18.992188 14.378907-34.371094 32.097657-34.371094h.011719c17.730468 0 32.097656 15.398438 32.097656 34.390625v131.570313c.582031-18.441407 14.730468-33.199219 32.089844-33.199219h.75c17.730468 0 32.113281 15.398437 32.113281 34.386719v11.070312c0-19 14.367187-34.390625 32.097656-34.390625h.082031c17.730469 0 32.097656 15.390625 32.097656 34.390625zm0 0" fill="#f7caa5"/><g fill="#083863"><path d="m393.859375 161.238281h-.71875c-9.851563.039063-19.320313 3.828125-26.472656 10.601563-5.582031-16.328125-20.402344-28.023438-37.808594-28.023438-10.78125.140625-21.027344 4.71875-28.324219 12.660156-6.585937-13.90625-20.195312-23.238281-35.886718-23.238281h-.75c-9.054688 0-17.816407 2.648438-23.816407 7.945313v-98.792969c0-23.375-18.125-42.390625-40.246093-42.390625-22.101563 0-40.15625 19.003906-40.167969 42.363281l-.175781 195.550781-11.863282-14.421874c-9.546875-11.882813-23.601562-19.265626-38.800781-20.382813-14.902344-1.023437-29.5625 4.167969-40.5 14.339844l-9.558594 7.921875c-2.902343 2.40625-3.730469 6.507812-1.992187 9.851562l92.960937 178.472656c16.910157 32.484376 49.074219 52.542969 83.941407 52.542969h104.261718c52.875 0 95.933594-45.699219 95.988282-102.019531.023437-26.714844.046874-46.167969.066406-61.902344.050781-38.667968.070312-54.65625-.035156-98.8125-.050782-23.316406-18.039063-42.265625-40.101563-42.265625zm24.136719 141.113281c-.019532 15.738282-.042969 35.136719-.066406 61.851563-.050782 47.507813-35.929688 86.035156-79.988282 86.035156h-104.261718c-28.878907 0-55.605469-16.757812-69.753907-43.933593l-89.976562-172.796876 4.734375-3.902343c.109375-.085938.210937-.160157.308594-.253907 7.726562-7.265624 18.125-10.992187 28.707031-10.289062 10.808593.824219 20.785156 6.105469 27.546875 14.578125l26.011718 31.671875c2.144532 2.609375 5.695313 3.59375 8.875 2.457031 3.179688-1.136719 5.304688-4.148437 5.308594-7.527343l.160156-217.871094c.003907-14.542969 10.953126-26.375 24.242188-26.375 13.292969 0 24.238281 11.84375 24.238281 26.394531v131.523437c0 .40625-.023437.820313-.023437 1.226563 0 .136719.023437.269531.023437.40625v56.351563c0 4.417968 3.578125 8 8 8 4.417969 0 8-3.582032 8-8v-57.757813c0-14.238281 10.777344-24.902344 23.816407-24.902344h.75c13.296874 0 24.433593 11.359375 24.433593 25.910157v51.390624c0 4.417969 3.578125 8 8 8 4.417969 0 8-3.582031 8-8v-40.320312c0-14.550781 10.667969-26.390625 24.039063-26.390625 13.289062 0 23.960937 11.839844 23.960937 26.390625v38.042969c0 4.417969 3.578125 8 8 8 4.417969 0 8-3.582031 8-8v-20.601563c0-14.550781 10.769531-26.421875 24.058594-26.421875h.71875c13.257813 0 24.070313 11.816407 24.101563 26.324219.105468 44.132812.085937 60.144531.035156 98.789062zm0 0"/><path d="m268.082031 79.238281h103.683594l-18.59375 18.59375c-3.121094 3.125-3.121094 8.191407 0 11.316407 3.125 3.121093 8.191406 3.121093 11.316406 0l32.128907-32.132813c3.125-3.121094 3.125-8.1875 0-11.3125l-32.128907-32.128906c-3.125-3.125-8.191406-3.125-11.316406 0-3.121094 3.125-3.121094 8.1875 0 11.3125l18.355469 18.351562h-103.445313c-4.421875 0-8 3.582031-8 8 0 4.421875 3.578125 8 8 8zm0 0"/><path d="m27.3125 79.238281h102.769531c4.417969 0 8-3.578125 8-8 0-4.417969-3.582031-8-8-8h-102.527343l18.351562-18.351562c3.125-3.125 3.125-8.1875 0-11.3125s-8.1875-3.125-11.3125 0l-32.128906 32.128906c-3.125 3.125-3.125 8.191406 0 11.3125l32.128906 32.132813c3.125 3.121093 8.1875 3.121093 11.3125 0 3.125-3.125 3.125-8.191407 0-11.316407zm0 0"/></g></svg>