<?xml version="1.0" encoding="iso-8859-1"?>
<!-- Generator: Adobe Illustrator 19.0.0, SVG Export Plug-In . SVG Version: 6.00 Build 0)  -->
<svg version="1.1" id="Layer_1" xmlns="http://www.w3.org/2000/svg" xmlns:xlink="http://www.w3.org/1999/xlink" x="0px" y="0px"
	 viewBox="0 0 512 512" style="enable-background:new 0 0 512 512;" xml:space="preserve">
<polyline style="fill:#FEC95B;" points="267.005,365.256 267.005,487.633 245,487.633 245,365.256 "/>
<polyline style="fill:#E2AD50;" points="267.005,365.256 267.005,389.578 245,389.578 245,365.256 "/>
<g>
	<rect x="158.718" y="350.583" style="fill:#FEC95B;" width="194.576" height="22.006"/>
	<rect x="40.284" y="193.452" style="fill:#FEC95B;" width="38.22" height="294.18"/>
</g>
<polyline style="fill:#E2AD50;" points="161.326,193.453 78.504,276.275 78.504,234.511 119.562,193.453 "/>
<rect x="433.498" y="193.452" style="fill:#FEC95B;" width="38.22" height="294.18"/>
<g>
	<rect x="40.284" y="193.452" style="fill:#E2AD50;" width="38.22" height="37.456"/>
	<rect x="433.498" y="193.452" style="fill:#E2AD50;" width="38.22" height="37.456"/>
	<polyline style="fill:#E2AD50;" points="433.5,276.275 350.678,193.453 392.443,193.453 433.5,234.511 	"/>
</g>
<rect x="0.622" y="480.683" style="fill:#4F5E60;" width="510.761" height="13.898"/>
<polygon style="fill:#FEC95B;" points="512,195.003 0,195.003 256.006,17.419 "/>
<path style="fill:#E2AD50;" d="M256.006,45.608L40.629,195.003h16.273l42.285-29.337h313.626l42.285,29.337h16.273L256.006,45.608z
	 M256.006,56.889l38.267,26.546h-76.545L256.006,56.889z M204.374,92.701h103.252l39.239,27.217H165.134L204.374,92.701z
	 M112.541,156.402l39.239-27.217H360.22l39.239,27.217H112.541z"/>
<g>
</g>
<g>
</g>
<g>
</g>
<g>
</g>
<g>
</g>
<g>
</g>
<g>
</g>
<g>
</g>
<g>
</g>
<g>
</g>
<g>
</g>
<g>
</g>
<g>
</g>
<g>
</g>
<g>
</g>
</svg>
