<?xml version="1.0" encoding="utf-8"?>
<!-- Generator: Adobe Illustrator 21.1.0, SVG Export Plug-In . SVG Version: 6.00 Build 0)  -->
<svg version="1.1" id="Icons" xmlns="http://www.w3.org/2000/svg" xmlns:xlink="http://www.w3.org/1999/xlink" x="0px" y="0px"
	 viewBox="0 0 48 48" style="enable-background:new 0 0 48 48;" xml:space="preserve">
<style type="text/css">
	.st0{fill:#724F3D;}
	.st1{fill:#A86C4D;}
	.st2{fill:none;stroke:#45413C;stroke-linecap:round;stroke-linejoin:round;stroke-miterlimit:10;}
	.st3{fill:#FF87AF;}
	.st4{fill:#FF6196;}
	.st5{fill:#FFE500;stroke:#45413C;stroke-linecap:round;stroke-linejoin:round;stroke-miterlimit:10;}
	.st6{fill:#45413C;stroke:#45413C;stroke-linecap:round;stroke-linejoin:round;stroke-miterlimit:10;}
	.st7{fill:#FF6242;}
	.st8{fill:#FFA694;}
	.st9{fill:#FFAA54;}
	.st10{fill:#00B8F0;}
	.st11{fill:#009FD9;}
	.st12{fill:#FFE500;}
	.st13{fill:#EBCB00;}
	.st14{fill:#9CEB60;}
	.st15{fill:#6DD627;}
	.st16{fill:#724F3D;stroke:#45413C;stroke-linecap:round;stroke-linejoin:round;stroke-miterlimit:10;}
	.st17{fill:#BF8DF2;}
	.st18{fill:#9F5AE5;}
	.st19{fill:#00DFEB;}
	.st20{fill:#00C9D4;}
	.st21{fill:#FF866E;}
	.st22{fill:#00F5BC;}
	.st23{fill:#00DBA8;}
	.st24{fill:#FF8A14;}
	.st25{fill:#DE926A;}
	.st26{fill:#FFCEBF;stroke:#45413C;stroke-linecap:round;stroke-linejoin:round;stroke-miterlimit:10;}
	.st27{fill:#FFB59E;}
	.st28{fill:#FFCEBF;}
	.st29{fill:#A86C4D;stroke:#45413C;stroke-linecap:round;stroke-linejoin:round;stroke-miterlimit:10;}
	.st30{fill:#ADC4D9;stroke:#45413C;stroke-linecap:round;stroke-linejoin:round;stroke-miterlimit:10;}
	.st31{fill:#FFF48C;}
	.st32{fill:#C0DCEB;stroke:#45413C;stroke-linecap:round;stroke-linejoin:round;stroke-miterlimit:10;}
	.st33{fill:#4ACFFF;}
	.st34{fill:#45413C;}
	.st35{fill:#FFDCD1;}
	.st36{opacity:0.15;fill:#45413C;}
	.st37{fill:#FFB59E;stroke:#45413C;stroke-linecap:round;stroke-linejoin:round;stroke-miterlimit:10;}
	.st38{fill:#00DFEB;stroke:#45413C;stroke-linecap:round;stroke-linejoin:round;stroke-miterlimit:10;}
	.st39{fill:#F0F0F0;stroke:#45413C;stroke-linecap:round;stroke-linejoin:round;stroke-miterlimit:10;}
	.st40{fill:#E0366F;}
	.st41{fill:#FFE8E0;}
	.st42{fill:#EBCB00;stroke:#45413C;stroke-linecap:round;stroke-linejoin:round;stroke-miterlimit:10;}
	.st43{fill:#FFDA8F;}
	.st44{fill:#FFBE3D;}
	.st45{fill:#FFE9BD;}
	.st46{fill:#FFFFFF;}
	.st47{fill:#E0E0E0;}
	.st48{fill:#656769;}
	.st49{fill:#525252;}
	.st50{fill:#87898C;}
	.st51{fill:#656769;stroke:#45413C;stroke-linecap:round;stroke-linejoin:round;stroke-miterlimit:10;}
	.st52{fill:#B89558;}
	.st53{fill:#947746;}
	.st54{fill:#525252;stroke:#45413C;stroke-linecap:round;stroke-linejoin:round;stroke-miterlimit:10;}
	.st55{fill:#FFFFFF;stroke:#45413C;stroke-linecap:round;stroke-linejoin:round;stroke-miterlimit:10;}
	.st56{fill:#A6FBFF;stroke:#45413C;stroke-linecap:round;stroke-linejoin:round;stroke-miterlimit:10;}
</style>
<g>
	<ellipse id="XMLID_10218_" class="st36" cx="24" cy="45.5" rx="11" ry="1.5"/>
	<g>
		<path class="st28" d="M37.2,30.4h0.2c1.4,0,2.5-1.1,2.5-2.5s-1.1-2.5-2.5-2.5h-2.5c1.4,0,2.5-1.1,2.5-2.5c0-1.4-1.1-2.5-2.5-2.5
			h-6.1c0.6-1.4,1.3-3.7,2-5.9c0.7-2.2-0.6-4.5-2.8-5.2c-0.6-0.2-1.2,0.1-1.4,0.7c-0.9,2.9-1.5,6.6-6,10c-2.5,1.8-4.3,4.6-4,4.3
			c-0.8,1.1-2,1.7-3.2,1.7H9.8c-0.6,0-1,0.4-1,1v11.2c0,0.6,0.4,1,1,1l2.5,0c3.3,0.1,4.7,1.3,8.8,1.3h13.5c1.2,0,2.2-1,2.2-2.2
			c0-1.2-1-2.2-2.2-2.2h2.6c1.5,0,2.7-1.2,2.7-2.7C39.9,31.6,38.7,30.4,37.2,30.4z"/>
		<g>
			<path class="st35" d="M14.3,28.6c1.2,0,2.4-0.6,3.2-1.7c-0.2,0.3,1.6-2.5,4-4.3c4.5-3.3,5.1-7,6-10c0.2-0.6,0.8-0.9,1.4-0.7
				c0.8,0.2,1.4,0.7,1.9,1.2c0-1.8-1.2-3.4-3-4c-0.6-0.2-1.2,0.1-1.4,0.7c-0.9,2.9-1.5,6.6-6,10c-2.5,1.8-4.3,4.6-4,4.3
				c-0.8,1.1-2,1.7-3.2,1.7H9.8c-0.6,0-1,0.4-1,1v1.7H14.3z"/>
		</g>
		<path id="XMLID_10217_" class="st2" d="M28.4,26.1c0,0,0,0.1-0.1,0.1c-1.7,3.4-4.9,5.7-8.7,6.2h0"/>
		<path id="XMLID_10216_" class="st28" d="M34.5,40.4h-6.9c-1.2,0-2.2-1-2.2-2.2v0c0-1.2,1-2.2,2.2-2.2h6.9c1.2,0,2.2,1,2.2,2.2v0
			C36.8,39.4,35.8,40.4,34.5,40.4z"/>
		<path id="XMLID_10215_" class="st28" d="M37.2,35.9h-9.7c-1.5,0-2.7-1.2-2.7-2.7v0c0-1.5,1.2-2.7,2.7-2.7h9.7
			c1.5,0,2.7,1.2,2.7,2.7v0C39.9,34.7,38.7,35.9,37.2,35.9z"/>
		<path id="XMLID_10214_" class="st28" d="M37.3,30.4H27.3c-1.4,0-2.5-1.1-2.5-2.5v0c0-1.4,1.1-2.5,2.5-2.5h10.1
			c1.4,0,2.5,1.1,2.5,2.5v0C39.9,29.3,38.8,30.4,37.3,30.4z"/>
		<path id="XMLID_10213_" class="st28" d="M34.8,25.3h-6.9c-1.4,0-2.5-1.1-2.5-2.5v0c0-1.4,1.1-2.5,2.5-2.5h6.9
			c1.4,0,2.5,1.1,2.5,2.5v0C37.4,24.2,36.2,25.3,34.8,25.3z"/>
		<path class="st35" d="M27.9,22.3h6.9c1,0,1.9,0.6,2.3,1.5c0.1-0.3,0.2-0.7,0.2-1c0-1.4-1.1-2.5-2.5-2.5h-6.9
			c-1.4,0-2.5,1.1-2.5,2.5c0,0.4,0.1,0.7,0.2,1C26,23,26.9,22.3,27.9,22.3z"/>
		<path id="XMLID_10212_" class="st2" d="M34.5,40.4h-6.9c-1.2,0-2.2-1-2.2-2.2v0c0-1.2,1-2.2,2.2-2.2h6.9c1.2,0,2.2,1,2.2,2.2v0
			C36.8,39.4,35.8,40.4,34.5,40.4z"/>
		<path id="XMLID_10211_" class="st2" d="M37.2,35.9h-9.7c-1.5,0-2.7-1.2-2.7-2.7v0c0-1.5,1.2-2.7,2.7-2.7h9.7
			c1.5,0,2.7,1.2,2.7,2.7v0C39.9,34.7,38.7,35.9,37.2,35.9z"/>
		<path id="XMLID_10210_" class="st2" d="M37.3,30.4H27.3c-1.4,0-2.5-1.1-2.5-2.5v0c0-1.4,1.1-2.5,2.5-2.5h10.1
			c1.4,0,2.5,1.1,2.5,2.5v0C39.9,29.3,38.8,30.4,37.3,30.4z"/>
		<path id="XMLID_10209_" class="st2" d="M34.8,25.3h-6.9c-1.4,0-2.5-1.1-2.5-2.5v0c0-1.4,1.1-2.5,2.5-2.5h6.9
			c1.4,0,2.5,1.1,2.5,2.5v0C37.4,24.2,36.2,25.3,34.8,25.3z"/>
		<path class="st2" d="M37.2,30.4h0.2c1.4,0,2.5-1.1,2.5-2.5s-1.1-2.5-2.5-2.5h-2.5c1.4,0,2.5-1.1,2.5-2.5c0-1.4-1.1-2.5-2.5-2.5
			h-6.1c0.6-1.4,1.3-3.7,2-5.9c0.7-2.2-0.6-4.5-2.8-5.2c-0.6-0.2-1.2,0.1-1.4,0.7c-0.9,2.9-1.5,6.6-6,10c-2.5,1.8-4.3,4.6-4,4.3
			c-0.8,1.1-2,1.7-3.2,1.7H9.8c-0.6,0-1,0.4-1,1v11.2c0,0.6,0.4,1,1,1l2.5,0c3.3,0.1,4.7,1.3,8.8,1.3h13.5c1.2,0,2.2-1,2.2-2.2
			c0-1.2-1-2.2-2.2-2.2h2.6c1.5,0,2.7-1.2,2.7-2.7C39.9,31.6,38.7,30.4,37.2,30.4z"/>
	</g>
</g>
</svg>
