<svg height="339pt" viewBox="-23 0 339 339.415" width="339pt" xmlns="http://www.w3.org/2000/svg"><path d="m209.230469 231.648438h-146.898438l-33.902343-45.199219h180.800781zm0 0" fill="#aabece"/><path d="m197.929688 5.648438h90.402343v45.203124h-90.402343zm0 0" fill="#aabece"/><path d="m22.78125 152.550781h186.449219v33.898438h-186.449219c-9.363281 0-16.953125-7.589844-16.953125-16.949219.003906-9.359375 7.589844-16.949219 16.953125-16.949219zm0 0" fill="#b1d5e5"/><path d="m209.230469 50.851562h67.800781v135.597657c0 24.964843-20.238281 45.199219-45.199219 45.199219h-22.601562zm0 0" fill="#cfdfe8"/><path d="m220.53125 333.351562h-169.5l11.300781-101.703124h146.898438zm0 0" fill="#cfdfe8"/><path d="m254.429688 84.75c-7.160157.023438-13.53125 4.546875-15.90625 11.300781h-17.992188v11.300781h17.992188c3.136718 8.800782 12.8125 13.394532 21.617187 10.257813 8.800781-3.136719 13.394531-12.816406 10.257813-21.617187-2.40625-6.753907-8.800782-11.253907-15.96875-11.242188zm0 0" fill="#aabece"/><g fill="#fff"><path d="m265.730469 22.601562h11.300781v11.300782h-11.300781zm0 0"/><path d="m226.179688 214.699219v-11.300781c12.476562-.011719 22.585937-10.121094 22.601562-22.597657v-22.601562h11.300781v22.601562c-.023437 18.714844-15.1875 33.878907-33.902343 33.898438zm0 0"/><path d="m248.78125 135.601562h11.300781v11.296876h-11.300781zm0 0"/><path d="m198.46875 316.398438h-40.089844v-11.300782h27.714844l-5.089844-55.984375 11.253906-1.027343zm0 0"/></g><path d="m51.03125 101.699219c-9.355469-.007813-16.941406-7.59375-16.949219-16.949219 0-3.121094-2.53125-5.652344-5.652343-5.652344-3.121094 0-5.648438 2.53125-5.648438 5.652344-.011719 9.355469-7.59375 16.941406-16.953125 16.949219-3.117187 0-5.648437 2.53125-5.648437 5.648437 0 3.121094 2.53125 5.652344 5.648437 5.652344 9.359375.007812 16.941406 7.59375 16.953125 16.949219 0 3.121093 2.527344 5.652343 5.648438 5.652343 3.121093 0 5.652343-2.53125 5.652343-5.652343.007813-9.355469 7.589844-16.941407 16.949219-16.949219 3.121094 0 5.648438-2.53125 5.648438-5.652344 0-3.117187-2.527344-5.648437-5.648438-5.648437zm-22.601562 11.476562c-1.648438-2.214843-3.609376-4.179687-5.824219-5.828125 2.214843-1.644531 4.175781-3.609375 5.824219-5.824218 1.648437 2.214843 3.609374 4.179687 5.824218 5.824218-2.214844 1.648438-4.175781 3.613282-5.824218 5.828125zm0 0" fill="#f49e21"/><path d="m175.332031 56.5c-9.359375-.011719-16.941406-7.59375-16.953125-16.949219 0-3.121093-2.527344-5.652343-5.648437-5.652343-3.121094 0-5.652344 2.53125-5.652344 5.652343-.007813 9.355469-7.589844 16.9375-16.949219 16.949219-3.121094 0-5.648437 2.53125-5.648437 5.648438 0 3.121093 2.527343 5.652343 5.648437 5.652343 9.355469.007813 16.941406 7.59375 16.949219 16.949219 0 3.121094 2.53125 5.648438 5.652344 5.648438 3.121093 0 5.648437-2.527344 5.648437-5.648438.011719-9.355469 7.59375-16.941406 16.953125-16.949219 3.117188 0 5.648438-2.53125 5.648438-5.652343 0-3.117188-2.53125-5.648438-5.648438-5.648438zm-22.601562 11.476562c-1.648438-2.214843-3.609375-4.179687-5.824219-5.828124 2.214844-1.648438 4.175781-3.609376 5.824219-5.824219 1.648437 2.214843 3.609375 4.175781 5.824219 5.824219-2.214844 1.648437-4.175782 3.613281-5.824219 5.828124zm0 0" fill="#f49e21"/><path d="m192.28125 56.5h11.300781v90.398438h-180.800781c-12.484375 0-22.601562 10.121093-22.601562 22.601562s10.117187 22.601562 22.601562 22.601562h2.824219l30.859375 41.144532-11.746094 105.753906h182.125l-11.296875-101.699219h16.285156c28.070313-.03125 50.816407-22.78125 50.847657-50.851562v-129.949219h11.300781v-56.5h-101.699219zm-180.800781 113c.007812-6.238281 5.0625-11.292969 11.300781-11.300781h180.796875v22.601562h-180.796875c-6.238281-.007812-11.292969-5.0625-11.300781-11.300781zm192.101562 22.601562v33.898438h-138.425781l-25.425781-33.898438zm-146.238281 135.597657 10.046875-90.398438h136.78125l10.046875 90.398438zm214.035156-226v84.75c-.023437 21.832031-17.714844 39.523437-39.546875 39.550781h-16.953125v-169.5h56.5zm-67.796875-90.398438h79.097657v33.898438h-79.097657zm0 0"/><path d="m254.429688 84.75c-7.160157.023438-13.53125 4.546875-15.90625 11.300781h-17.992188v11.300781h17.992188c3.136718 8.800782 12.8125 13.394532 21.617187 10.257813 8.800781-3.136719 13.394531-12.816406 10.257813-21.617187-2.40625-6.753907-8.800782-11.253907-15.96875-11.242188zm0 22.597656c-3.121094 0-5.648438-2.527344-5.648438-5.648437 0-3.121094 2.527344-5.648438 5.648438-5.648438 3.121093 0 5.652343 2.527344 5.652343 5.648438-.003906 3.121093-2.53125 5.648437-5.652343 5.648437zm0 0"/><path d="m265.730469 22.601562h11.300781v11.300782h-11.300781zm0 0"/><path d="m260.082031 180.800781v-22.601562h-11.300781v22.601562c-.011719 12.476563-10.125 22.585938-22.601562 22.597657v11.300781c18.714843-.019531 33.878906-15.183594 33.902343-33.898438zm0 0"/><path d="m248.78125 135.601562h11.300781v11.296876h-11.300781zm0 0"/><path d="m181.003906 249.113281 5.089844 55.984375h-27.714844v11.300782h40.089844l-6.210938-68.3125zm0 0"/><path d="m22.78125 129.949219c0 3.121093 2.527344 5.652343 5.648438 5.652343 3.121093 0 5.652343-2.53125 5.652343-5.652343.007813-9.355469 7.589844-16.941407 16.949219-16.949219 3.121094 0 5.648438-2.53125 5.648438-5.652344 0-3.117187-2.527344-5.648437-5.648438-5.648437-9.355469-.007813-16.941406-7.59375-16.949219-16.949219 0-3.121094-2.53125-5.652344-5.652343-5.652344-3.121094 0-5.648438 2.53125-5.648438 5.652344-.011719 9.355469-7.59375 16.941406-16.953125 16.949219-3.117187 0-5.648437 2.53125-5.648437 5.648437 0 3.121094 2.53125 5.652344 5.648437 5.652344 9.359375.011719 16.941406 7.59375 16.953125 16.949219zm5.648438-28.425781c1.648437 2.214843 3.609374 4.179687 5.824218 5.824218-2.214844 1.648438-4.175781 3.613282-5.824218 5.828125-1.648438-2.214843-3.609376-4.179687-5.824219-5.828125 2.214843-1.644531 4.175781-3.609375 5.824219-5.824218zm0 0"/><path d="m147.078125 84.75c0 3.121094 2.53125 5.648438 5.652344 5.648438 3.121093 0 5.648437-2.527344 5.648437-5.648438.011719-9.355469 7.59375-16.941406 16.953125-16.949219 3.117188 0 5.648438-2.53125 5.648438-5.652343 0-3.117188-2.53125-5.648438-5.648438-5.648438-9.359375-.011719-16.941406-7.59375-16.953125-16.949219 0-3.121093-2.527344-5.652343-5.648437-5.652343-3.121094 0-5.652344 2.53125-5.652344 5.652343-.007813 9.355469-7.589844 16.9375-16.949219 16.949219-3.121094 0-5.648437 2.53125-5.648437 5.648438 0 3.121093 2.527343 5.652343 5.648437 5.652343 9.359375.007813 16.941406 7.59375 16.949219 16.949219zm5.652344-28.425781c1.648437 2.214843 3.609375 4.175781 5.824219 5.824219-2.214844 1.648437-4.175782 3.613281-5.824219 5.828124-1.648438-2.214843-3.609375-4.179687-5.824219-5.828124 2.214844-1.648438 4.175781-3.609376 5.824219-5.824219zm0 0"/></svg>