<svg height="480pt" viewBox="0 -24 480 480" width="480pt" xmlns="http://www.w3.org/2000/svg"><path d="m56 392c0 17.671875 14.328125 32 32 32h32c17.671875 0 32-14.328125 32-32v-32h-96zm0 0" fill="#3e3d42"/><path d="m328 392c0 17.671875 14.328125 32 32 32h32c17.671875 0 32-14.328125 32-32v-32h-96zm0 0" fill="#3e3d42"/><path d="m8 256v72c0 17.671875 14.328125 32 32 32h400c17.671875 0 32-14.328125 32-32v-72c0-26.507812-21.492188-48-48-48h-368c-26.507812 0-48 21.492188-48 48zm384 24c13.253906 0 24 10.746094 24 24s-10.746094 24-24 24-24-10.746094-24-24 10.746094-24 24-24zm-248 8h192v32h-192zm-56-8c13.253906 0 24 10.746094 24 24s-10.746094 24-24 24-24-10.746094-24-24 10.746094-24 24-24zm0 0" fill="#ffcd00"/><path d="m424 168v-8c0-53.019531-42.980469-96-96-96h-176c-53.019531 0-96 42.980469-96 96v48h368zm-24 16h-320v-24c.042969-39.746094 32.253906-71.957031 72-72h176c39.746094.042969 71.957031 32.253906 72 72zm0 0" fill="#ffda44"/><path d="m328 88h-176c-39.746094.042969-71.957031 32.253906-72 72v24h320v-24c-.042969-39.746094-32.253906-71.957031-72-72zm0 0" fill="#f1f2f2"/><path d="m144 288h192v32h-192zm0 0" fill="#00aeef"/><path d="m24 168c-8.835938 0-16 7.164062-16 16s7.164062 16 16 16h32v-32zm0 0" fill="#898890"/><path d="m456 200c8.835938 0 16-7.164062 16-16s-7.164062-16-16-16h-32v32zm0 0" fill="#898890"/><path d="m320 40c0-17.671875-14.328125-32-32-32h-96c-17.671875 0-32 14.328125-32 32v24h160zm0 0" fill="#ffcd00"/><path d="m112 304c0 13.253906-10.746094 24-24 24s-24-10.746094-24-24 10.746094-24 24-24 24 10.746094 24 24zm0 0" fill="#f1f2f2"/><path d="m416 304c0 13.253906-10.746094 24-24 24s-24-10.746094-24-24 10.746094-24 24-24 24 10.746094 24 24zm0 0" fill="#f1f2f2"/><g fill="#231f20"><path d="m452.695312 208h3.304688c13.253906 0 24-10.746094 24-24s-10.746094-24-24-24h-24c-.066406-57.410156-46.589844-103.933594-104-104v-16c-.027344-22.082031-17.917969-39.9726562-40-40h-96c-22.082031.0273438-39.972656 17.917969-40 40v16c-57.410156.066406-103.933594 46.589844-104 104h-24c-13.253906 0-24 10.746094-24 24s10.746094 24 24 24h3.304688c-16.90625 10.089844-27.273438 28.3125-27.304688 48v72c.0273438 22.082031 17.917969 39.972656 40 40h8v24c.027344 22.082031 17.917969 39.972656 40 40h32c22.082031-.027344 39.972656-17.917969 40-40v-24h160v24c.027344 22.082031 17.917969 39.972656 40 40h32c22.082031-.027344 39.972656-17.917969 40-40v-24h8c22.082031-.027344 39.972656-17.917969 40-40v-72c-.03125-19.6875-10.398438-37.910156-27.304688-48zm3.304688-32c4.417969 0 8 3.582031 8 8s-3.582031 8-8 8h-24v-16zm-288-136c0-13.253906 10.746094-24 24-24h96c13.253906 0 24 10.746094 24 24v16h-144zm-104 120c.058594-48.578125 39.421875-87.941406 88-88h176c48.578125.058594 87.941406 39.421875 88 88v40h-352zm-48 24c0-4.417969 3.582031-8 8-8h24v16h-24c-4.417969 0-8-3.582031-8-8zm128 208c0 13.253906-10.746094 24-24 24h-32c-13.253906 0-24-10.746094-24-24v-24h80zm272 0c0 13.253906-10.746094 24-24 24h-32c-13.253906 0-24-10.746094-24-24v-24h80zm48-64c0 13.253906-10.746094 24-24 24h-400c-13.253906 0-24-10.746094-24-24v-72c.027344-22.082031 17.917969-39.972656 40-40h368c22.082031.027344 39.972656 17.917969 40 40zm0 0"/><path d="m80 192h320c4.417969 0 8-3.582031 8-8v-24c-.046875-44.164062-35.835938-79.953125-80-80h-176c-44.164062.046875-79.953125 35.835938-80 80v24c0 4.417969 3.582031 8 8 8zm8-32c.039062-35.328125 28.671875-63.960938 64-64h176c35.328125.039062 63.960938 28.671875 64 64v16h-304zm0 0"/><path d="m336 280h-192c-4.417969 0-8 3.582031-8 8v32c0 4.417969 3.582031 8 8 8h192c4.417969 0 8-3.582031 8-8v-32c0-4.417969-3.582031-8-8-8zm-8 32h-176v-16h176zm0 0"/><path d="m88 272c-17.671875 0-32 14.328125-32 32s14.328125 32 32 32 32-14.328125 32-32-14.328125-32-32-32zm0 48c-8.835938 0-16-7.164062-16-16s7.164062-16 16-16 16 7.164062 16 16-7.164062 16-16 16zm0 0"/><path d="m392 272c-17.671875 0-32 14.328125-32 32s14.328125 32 32 32 32-14.328125 32-32-14.328125-32-32-32zm0 48c-8.835938 0-16-7.164062-16-16s7.164062-16 16-16 16 7.164062 16 16-7.164062 16-16 16zm0 0"/></g></svg>