<?xml version="1.0" encoding="iso-8859-1"?>
<!-- Generator: Adobe Illustrator 19.0.0, SVG Export Plug-In . SVG Version: 6.00 Build 0)  -->
<svg version="1.1" id="Layer_1" xmlns="http://www.w3.org/2000/svg" xmlns:xlink="http://www.w3.org/1999/xlink" x="0px" y="0px"
	 viewBox="0 0 512 512" style="enable-background:new 0 0 512 512;" xml:space="preserve">
<g>
	<rect x="57.149" y="9.197" style="fill:#CCCCCC;" width="145.689" height="99.446"/>
	<path style="fill:#CCCCCC;" d="M454.86,9.197v99.446H202.837V9.197H454.86z M415.665,58.92c0-10.749-8.714-19.45-19.45-19.45
		c-10.749,0-19.451,8.702-19.451,19.45c0,10.736,8.702,19.45,19.451,19.45C406.951,78.371,415.665,69.657,415.665,58.92z
		 M305.458,78.371V39.47h-68.071v38.901H305.458z"/>
</g>
<path style="fill:#35D8B9;" d="M319.748,241.12c-15.982,16.19-25.86,38.411-25.86,62.96c0,24.537,9.878,46.769,25.86,62.948
	c-16.239,16.448-38.803,26.657-63.744,26.657c-49.49,0-89.605-40.127-89.605-89.605c0-49.49,40.114-89.617,89.605-89.617
	C280.945,214.463,303.509,224.672,319.748,241.12z"/>
<path style="fill:#CCCCCC;" d="M256.004,164.004c77.361,0,140.063,62.715,140.063,140.075c0,77.348-62.702,140.063-140.063,140.063
	S115.929,381.428,115.929,304.08C115.929,226.719,178.644,164.004,256.004,164.004z M293.888,304.08
	c0-24.549,9.878-46.769,25.86-62.96c-16.239-16.448-38.803-26.657-63.744-26.657c-49.49,0-89.605,40.127-89.605,89.617
	c0,49.478,40.114,89.605,89.605,89.605c24.941,0,47.505-10.209,63.744-26.657C303.766,350.849,293.888,328.616,293.888,304.08z"/>
<path style="fill:#F2F2F2;" d="M454.86,108.643v394.169H57.149V108.643h145.689H454.86z M396.067,304.08
	c0-77.361-62.702-140.075-140.063-140.075S115.929,226.719,115.929,304.08c0,77.348,62.715,140.063,140.075,140.063
	S396.067,381.428,396.067,304.08z"/>
<g>
	<path style="fill:#FFFFFF;" d="M396.214,39.47c10.736,0,19.45,8.702,19.45,19.45c0,10.736-8.714,19.45-19.45,19.45
		c-10.749,0-19.451-8.714-19.451-19.45C376.764,48.172,385.466,39.47,396.214,39.47z"/>
	<rect x="237.39" y="39.465" style="fill:#FFFFFF;" width="68.071" height="38.901"/>
</g>
<path style="fill:#2BBFA3;" d="M293.888,304.08c0,9.78,1.569,19.181,4.473,27.993c-9.094,13.727-24.672,22.772-42.357,22.772
	c-28.042,0-50.777-22.735-50.777-50.765c0-28.042,22.735-50.777,50.777-50.777c17.686,0,33.263,9.045,42.357,22.772
	C295.457,284.874,293.888,294.287,293.888,304.08z"/>
<g>
	<path style="fill:#FFFFFF;" d="M372.229,313.27c-5.077,0-9.192-4.116-9.192-9.192c0-23.344-7.378-45.527-21.337-64.146
		c-13.506-18.017-32.726-31.571-54.119-38.167c-4.851-1.495-7.572-6.64-6.077-11.491c1.495-4.851,6.639-7.572,11.491-6.077
		c25.075,7.73,47.595,23.608,63.413,44.708c16.363,21.827,25.011,47.821,25.011,75.173
		C381.421,309.155,377.306,313.27,372.229,313.27z"/>
	<circle style="fill:#FFFFFF;" cx="263.36" cy="189.063" r="9.192"/>
</g>
<g>
	<path style="fill:#333333;" d="M454.858,0H57.144c-5.076,0-9.192,4.116-9.192,9.192v493.616c0,5.076,4.116,9.192,9.192,9.192
		h397.713c5.077,0,9.192-4.116,9.192-9.192V9.192C464.05,4.116,459.934,0,454.858,0z M445.665,99.452H212.033V18.384h233.633V99.452
		z M193.649,18.384v81.068H66.336V18.384H193.649z M66.336,493.616V117.837h379.329v375.779H66.336z"/>
	<path style="fill:#333333;" d="M256.001,154.812c-82.304,0-149.263,66.959-149.263,149.263s66.959,149.263,149.263,149.263
		s149.263-66.959,149.263-149.263S338.304,154.812,256.001,154.812z M256.001,434.953c-72.167,0-130.878-58.712-130.878-130.878
		s58.712-130.878,130.878-130.878s130.878,58.712,130.878,130.878S328.167,434.953,256.001,434.953z"/>
	<path style="fill:#333333;" d="M326.291,234.662c-18.714-18.949-43.677-29.387-70.29-29.387c-54.479,0-98.799,44.321-98.799,98.798
		s44.321,98.798,98.799,98.798c26.613,0,51.576-10.436,70.29-29.387c3.536-3.58,3.536-9.338,0-12.918
		c-14.964-15.152-23.205-35.216-23.205-56.495c0-21.279,8.241-41.342,23.205-56.495C329.827,244,329.827,238.243,326.291,234.662z
		 M284.702,304.075c0,22.945,7.796,44.736,22.13,62.31c-14.315,11.73-32.069,18.104-50.831,18.104
		c-44.341,0-80.415-36.074-80.415-80.414s36.073-80.414,80.415-80.414c18.762,0,36.515,6.373,50.831,18.104
		C292.498,259.337,284.702,281.129,284.702,304.075z"/>
	<path style="fill:#333333;" d="M396.211,87.558c15.792,0,28.64-12.848,28.64-28.64s-12.848-28.64-28.64-28.64
		c-15.792,0-28.64,12.848-28.64,28.64C367.571,74.711,380.419,87.558,396.211,87.558z M396.211,48.663
		c5.655,0,10.256,4.601,10.256,10.256s-4.601,10.256-10.256,10.256s-10.256-4.601-10.256-10.256
		C385.955,53.263,390.556,48.663,396.211,48.663z"/>
	<path style="fill:#333333;" d="M237.386,87.558h68.068c5.076,0,9.192-4.116,9.192-9.192V39.471c0-5.076-4.116-9.192-9.192-9.192
		h-68.068c-5.076,0-9.192,4.116-9.192,9.192v38.895C228.194,83.443,232.309,87.558,237.386,87.558z M246.578,48.663h49.684v20.511
		h-49.684V48.663z"/>
	<path style="fill:#333333;" d="M98.659,70.214h60.288c5.076,0,9.192-4.116,9.192-9.192s-4.116-9.192-9.192-9.192H98.659
		c-5.076,0-9.192,4.116-9.192,9.192S93.582,70.214,98.659,70.214z"/>
</g>
<g>
</g>
<g>
</g>
<g>
</g>
<g>
</g>
<g>
</g>
<g>
</g>
<g>
</g>
<g>
</g>
<g>
</g>
<g>
</g>
<g>
</g>
<g>
</g>
<g>
</g>
<g>
</g>
<g>
</g>
</svg>
