<svg height="480pt" viewBox="0 0 480 480" width="480pt" xmlns="http://www.w3.org/2000/svg"><path d="m472 240c0 128.128906-103.871094 232-232 232s-232-103.871094-232-232 103.871094-232 232-232 232 103.871094 232 232zm0 0" fill="#46f8ff"/><path d="m240 136c-57.3125-.148438-112.300781 22.640625-152.710938 63.28125-2.082031 2.007812-2.914062 4.980469-2.183593 7.777344.734375 2.796875 2.917969 4.984375 5.714843 5.714844 2.796876.730468 5.769532-.101563 7.78125-2.179688 78.082032-78.121094 204.714844-78.121094 282.796876 0 3.140624 3.03125 8.128906 2.988281 11.214843-.097656 3.085938-3.085938 3.128907-8.078125.097657-11.214844-40.410157-40.640625-95.398438-63.429688-152.710938-63.28125zm0 0"/><path d="m240 184c-44.578125-.113281-87.347656 17.613281-118.777344 49.222656-3.03125 3.140625-2.988281 8.128906.097656 11.214844 3.085938 3.085938 8.078126 3.128906 11.214844.097656 59.339844-59.382812 155.589844-59.382812 214.929688 0 3.136718 3.03125 8.128906 2.988282 11.214844-.097656 3.085937-3.085938 3.128906-8.074219.097656-11.214844-31.429688-31.609375-74.199219-49.335937-118.777344-49.222656zm0 0"/><path d="m240 280c-19.09375-.03125-37.417969 7.539062-50.921875 21.039062-3.042969 3.128907-3.019531 8.121094.058594 11.21875 3.074219 3.097657 8.066406 3.15625 11.214843.132813 21.914063-21.855469 57.382813-21.855469 79.296876 0 2.015624 2.074219 4.992187 2.894531 7.785156 2.152344 2.792968-.742188 4.972656-2.933594 5.691406-5.730469.722656-2.800781-.121094-5.769531-2.203125-7.773438-13.503906-13.5-31.828125-21.070312-50.921875-21.039062zm0 0"/><path d="m303.039062 250.015625c-38.59375-24.019531-87.484374-24.019531-126.078124 0-7.898438 4.851563-15.214844 10.597656-21.800782 17.121094-3.125 3.125-3.125 8.1875 0 11.3125 3.125 3.121093 8.1875 3.121093 11.3125 0 5.21875-5.203125 10.972656-9.839844 17.167969-13.832031 34.289063-22.199219 78.414063-22.199219 112.703125 0 6.199219 4 11.957031 8.648437 17.175781 13.863281 3.125 3.121093 8.1875 3.121093 11.3125 0 3.121094-3.125 3.121094-8.1875 0-11.3125-6.582031-6.535157-13.894531-12.289063-21.792969-17.152344zm0 0"/><path d="m240 336c-8.835938 0-16 7.164062-16 16s7.164062 16 16 16 16-7.164062 16-16-7.164062-16-16-16zm0 0"/><path d="m240 0c-132.546875 0-240 107.453125-240 240s107.453125 240 240 240 240-107.453125 240-240c-.148438-132.484375-107.515625-239.851562-240-240zm0 464c-123.710938 0-224-100.289062-224-224s100.289062-224 224-224 224 100.289062 224 224c-.140625 123.652344-100.347656 223.859375-224 224zm0 0"/></svg>